<?xml version="1.0" encoding="UTF-8"?>
<svg width="219px" height="122px" viewBox="0 0 219 122" version="1.1" xmlns="http://www.w3.org/2000/svg" xmlns:xlink="http://www.w3.org/1999/xlink">
    <!-- Generator: Sketch 53 (72520) - https://sketchapp.com -->
    <title>create-app</title>
    <desc>Created with Sketch.</desc>
    <g id="home" stroke="none" stroke-width="1" fill="none" fill-rule="evenodd">
        <g id="home-with-getting-started" transform="translate(-93.000000, -1300.000000)" fill-rule="nonzero">
            <g id="create-app" transform="translate(93.000000, 1300.084433)">
                <g id="Group-9" transform="translate(0.000000, 100.719520)">
                    <path d="M213.307449,21.0990738 L5.87043277,21.0990738 C1.77232406,21.0990738 -0.593177899,20.5546659 0.569374298,19.895536 L29.8082353,3.31925495 C30.4186875,2.97091735 33.259983,2.69349878 36.1596305,2.69349878 L183.009274,2.69349878 C185.91341,2.69349878 188.754706,2.9688315 189.365158,3.31925495 L218.59953,19.8913643 C219.762083,20.5546659 217.401069,21.0990738 213.307449,21.0990738 Z" id="Path" fill="#E6E7E8"></path>
                    <path d="M218.8958,17.3921537 L217.419016,17.3921537 L217.419016,17.8825517 L189.364618,1.97278935 C188.754154,1.62429377 185.912804,1.34674939 183.008613,1.34674939 L36.1561802,1.34674939 C33.2564776,1.34674939 30.4151281,1.62220697 29.8046644,1.97278935 L2.56720987,17.4151085 L0.273482237,17.4151085 L0.273482237,18.890476 L0.273482237,18.890476 C0.313880571,19.3871344 2.51783413,19.7523244 5.86640714,19.7523244 L213.307363,19.7523244 C216.67838,19.7523244 218.868867,19.3850476 218.8958,18.8863024 L218.8958,18.8863024 L218.8958,17.3921537 Z" id="Path" fill="#EDEDED"></path>
                    <path d="M213.307449,18.405575 L5.87043277,18.405575 C1.77232406,18.405575 -0.593177899,17.8611671 0.569374298,17.2020373 L29.8082353,0.625756176 C30.4186875,0.277418571 33.259983,0 36.1596305,0 L183.009274,0 C185.91341,0 188.754706,0.275332717 189.365158,0.625756176 L218.59953,17.1978656 C219.762083,17.8611671 217.401069,18.405575 213.307449,18.405575 Z" id="Path" fill="#FFFFFF"></path>
                    <path d="M196.522835,10.3250786 L23.0996068,10.3250786 C21.9016661,10.3250786 21.1523923,10.1864127 21.4305658,10.0171587 L36.0885144,1.10175345 C36.2814412,0.98551875 37.2371017,0.897832926 38.2286556,0.897832926 L181.393786,0.897832926 C182.380853,0.897832926 183.341001,0.991636366 183.529441,1.10175345 L198.187389,10.0171587 C198.465563,10.1864127 197.720776,10.3250786 196.522835,10.3250786 Z" id="Path" fill="#EDEDED"></path>
                    <path d="M135.825199,17.0588256 L83.7838975,17.0588256 C82.4350948,17.0588256 81.4234929,16.8946355 81.5358931,16.6913526 L83.8423456,11.9787071 C83.9277697,11.8086531 84.9843318,11.671828 86.2072462,11.671828 L133.415338,11.671828 C134.638253,11.671828 135.694815,11.8086531 135.780239,11.9787071 L138.086691,16.6913526 C138.163124,16.8946355 137.174002,17.0588256 135.825199,17.0588256 Z" id="Path" fill="#EDEDED"></path>
                    <path d="M41.2169311,6.28747532 L32.2864103,6.28747532 C31.8422207,6.272858 31.3989024,6.31915853 31.0345104,6.41822479 L29.0368939,7.49211377 C28.8922701,7.56882012 29.2402712,7.63157987 29.8097275,7.63157987 L48.2537837,7.63157987 C48.8277595,7.63157987 49.3791378,7.56882012 49.4830862,7.49211377 L50.9835583,6.41822479 C51.0875067,6.34500508 50.7169081,6.28747532 50.1655298,6.28747532 L41.2169311,6.28747532 Z" id="Path" fill="#6D6E71"></path>
                    <path d="M61.2173314,7.63157987 L53.2163856,7.63157987 C52.6597212,7.63157987 52.2753578,7.57917717 52.3592992,7.51280042 L53.8039758,6.39487615 C53.8834993,6.33373967 54.3915659,6.28483048 54.9305584,6.28483048 L62.7017697,6.28483048 C63.2451802,6.28483048 63.6295437,6.33373967 63.5632741,6.39487615 L62.3704219,7.51280042 C62.2864804,7.57917717 61.7784138,7.63157987 61.2173314,7.63157987 Z" id="Path" fill="#6D6E71"></path>
                    <path d="M74.5727321,7.63157987 L66.2904092,7.63157987 C65.7102354,7.63157987 65.2945204,7.57917717 65.3767497,7.51280042 L66.5325289,6.39487615 C66.5964851,6.33373967 67.1035661,6.28483048 67.6654666,6.28483048 L75.6691235,6.28483048 C76.231024,6.28483048 76.6467391,6.33373967 76.5827829,6.39487615 L75.6919649,7.51280042 C75.6508503,7.57917717 75.139201,7.63157987 74.5727321,7.63157987 Z" id="Path" fill="#6D6E71"></path>
                    <path d="M87.5179987,7.63157987 L79.3374942,7.63157987 C78.7638199,7.63157987 78.3392106,7.57917717 78.3888989,7.51280042 L79.1929463,6.39487615 C79.2381175,6.33373967 79.7214494,6.28483048 80.2770551,6.28483048 L88.2091181,6.28483048 C88.7602068,6.28483048 89.1848161,6.33373967 89.1577134,6.39487615 L88.6111418,7.51280042 C88.579522,7.57917717 88.091673,7.63157987 87.5179987,7.63157987 Z" id="Path" fill="#6D6E71"></path>
                    <path d="M113.725059,7.63157987 L105.453347,7.63157987 C104.873917,7.63157987 104.41311,7.57917717 104.422235,7.51280042 L104.549983,6.39487615 C104.549983,6.33373967 105.006228,6.28483048 105.581096,6.28483048 L113.588186,6.28483048 C114.149367,6.28483048 114.610174,6.33373967 114.614736,6.39487615 L114.747047,7.51280042 C114.756172,7.57917717 114.295365,7.63157987 113.725059,7.63157987 Z" id="Path" fill="#6D6E71"></path>
                    <path d="M100.496633,7.63157987 L92.3810709,7.63157987 C91.8167437,7.63157987 91.3778226,7.57917717 91.4046953,7.51280042 L91.852574,6.39487615 C91.8749679,6.33373967 92.3452406,6.28483048 92.8916526,6.28483048 L100.756403,6.28483048 C101.307293,6.28483048 101.741736,6.33373967 101.728299,6.39487615 L101.526754,7.51280042 C101.549148,7.57917717 101.06096,7.63157987 100.496633,7.63157987 Z" id="Path" fill="#6D6E71"></path>
                    <path d="M126.800247,7.63157987 L118.693993,7.63157987 C118.130002,7.63157987 117.660009,7.57917717 117.646581,7.51280042 L117.440679,6.39487615 C117.440679,6.33373967 117.888291,6.28483048 118.416473,6.28483048 L126.276541,6.28483048 C126.822628,6.28483048 127.288145,6.33373967 127.315001,6.39487615 L127.762613,7.51280042 C127.807374,7.57917717 127.368715,7.63157987 126.800247,7.63157987 Z" id="Path" fill="#6D6E71"></path>
                    <path d="M140.280775,7.63157987 L132.100569,7.63157987 C131.526915,7.63157987 131.039084,7.57917717 131.007465,7.51280042 L130.460914,6.39487615 C130.429295,6.33373967 130.853889,6.28483048 131.409474,6.28483048 L139.341248,6.28483048 C139.896834,6.28483048 140.380148,6.33373967 140.425318,6.39487615 L141.229336,7.51280042 C141.279022,7.57917717 140.849912,7.63157987 140.280775,7.63157987 Z" id="Path" fill="#6D6E71"></path>
                    <path d="M153.328789,7.63157987 L145.062086,7.63157987 C144.483007,7.63157987 143.972322,7.57917717 143.922166,7.51280042 L143.033028,6.39487615 C142.982871,6.33373967 143.397803,6.28483048 143.944964,6.28483048 L151.960884,6.28483048 C152.521725,6.28483048 153.02785,6.33373967 153.091685,6.39487615 L154.245285,7.51280042 C154.30912,7.57917717 153.898749,7.63157987 153.328789,7.63157987 Z" id="Path" fill="#6D6E71"></path>
                    <path d="M166.400786,7.63157987 L158.385957,7.63157987 C157.828634,7.63157987 157.315544,7.57917717 157.249196,7.51280042 L156.054933,6.39487615 C155.988585,6.33373967 156.373403,6.28483048 156.917456,6.28483048 L164.680163,6.28483048 C165.224216,6.28483048 165.72846,6.33373967 165.808078,6.39487615 L167.258886,7.51280042 C167.342926,7.57917717 166.958108,7.63157987 166.400786,7.63157987 Z" id="Path" fill="#6D6E71"></path>
                    <path d="M46.2903377,9.87616219 L38.8716905,9.87616219 C38.2789173,9.87616219 37.8927165,9.80536532 38.0004935,9.71955095 L39.9090437,8.22852613 C40.01233,8.14700248 40.5601962,8.08049633 41.1350066,8.08049633 L48.320137,8.08049633 C48.8949475,8.08049633 49.2856389,8.14700248 49.1913341,8.22852613 L47.5432448,9.71955095 C47.4399586,9.80536532 46.8831109,9.87616219 46.2903377,9.87616219 Z" id="Path" fill="#6D6E71"></path>
                    <path d="M33.7960185,9.87616219 L26.2731014,9.87616219 C25.6809576,9.87616219 25.3086248,9.80550746 25.438717,9.71986538 L27.6816858,8.2318341 C28.0563353,8.11769984 28.4994337,8.06577 28.9422342,8.0841015 L36.2273966,8.0841015 C36.7971107,8.0841015 37.1739295,8.15047412 37.066267,8.2318341 L35.0789967,9.71986538 C34.9623623,9.80550746 34.4016201,9.87616219 33.7960185,9.87616219 Z" id="Path" fill="#6D6E71"></path>
                    <path d="M59.2422376,9.87616219 L51.909527,9.87616219 C51.3204108,9.87616219 50.9142777,9.80536532 51.0169268,9.71955095 L52.5745141,8.22852613 C52.6593111,8.14700248 53.1948712,8.08049633 53.7616724,8.08049633 L60.871233,8.08049633 C61.4424971,8.08049633 61.8486302,8.14700248 61.7638332,8.22852613 L60.4561739,9.71955095 C60.3803028,9.80536532 59.8402797,9.87616219 59.2422376,9.87616219 Z" id="Path" fill="#6D6E71"></path>
                    <path d="M180.742424,9.87616219 L173.325851,9.87616219 C172.733244,9.87616219 172.176552,9.80536532 172.077784,9.71955095 L170.425666,8.22852613 C170.335877,8.14700248 170.726459,8.08049633 171.296619,8.08049633 L178.479741,8.08049633 C179.054391,8.08049633 179.602104,8.14700248 179.70985,8.22852613 L181.617867,9.71955095 C181.725614,9.80536532 181.335032,9.87616219 180.742424,9.87616219 Z" id="Path" fill="#6D6E71"></path>
                    <path d="M168.134402,9.87616219 L160.517966,9.87616219 C159.918104,9.87616219 159.36823,9.8064481 159.28643,9.72194618 L158.75019,9.12832017 C158.672935,9.0459308 159.09102,8.97832926 159.681794,8.97832926 L167.180076,8.97832926 C167.770849,8.97832926 168.320723,9.0459308 168.411611,9.12832017 L169.052374,9.72194618 C169.147806,9.8064481 168.734265,9.87616219 168.134402,9.87616219 Z" id="Path" fill="#6D6E71"></path>
                    <path d="M193.366023,9.87616219 L185.982183,9.87616219 C185.391117,9.87616219 184.817963,9.80672557 184.701541,9.72255997 L183.90002,9.13129664 C183.788076,9.04923518 184.164209,8.9819027 184.746318,8.9819027 L191.995826,8.9819027 C192.447565,8.96357386 192.899496,9.01611034 193.280945,9.13129664 L194.176499,9.72255997 C194.31531,9.80672557 193.939177,9.87616219 193.366023,9.87616219 Z" id="Path" fill="#6D6E71"></path>
                    <path d="M72.6447842,9.87616219 L64.0817784,9.87616219 C63.4834106,9.87616219 63.0573002,9.80536532 63.1298296,9.71955095 L64.3764292,8.22852613 C64.4444255,8.14700248 64.9702639,8.08049633 65.5504993,8.08049633 L73.8369867,8.08049633 C74.4172222,8.08049633 74.8433326,8.14700248 74.7889355,8.22852613 L73.8279206,9.71955095 C73.7735235,9.80536532 73.243152,9.87616219 72.6447842,9.87616219 Z" id="Path" fill="#6D6E71"></path>
                    <path d="M155.087131,9.87616219 L146.525333,9.87616219 C145.926732,9.87616219 145.396155,9.80536532 145.337202,9.71955095 L144.380348,8.22852613 C144.32593,8.14700248 144.752206,8.08049633 145.332667,8.08049633 L153.622374,8.08049633 C154.202835,8.08049633 154.728877,8.14700248 154.7969,8.22852613 L156.039449,9.71955095 C156.112007,9.80536532 155.685731,9.87616219 155.087131,9.87616219 Z" id="Path" fill="#6D6E71"></path>
                    <path d="M178.391679,6.28753447 L169.448495,6.28753447 C168.892372,6.28753447 168.54423,6.34506171 168.630135,6.41827819 L170.126694,7.49211991 C170.235206,7.56882289 170.786808,7.63157987 171.361016,7.63157987 L189.812549,7.63157987 C190.382236,7.63157987 190.716814,7.56882289 190.585695,7.49211991 L188.582748,6.41827819 C188.220107,6.31906306 187.777864,6.27272831 187.334862,6.28753447 L178.391679,6.28753447 Z" id="Path" fill="#6D6E71"></path>
                    <path d="M40.8910016,4.49216438 L35.1745637,4.49216438 C34.7580288,4.47640246 34.3416553,4.52310142 33.9983052,4.6240893 L32.1759956,5.69645052 C32.0423299,5.77372084 32.3764943,5.83591402 32.9200682,5.83591402 L44.7182972,5.83591402 C45.2574157,5.83591402 45.7876231,5.77372084 45.8945557,5.69645052 L47.3916119,4.6240893 C47.494089,4.55058827 47.1510136,4.49216438 46.6252617,4.49216438 L40.8910016,4.49216438 Z" id="Path" fill="#6D6E71"></path>
                    <path d="M70.04768,5.83591402 L62.2006399,5.83591402 C61.6504451,5.83591402 61.2626029,5.78302624 61.3347596,5.71691653 L62.5298548,4.60060672 C62.5929919,4.54016355 63.0800495,4.48916463 63.6122051,4.48916463 L71.224736,4.48916463 C71.7568916,4.48916463 72.1492436,4.54016355 72.095126,4.60060672 L71.1390499,5.71691653 C71.0849324,5.78302624 70.5933649,5.83591402 70.04768,5.83591402 Z" id="Path" fill="#6D6E71"></path>
                    <path d="M57.5531036,5.83591402 L49.6141172,5.83591402 C49.0574756,5.83591402 48.6787769,5.78318706 48.7700296,5.71727835 L50.29395,4.60436281 C50.6274723,4.51494174 51.0254848,4.4757034 51.420921,4.49325956 L59.127213,4.49325956 C59.665604,4.49325956 60.0397402,4.54410342 59.9713007,4.60436281 L58.6937626,5.71727835 C58.6161978,5.78318706 58.1051826,5.83591402 57.5531036,5.83591402 Z" id="Path" fill="#6D6E71"></path>
                    <path d="M82.5210828,5.83591402 L74.7886512,5.83591402 C74.2464922,5.83591402 73.8509828,5.78302624 73.899866,5.71691653 L74.7886512,4.60060672 C74.8375344,4.54016355 75.3041467,4.48916463 75.8285299,4.48916463 L83.3298773,4.48916463 C83.8542606,4.48916463 84.254214,4.54016355 84.2186626,4.60060672 L83.5831811,5.71691653 C83.529854,5.78302624 83.0587978,5.83591402 82.5210828,5.83591402 Z" id="Path" fill="#6D6E71"></path>
                    <path d="M95.018961,5.83591402 L87.3763003,5.83591402 C86.8404356,5.83591402 86.4363409,5.78302624 86.4670873,5.71691653 L87.0249136,4.60060672 C87.05566,4.54016355 87.4992857,4.48916463 88.0175811,4.48916463 L95.4362327,4.48916463 C95.9545281,4.48916463 96.3586228,4.54016355 96.3410535,4.60060672 L96.0379824,5.71691653 C95.9984514,5.78302624 95.5504334,5.83591402 95.018961,5.83591402 Z" id="Path" fill="#6D6E71"></path>
                    <path d="M120.516712,5.83591402 L112.657215,5.83591402 C112.106147,5.83591402 111.658968,5.78302624 111.654452,5.71691653 L111.604765,4.60060672 C111.604765,4.54016355 112.033876,4.48916463 112.566876,4.48916463 L120.196008,4.48916463 C120.729009,4.48916463 121.17167,4.54016355 121.189738,4.60060672 L121.478823,5.71691653 C121.514958,5.78302624 121.081331,5.83591402 120.516712,5.83591402 Z" id="Path" fill="#6D6E71"></path>
                    <path d="M107.883405,5.83591402 L100.004647,5.83591402 C99.4522282,5.83591402 99.0175381,5.78302624 99.0356502,5.71691653 L99.2982754,4.60060672 C99.2982754,4.54016355 99.7510776,4.48916463 100.289912,4.48916463 L107.946798,4.48916463 C108.481104,4.48916463 108.911266,4.54016355 108.911266,4.60060672 L108.888626,5.71691653 C108.87957,5.78302624 108.431296,5.83591402 107.883405,5.83591402 Z" id="Path" fill="#6D6E71"></path>
                    <path d="M133.554286,5.83591402 L125.588958,5.83591402 C125.03047,5.83591402 124.563537,5.78302624 124.540648,5.71691653 L124.174426,4.60060672 C124.174426,4.54016355 124.57727,4.48916463 125.117448,4.48916463 L132.844731,4.48916463 C133.384909,4.48916463 133.851842,4.54016355 133.883886,4.60060672 L134.497308,5.71691653 C134.53393,5.78302624 134.108197,5.83591402 133.554286,5.83591402 Z" id="Path" fill="#6D6E71"></path>
                    <path d="M145.749083,5.83591402 L138.009817,5.83591402 C137.467178,5.83591402 137.000154,5.78295196 136.960123,5.7167494 L136.297393,4.60076324 C136.26181,4.54023518 136.657669,4.48916463 137.186964,4.48916463 L144.681598,4.48916463 C145.206444,4.48916463 145.673469,4.54023518 145.722396,4.60076324 L146.611966,5.7186409 C146.683132,5.78295196 146.287273,5.83591402 145.749083,5.83591402 Z" id="Path" fill="#6D6E71"></path>
                    <path d="M158.771361,5.83591402 L150.947285,5.83591402 C150.3987,5.83591402 149.908571,5.78295196 149.854612,5.7167494 L148.869857,4.60076324 C148.815898,4.54023518 149.202605,4.48916463 149.733204,4.48916463 L157.327954,4.48916463 C157.858552,4.48916463 158.344185,4.54023518 158.411634,4.60076324 L159.630211,5.7186409 C159.702157,5.78295196 159.315449,5.83591402 158.771361,5.83591402 Z" id="Path" fill="#6D6E71"></path>
                    <path d="M171.350681,5.83591402 L163.433436,5.83591402 C162.878319,5.83591402 162.368703,5.78310592 162.291351,5.71709579 L160.994561,4.60435361 C160.921758,4.54400149 161.29942,4.49307939 161.836337,4.49307939 L169.521524,4.49307939 C169.917241,4.47598045 170.315213,4.51522423 170.649959,4.60435361 L172.197007,5.71898179 C172.27891,5.78310592 171.914898,5.83591402 171.350681,5.83591402 Z" id="Path" fill="#6D6E71"></path>
                    <path d="M56.6211885,2.24458231 L49.556912,2.24458231 C49.0388957,2.24458231 48.6859111,2.20961669 48.7684269,2.16590965 L49.3414539,1.87452941 C49.6616363,1.8126682 50.0370154,1.78604363 50.4095762,1.79877054 L57.3775841,1.79877054 C57.886432,1.79877054 58.2440009,1.83227927 58.1752376,1.87452941 L57.6847265,2.16590965 C57.6159633,2.20961669 57.1392049,2.24458231 56.6211885,2.24458231 Z" id="Path" fill="#6D6E71"></path>
                    <path d="M45.29086,2.24178804 L38.3016022,2.24178804 C37.7897511,2.24178804 37.4545567,2.20700954 37.5496794,2.1635364 L38.2200684,1.87371552 C38.5474854,1.81305185 38.9260516,1.78670178 39.3026559,1.79836209 L46.1877317,1.79836209 C46.6905234,1.79836209 47.0302476,1.83169149 46.9487138,1.87371552 L46.3598586,2.1635364 C46.0399784,2.22640793 45.6643727,2.2539026 45.29086,2.24178804 L45.29086,2.24178804 Z" id="Path" fill="#6D6E71"></path>
                    <path d="M68.0360473,2.24458231 L61.2232267,2.24458231 C60.7236493,2.24458231 60.3699662,2.20937318 60.4362818,2.16536176 L60.8783857,1.87195231 C60.9447013,1.82940794 61.3912262,1.79566585 61.8863825,1.79566585 L68.6063613,1.79566585 C69.0970966,1.79566585 69.4507797,1.82940794 69.4021483,1.87195231 L69.030781,2.16536176 C68.9954127,2.20937318 68.5533088,2.24458231 68.0360473,2.24458231 Z" id="Path" fill="#6D6E71"></path>
                    <path d="M79.3493305,2.24458231 L72.477711,2.24458231 C71.9728391,2.24458231 71.6064719,2.20937318 71.6556187,2.16536176 L72.0041144,1.87195231 C72.0532612,1.82940794 72.4955826,1.79566585 72.9959866,1.79566585 L79.7961198,1.79566585 C80.292056,1.79566585 80.6628911,1.82940794 80.6271479,1.87195231 L80.3546065,2.16536176 C80.3054596,2.20937318 79.8676061,2.24458231 79.3493305,2.24458231 Z" id="Path" fill="#6D6E71"></path>
                    <path d="M102.077251,2.24458231 L95.0127119,2.24458231 C94.4953476,2.24458231 94.097023,2.20937318 94.097023,2.16536176 L94.2435332,1.87195231 C94.2435332,1.82940794 94.7013776,1.79566585 95.2004281,1.79566585 L102.159663,1.79566585 C102.672449,1.79566585 103.075352,1.82940794 103.075352,1.87195231 L103.011254,2.16536176 C103.020411,2.20937318 102.594616,2.24458231 102.077251,2.24458231 Z" id="Path" fill="#6D6E71"></path>
                    <path d="M90.7133956,2.24458231 L83.7377321,2.24458231 C83.2262136,2.24458231 82.8323896,2.20937318 82.8776568,2.16536176 L83.1266259,1.87195231 C83.1628396,1.82940794 83.5792972,1.79566585 84.0998691,1.79566585 L90.9849983,1.79566585 C91.4874634,1.79566585 91.8903408,1.82940794 91.8496004,1.87195231 L91.682112,2.16536176 C91.6594784,2.20937318 91.2249141,2.24458231 90.7133956,2.24458231 Z" id="Path" fill="#6D6E71"></path>
                    <path d="M112.981202,2.24458231 L106.200034,2.24458231 C105.702778,2.24458231 105.319935,2.20937318 105.319935,2.16536176 L105.359539,1.87195231 C105.359539,1.82940794 105.764385,1.79566585 106.239639,1.79566585 L112.928396,1.79566585 C113.421251,1.79566585 113.808495,1.82940794 113.808495,1.87195231 L113.8481,2.16536176 C113.874503,2.20937318 113.478458,2.24458231 112.981202,2.24458231 Z" id="Path" fill="#6D6E71"></path>
                    <path d="M124.610386,2.24458231 L117.558725,2.24458231 C117.041633,2.24458231 116.616063,2.20937318 116.606911,2.16536176 L116.542846,1.87195231 C116.542846,1.82940794 116.936385,1.79566585 117.458052,1.79566585 L124.413616,1.79566585 C124.926132,1.79566585 125.351702,1.82940794 125.374582,1.87195231 L125.521015,2.16536176 C125.530167,2.20937318 125.145781,2.24458231 124.610386,2.24458231 Z" id="Path" fill="#6D6E71"></path>
                    <path d="M135.868678,2.24458231 L128.907311,2.24458231 C128.395845,2.24458231 127.961325,2.20937318 127.938694,2.16536176 L127.766697,1.87195231 C127.744065,1.82940794 128.133323,1.79566585 128.635736,1.79566585 L135.515631,1.79566585 C136.018044,1.79566585 136.45709,1.82940794 136.4933,1.87195231 L136.742244,2.16536176 C136.773927,2.20937318 136.393723,2.24458231 135.868678,2.24458231 Z" id="Path" fill="#6D6E71"></path>
                    <path d="M147.139664,2.24458231 L140.247782,2.24458231 C139.742407,2.24458231 139.299645,2.20937318 139.263866,2.16536176 L138.991053,1.87195231 C138.955274,1.82940794 139.326479,1.79566585 139.822909,1.79566585 L146.620872,1.79566585 C147.117302,1.79566585 147.560064,1.82940794 147.613732,1.87195231 L147.962575,2.16536176 C148.011771,2.20937318 147.645039,2.24458231 147.139664,2.24458231 Z" id="Path" fill="#6D6E71"></path>
                    <path d="M158.409309,2.24458231 L151.58737,2.24458231 C151.087772,2.24458231 150.641229,2.20937318 150.588175,2.16536176 L150.216793,1.87195231 C150.163738,1.82940794 150.521857,1.79566585 151.012612,1.79566585 L157.732863,1.79566585 C158.223618,1.79566585 158.674582,1.82940794 158.736479,1.87195231 L159.178601,2.16536176 C159.258183,2.20937318 158.908907,2.24458231 158.409309,2.24458231 Z" id="Path" fill="#6D6E71"></path>
                    <path d="M170.061286,2.24458231 L162.99701,2.24458231 C162.478994,2.24458231 162.002235,2.20961669 161.928888,2.16590965 L161.442961,1.87452941 C161.374198,1.83227927 161.731766,1.79877054 162.240614,1.79877054 L169.208622,1.79877054 C169.581183,1.78604363 169.956562,1.8126682 170.276744,1.87452941 L170.849771,2.16590965 C170.932287,2.20961669 170.579303,2.24458231 170.061286,2.24458231 Z" id="Path" fill="#6D6E71"></path>
                    <path d="M181.316088,2.24170389 L174.332668,2.24170389 C173.956308,2.25403035 173.577692,2.2265483 173.254813,2.16346701 L172.670597,1.87370079 C172.584549,1.83168469 172.928739,1.79836158 173.431436,1.79836158 L180.315222,1.79836158 C180.691755,1.78670347 181.070251,1.81304857 181.397606,1.87370079 L182.06787,2.16346701 C182.162975,2.20693195 181.845958,2.24170389 181.316088,2.24170389 Z" id="Path" fill="#6D6E71"></path>
                    <path d="M179.141965,4.49216438 L173.905267,4.49216438 C173.369799,4.49216438 173.020383,4.55058827 173.124754,4.6240893 L174.681242,5.69645052 C174.794689,5.77372084 175.330157,5.83591402 175.883777,5.83591402 L186.679361,5.83591402 C187.232981,5.83591402 187.586934,5.77372084 187.437185,5.69645052 L185.581197,4.6240893 C185.231502,4.52310142 184.807433,4.47640246 184.3832,4.49216438 L179.141965,4.49216438 Z" id="Path" fill="#6D6E71"></path>
                    <path d="M43.3714559,2.24761752 L37.7451052,2.24761752 C37.3383781,2.23177662 36.9317001,2.2782702 36.5925006,2.37938937 L34.8658715,3.44775496 C34.7428663,3.52479081 35.0708802,3.58763584 35.6039029,3.58763584 L44.3008288,3.58763584 C44.7120759,3.60589061 45.1240236,3.55609319 45.4579892,3.44775496 L46.9431635,2.37938937 C47.04339,2.30640804 46.7062645,2.24761752 46.1869091,2.24761752 L43.3714559,2.24761752 Z" id="Path" fill="#6D6E71"></path>
                    <path d="M68.7502453,3.5913317 L61.2603838,3.5913317 C60.7368989,3.5913317 60.3655378,3.5383582 60.4371255,3.47316005 L61.6004253,2.35664164 C61.6675388,2.29551837 62.1328587,2.24458231 62.6384468,2.24458231 L69.9180194,2.24458231 C70.4280816,2.24458231 70.8128654,2.29551837 70.745752,2.35664164 L69.8016894,3.47316005 C69.7435244,3.5383582 69.2737302,3.5913317 68.7502453,3.5913317 Z" id="Path" fill="#6D6E71"></path>
                    <path d="M56.730913,3.5913317 L49.1316729,3.5913317 C48.6005433,3.5913317 48.223759,3.53852457 48.3236295,3.47353118 L49.7989897,2.36051929 C50.1210334,2.27023027 50.5014742,2.23089543 50.8794074,2.2488119 L58.2652876,2.2488119 C58.778259,2.2488119 59.1414246,2.29958798 59.073331,2.36051929 L57.8249493,3.47353118 C57.7523162,3.53852457 57.2620426,3.5913317 56.730913,3.5913317 Z" id="Path" fill="#6D6E71"></path>
                    <path d="M80.7632507,3.5913317 L73.3963276,3.5913317 C72.8814351,3.5913317 72.5161695,3.5383582 72.5513758,3.47316005 L73.4315339,2.35664164 C73.4799426,2.29551837 73.9244224,2.24458231 74.4261125,2.24458231 L81.5817977,2.24458231 C82.0834878,2.24458231 82.4619557,2.29551837 82.4223486,2.35664164 L81.7754324,3.47316005 C81.7270237,3.5383582 81.2781431,3.5913317 80.7632507,3.5913317 Z" id="Path" fill="#6D6E71"></path>
                    <path d="M93.1637303,3.5913317 L85.5774416,3.5913317 C85.0472171,3.5913317 84.643884,3.5383582 84.671075,3.47316005 L85.2738088,2.35664164 C85.3055316,2.29551837 85.7496513,2.24458231 86.2662803,2.24458231 L93.6395728,2.24458231 C94.15167,2.24458231 94.5459395,2.29551837 94.5459395,2.35664164 L94.1697973,3.47316005 C94.1426063,3.5383582 93.6939548,3.5913317 93.1637303,3.5913317 Z" id="Path" fill="#6D6E71"></path>
                    <path d="M117.436421,3.5913317 L109.868033,3.5913317 C109.340006,3.5913317 108.911266,3.5383582 108.911266,3.47316005 L108.911266,2.35664164 C108.911266,2.29551837 109.33098,2.24458231 109.840955,2.24458231 L117.183691,2.24458231 C117.698178,2.24458231 118.122405,2.29551837 118.131431,2.35664164 L118.334519,3.47316005 C118.384162,3.5383582 117.964449,3.5913317 117.436421,3.5913317 Z" id="Path" fill="#6D6E71"></path>
                    <path d="M105.171255,3.5913317 L97.6864218,3.5913317 C97.1636006,3.5913317 96.7569619,3.5383582 96.7927104,3.47316005 L97.0965723,2.35664164 C97.0965723,2.29551837 97.543428,2.24458231 98.048375,2.24458231 L105.323186,2.24458231 C105.828133,2.24458231 106.239241,2.29551837 106.216898,2.35664164 L106.127527,3.47316005 C106.11859,3.5383582 105.694077,3.5913317 105.171255,3.5913317 Z" id="Path" fill="#6D6E71"></path>
                    <path d="M129.533197,3.5913317 L121.853816,3.5913317 C121.317085,3.5913317 120.867516,3.5383582 120.853753,3.47316005 L120.583094,2.35664164 C120.583094,2.29551837 120.977614,2.24458231 121.500583,2.24458231 L128.959767,2.24458231 C129.482735,2.24458231 129.927717,2.29551837 129.955242,2.35664164 L130.455273,3.47316005 C130.505735,3.5383582 130.069928,3.5913317 129.533197,3.5913317 Z" id="Path" fill="#6D6E71"></path>
                    <path d="M141.710964,3.5913317 L134.258802,3.5913317 C133.737952,3.5913317 133.288329,3.5383582 133.257167,3.47316005 L132.705155,2.35664164 C132.678445,2.29551837 133.061292,2.24458231 133.568787,2.24458231 L140.820622,2.24458231 C141.323665,2.24458231 141.768836,2.29551837 141.813353,2.35664164 L142.579047,3.47316005 C142.601305,3.5383582 142.231814,3.5913317 141.710964,3.5913317 Z" id="Path" fill="#6D6E71"></path>
                    <path d="M153.847876,3.5913317 L146.274842,3.5913317 C145.745544,3.5913317 145.275057,3.5383582 145.225294,3.47316005 L144.379322,2.35664164 C144.334083,2.29551837 144.714092,2.24458231 145.225294,2.24458231 L152.585704,2.24458231 C153.096906,2.24458231 153.56287,2.29551837 153.621681,2.35664164 L154.693848,3.47316005 C154.757183,3.5383582 154.377174,3.5913317 153.847876,3.5913317 Z" id="Path" fill="#6D6E71"></path>
                    <path d="M166.02293,3.5913317 L158.654479,3.5913317 C158.139788,3.5913317 157.673486,3.53853257 157.607499,3.47354902 L156.503332,2.36070569 C156.441745,2.29978361 156.79807,2.24901521 157.299564,2.24901521 L164.45246,2.24901521 C164.815976,2.23058212 165.182232,2.26998495 165.490642,2.36070569 L166.810365,3.47354902 C166.889548,3.53853257 166.537622,3.5913317 166.02293,3.5913317 Z" id="Path" fill="#6D6E71"></path>
                    <path d="M173.857736,2.2476171 L168.931253,2.2476171 C168.4262,2.2476171 168.093928,2.30639949 168.182534,2.37937074 L169.511621,3.44758865 C169.832544,3.55635069 170.230795,3.60624171 170.628054,3.5874502 L183.582224,3.5874502 C184.100568,3.5874502 184.423979,3.52461385 184.304362,3.44758865 L182.625281,2.37937074 C182.295423,2.27826554 181.899944,2.23177839 181.504418,2.2476171 L173.857736,2.2476171 Z" id="Path" fill="#6D6E71"></path>
                    <path d="M141.594322,9.87616219 L78.0276929,9.87616219 C77.4335702,9.87616219 76.992479,9.80536532 77.0419893,9.71955095 L77.9151696,8.22852613 C77.9646799,8.14700248 78.468784,8.08049633 79.044903,8.08049633 L140.577112,8.08049633 C141.153231,8.08049633 141.657335,8.14700248 141.706845,8.22852613 L142.575525,9.71955095 C142.629536,9.80536532 142.188445,9.87616219 141.594322,9.87616219 Z" id="Path" fill="#6D6E71"></path>
                </g>
                <rect id="Rectangle" fill="#FFFFFF" x="31.0871083" y="0.543811441" width="157.376644" height="101.455121" rx="6"></rect>
                <path d="M64.5501147,-27.5 L155.005235,-27.5 C158.042801,-27.5 160.505235,-25.0375661 160.505235,-22 L160.505235,123.501257 C160.505235,126.538823 158.042801,129.001257 155.005235,129.001257 L64.5501147,129.001257 C61.5125486,129.001257 59.0501147,126.538823 59.0501147,123.501257 L59.0501147,-22 C59.0501147,-25.0375661 61.5125486,-27.5 64.5501147,-27.5 Z" id="Rectangle" fill="#6D6E71" transform="translate(109.777675, 50.750629) rotate(90.000000) translate(-109.777675, -50.750629) "></path>
                <rect id="Rectangle" fill="#F4F6F9" x="38.0408243" y="7.53344077" width="143.464723" height="85.7430444"></rect>
                <g id="Asset-1" transform="translate(189.094716, 61.776298)">
                    <path d="M4.30734504,1.28819967 L3.00556586,5.25046382 L27.2912801,5.25046382 L26.0010895,1.28819967 C26.0010895,1.28819967 14.5477504,0.560436868 4.30734504,1.28819967 Z" id="Path" fill="#F7F0E9"></path>
                    <path d="M25.9723487,2.39332096 L27.2912801,5.25046382 L3.00556586,4.05836794 C3.00556586,4.05836794 24.775833,4.75159761 25.9723487,2.39332096 Z" id="Path" fill="#D8CEB5" style="mix-blend-mode: multiply;"></path>
                    <polygon id="Path" fill="#321F14" points="27.2912801 15.4990061 26.887753 15.0019215 1.96899221 15.0019215 1.57699443 15.4990061"></polygon>
                    <path d="M23.4127615,43.1646721 L28.7198516,6.67903525 L0.148423006,6.67903525 L5.45551307,43.1646721 C5.45551307,43.1646721 16.3485943,44.6434178 23.4127615,43.1646721 Z" id="Path" fill="#F7F0E9"></path>
                    <path d="M23.5394046,43.8165535 L28.7198516,6.67903525 L0.148423006,6.67903525 L0.661729489,7.24730993 C0.661729489,7.24730993 23.7131391,7.50840911 25.5373514,8.57584398 C28.2302362,10.180836 22.5562253,44.311874 23.5394046,43.8165535 Z" id="Path" fill="#D8CEB5" style="mix-blend-mode: multiply;"></path>
                    <rect id="Rectangle" fill="#FFFFFF" x="0.148423006" y="3.82189239" width="28.5714286" height="2.85714286"></rect>
                    <polygon id="Path" fill="#5F4337" points="25.3159188 30.9647495 3.54851268 30.9647495 1.57699443 16.6790353 27.2912801 16.6790353"></polygon>
                    <path d="M17.4514225,24.8127312 C18.8598901,22.2091517 19.637241,19.0136677 16.8126093,17.1619668 C16.8126093,17.1619668 14.1188188,15.3542587 11.1787389,18.7337129 C8.88901704,21.3652879 7.80765258,24.4127958 9.66251973,26.7724147 C11.9022141,29.6119562 16.0391066,27.4283088 17.4514225,24.8127312 Z M13.0489992,24.4127958 C11.151801,25.7645775 10.6900084,27.3123275 10.6900084,27.3123275 C10.4321742,25.4366304 11.194132,24.4047971 13.8340467,22.2731413 C16.4739614,20.1414856 16.6009543,17.5179093 16.6009543,17.5179093 C18.0094219,21.0373409 14.9461973,23.0570147 13.0489992,24.4127958 Z" id="Shape" fill="#E58E1A"></path>
                    <path d="M3.00556586,8.10760668 C3.00556586,8.10760668 4.89914209,8.25745683 7.96036657,8.27282608 L10.148423,43.8218924 C9.15911797,43.7728099 8.17340322,43.6560429 7.19677255,43.472242 L3.00556586,8.10760668 Z" id="Path" fill="#FFFFFF" style="mix-blend-mode: soft-light;"></path>
                </g>
                <g id="GUS-github-logo" transform="translate(72.219716, 15.008904)">
                    <g id="Untitled-2">
                        <path d="M51.2127423,8.03167709 L51.2127423,6.54925436 C51.1937176,5.89372975 51.5325695,5.27969161 52.0973117,4.94631406 C52.662054,4.61293643 53.3633838,4.61293643 53.9281259,4.94631406 C54.4928682,5.27969161 54.8317201,5.89372975 54.8126953,6.54925436 L54.8126953,12.1424445 C54.8126957,13.1363711 54.0074029,13.9423423 53.0134768,13.9431789 L47.4233181,13.9431789 C46.4288,13.9431789 45.6225838,13.1369626 45.6225838,12.1424445 C45.6225838,11.1479264 46.4288,10.3417101 47.4233181,10.3417101 L48.3888634,10.3417101 C37.8269801,1.16220882 21.755274,1.5926874 11.7072367,11.6376932 C4.26256821,19.1000399 1.84537228,30.2145233 5.51834905,40.0947535 C5.84738695,41.0215385 5.37200102,42.0408965 4.45051255,42.3844883 C3.52902415,42.7280802 2.50230625,42.2688057 2.14424572,41.3528423 C-2.78369764,28.1679955 1.94353032,13.3229603 13.5880933,5.41543439 C25.2326564,-2.49209151 40.7746575,-1.41137322 51.2127423,8.03167709 Z" id="Shape" fill="#159ED9"></path>
                        <path d="M37.8425749,56.6284443 C37.9811011,57.8452439 38.2398001,59.025569 38.6065126,60.1572603 C36.0704685,60.8338964 33.4304359,61.1876524 30.7453041,61.1882046 C23.3150516,61.2085808 16.1364848,58.4972652 10.5749568,53.5699461 L10.5749568,54.7825619 C10.5749568,55.77708 9.76874049,56.5832963 8.77422238,56.5832963 C7.7797042,56.5832963 6.97348793,55.77708 6.97348793,54.7825619 L6.97348793,49.1878559 C6.97348793,48.1933378 7.7797042,47.3871215 8.77422238,47.3871215 L14.364381,47.3871215 C14.8419655,47.3871215 15.2999893,47.5768412 15.6376925,47.9145445 C15.9753957,48.2522476 16.1651154,48.7102715 16.1651154,49.1878559 C16.1651154,50.182374 15.3588991,50.9885903 14.364381,50.9885903 L13.0926502,50.9885903 C20.0498373,57.0411833 29.4003396,58.9214234 37.8425749,56.6284443 Z M57.0706416,36.4149587 C58.0973889,31.707149 57.845433,26.7142056 56.2026562,21.9206748 C55.9941662,21.3119925 56.1262417,20.6383187 56.5491311,20.1534199 C56.9720206,19.6685211 57.6214769,19.4460649 58.2528563,19.5698485 C58.8842357,19.6936321 59.4016165,20.1448498 59.6101064,20.7535322 C61.4284932,26.0510335 61.729712,31.6621803 60.600422,36.9920996 C59.4638615,36.6884518 58.2834207,36.492224 57.0706416,36.4149587 Z" id="Combined-Shape" fill="#159ED9"></path>
                        <g id="Group" transform="translate(37.725045, 36.377707)" fill="#061C3F">
                            <g id="Group-23" transform="translate(5.208185, 5.497696)">
                                <g id="github">
                                    <path d="M13.03399,0.017086529 C5.83669859,0.017086529 0,5.99332077 0,13.3655608 C0,19.2620233 3.73470496,24.2643773 8.91636367,26.0309894 C9.56814461,26.1539708 9.80604471,25.7418168 9.80604471,25.3878295 C9.80604471,25.0704044 9.79463851,24.231139 9.78812069,23.1176583 C6.16258907,23.9236854 5.39674643,21.3277794 5.39674643,21.3277794 C4.8052552,19.7855255 3.94979268,19.3750333 3.94979268,19.3750333 C2.76518076,18.5474013 4.03778311,18.5640204 4.03778311,18.5640204 C5.34623341,18.6587494 6.03386233,19.9400833 6.03386233,19.9400833 C7.19729136,21.9792488 9.08582675,21.3909321 9.82885702,21.0485783 C9.94617757,20.1860462 10.2834743,19.5977294 10.6566189,19.2636852 C7.76271132,18.9263171 4.71889422,17.78126 4.71889422,12.6675579 C4.71889422,11.2100614 5.22728337,10.0184707 6.06156302,9.08447643 C5.92631847,8.74710835 5.4798485,7.38932655 6.18866031,5.55291419 C6.18866031,5.55291419 7.28365234,5.19394127 9.77345565,6.92066747 C10.8130463,6.62484719 11.9275918,6.47693706 13.0372489,6.47195132 C14.1436471,6.47859897 15.2598219,6.62484719 16.301042,6.92232938 C18.7892159,5.19560319 19.8825785,5.5545761 19.8825785,5.5545761 C20.5930198,7.39265038 20.1465498,8.74877029 20.0129347,9.08613831 C20.8488437,10.0201327 21.3523446,11.2117233 21.3523446,12.6692198 C21.3523446,17.7962172 18.3052685,18.9246552 15.4015843,19.2553756 C15.8692372,19.6675297 16.286377,20.4818665 16.286377,21.7266382 C16.286377,23.5115313 16.2700824,24.9507468 16.2700824,25.3878295 C16.2700824,25.7451406 16.5047236,26.1606185 17.1662813,26.0293275 C22.3397927,24.2610535 26.0712388,19.2603614 26.0712388,13.3655608 C26.0712388,5.99332077 20.2345402,0.017086529 13.03399,0.017086529 Z" id="Shape"></path>
                                </g>
                            </g>
                        </g>
                        <path d="M12.692487,31.2638793 C12.692487,29.9421281 12.9451153,28.780038 13.4503719,27.7776089 C13.9359825,26.7989336 14.7029172,25.9876613 15.6527852,25.4478709 C16.6188358,24.8951202 17.7733471,24.6187449 19.116319,24.6187449 C19.9680848,24.6138178 20.8140995,24.7584971 21.6158232,25.0461919 C22.3412843,25.2959103 23.0048965,25.6980056 23.5620715,26.2254608 L22.2403204,27.724557 C21.3902799,27.012586 20.3175922,26.6210549 19.2087809,26.6180451 C17.8162938,26.6180451 16.7810232,27.0374081 16.1029688,27.876134 C15.4249146,28.7148599 15.0853821,29.8425925 15.0843716,31.2593319 C15.0843716,34.4121329 16.4485643,35.9885334 19.1769498,35.9885334 C20.0482363,35.9902285 20.9106752,35.8138205 21.7113167,35.4701402 L21.7113167,32.6508085 L19.1178348,32.6508085 L19.1178348,30.8697791 L23.8667412,30.8697791 L23.8667412,36.741871 C22.4207603,37.5441389 20.7910784,37.9567827 19.1375398,37.939329 C17.7450527,37.939329 16.5667944,37.6594168 15.6027649,37.0995926 C14.6561191,36.559175 13.8963955,35.7434104 13.4246038,34.7607599 C12.9365259,33.7613624 12.692487,32.5957355 12.692487,31.2638793 Z" id="Shape" fill="#081D3E"></path>
                        <path d="M26.4374866,33.0297509 L26.4374718,24.9613088 L28.7748035,24.9613088 L28.7748035,32.8433113 C28.7748035,33.8679716 29.00419,34.6354563 29.4629629,35.1457654 C29.9217359,35.6560746 30.6796207,35.9122396 31.7366175,35.9142607 C32.7956353,35.9142607 33.5535201,35.6580956 34.010272,35.1457654 C34.467024,34.6334353 34.6959052,33.8659506 34.6969157,32.8433113 L34.6969157,24.9613088 L37.0357483,24.9613088 L37.0357483,33.0297509 C37.0357483,34.5778571 36.5714176,35.782894 35.642756,36.6448617 C34.7140944,37.5068294 33.4110378,37.9383185 31.733586,37.939329 C30.0551237,37.939329 28.752067,37.5078399 27.8244159,36.6448617 C26.8967649,35.7818834 26.4344551,34.5768466 26.4374866,33.0297509 Z" id="Shape" fill="#081D3E"></path>
                        <path d="M38.7879781,36.4569062 L39.9126792,34.9759992 C40.3701293,35.3168277 40.8828875,35.5762833 41.428449,35.7429787 C41.9820736,35.9026481 42.5560144,35.9807735 43.1321741,35.9748915 C43.8698487,35.9748915 44.4620094,35.8202829 44.9086562,35.511066 C45.355303,35.2018489 45.5786264,34.7380234 45.5786264,34.1195894 C45.5991252,33.7330899 45.4856225,33.3513567 45.2572832,33.0388456 C45.0106076,32.7479856 44.6947304,32.5238483 44.3387268,32.3870646 C43.7992897,32.1755581 43.2475525,31.9968762 42.6865378,31.8519979 C41.5456685,31.5549071 40.680164,31.1173549 40.0900243,30.5393414 C39.4998847,29.9613278 39.2053201,29.1852538 39.2063306,28.2111191 C39.1871008,27.521294 39.3941883,26.8441339 39.795965,26.28306 C40.2033579,25.7367786 40.7565726,25.3164826 41.3920704,25.0704443 C42.1162555,24.7877587 42.8884061,24.6482568 43.665725,24.6596707 C45.1279435,24.6324435 46.5610253,25.0703297 47.7583032,25.9101807 L46.6972644,27.4259504 C46.2410225,27.1364645 45.7487345,26.908157 45.2330309,26.7468856 C44.7409001,26.6021085 44.2302366,26.530105 43.7172612,26.533162 C43.0503225,26.533162 42.5198032,26.6604867 42.11964,26.9166517 C41.7266406,27.1634398 41.4981008,27.6036978 41.5224266,28.067121 C41.4980085,28.5430508 41.7290668,28.995925 42.1287345,29.2554844 C42.5329398,29.5222599 43.2054363,29.7809512 44.146224,30.0315585 C45.3851131,30.3529016 46.3314587,30.8136956 46.9852607,31.4139405 C47.6390626,32.0141852 47.9659637,32.8862581 47.9659637,34.030159 C47.9915794,34.8031405 47.7660946,35.5636201 47.3232773,36.1977096 C46.8839966,36.7959219 46.2790311,37.2522809 45.5831737,37.5103662 C44.8050733,37.8039743 43.9789226,37.9494631 43.1473318,37.939329 C42.3397378,37.9449951 41.5368969,37.8153724 40.7721207,37.5558393 C40.0513142,37.3089406 39.3796608,36.9369401 38.7879781,36.4569062 Z" id="Shape" fill="#081D3E"></path>
                    </g>
                </g>
            </g>
        </g>
    </g>
</svg>