<?xml version="1.0" encoding="UTF-8"?>
<svg width="1140px" height="622px" viewBox="0 0 1140 622" version="1.1" xmlns="http://www.w3.org/2000/svg" xmlns:xlink="http://www.w3.org/1999/xlink">
    <!-- Generator: Sketch 53 (72520) - https://sketchapp.com -->
    <title>background</title>
    <desc>Created with Sketch.</desc>
    <g id="home" stroke="none" stroke-width="1" fill="none" fill-rule="evenodd">
        <g id="home-scrolling" transform="translate(-40.000000, -72.000000)" fill-rule="nonzero">
            <g id="background" transform="translate(40.000000, 72.000000)">
                <g id="Group-5" transform="translate(0.000000, 22.000000)" fill="#F4F6F9">
                    <path d="M9.81577428,233 C4.39556238,233 0,237.500645 0,243.052609 C0,247.493179 2.8125709,251.260405 6.71482896,252.590824 C7.205679,252.68344 7.38483931,252.37305 7.38483931,252.106466 C7.38483931,251.867416 7.37624941,251.235373 7.3713409,250.396822 C4.64098741,251.003833 4.06423858,249.048881 4.06423858,249.048881 C3.61879214,247.887424 2.97455142,247.578286 2.97455142,247.578286 C2.08243142,246.955004 3.04081618,246.96752 3.04081618,246.96752 C4.0261977,247.03886 4.54404452,248.00382 4.54404452,248.00382 C5.42021189,249.539496 6.84244999,249.09644 7.40201904,248.838617 C7.49037204,248.189052 7.74438699,247.745997 8.02539864,247.494431 C5.8460243,247.240362 3.5537545,246.378031 3.5537545,242.52695 C3.5537545,241.429323 3.93661756,240.531948 4.56490564,239.828565 C4.46305426,239.574497 4.12682196,238.551964 4.66062141,237.168979 C4.66062141,237.168979 5.48524953,236.89864 7.3602968,238.199021 C8.14320266,237.976242 8.98255629,237.864852 9.81822854,237.861097 C10.6514465,237.866104 11.4920272,237.976242 12.2761602,238.200273 C14.1499804,236.899892 14.9733814,237.170231 14.9733814,237.170231 C15.508408,238.554467 15.1721757,239.575748 15.0715514,239.829817 C15.7010666,240.533199 16.0802483,241.430575 16.0802483,242.528202 C16.0802483,246.389295 13.7855242,247.239111 11.5987872,247.488173 C11.9509721,247.798562 12.2651161,248.411832 12.2651161,249.349258 C12.2651161,250.693444 12.2528448,251.777303 12.2528448,252.106466 C12.2528448,252.375554 12.4295509,252.688446 12.9277637,252.589572 C16.8238861,251.257902 19.6340028,247.491928 19.6340028,243.052609 C19.6340028,237.500645 15.2384404,233 9.81577428,233 Z" id="Shape"></path>
                    <path d="M63.8157743,481 C58.3955624,481 54,485.500645 54,491.052609 C54,495.493179 56.8125709,499.260405 60.714829,500.590824 C61.205679,500.68344 61.3848393,500.37305 61.3848393,500.106466 C61.3848393,499.867416 61.3762494,499.235373 61.3713409,498.396822 C58.6409874,499.003833 58.0642386,497.048881 58.0642386,497.048881 C57.6187921,495.887424 56.9745514,495.578286 56.9745514,495.578286 C56.0824314,494.955004 57.0408162,494.96752 57.0408162,494.96752 C58.0261977,495.03886 58.5440445,496.00382 58.5440445,496.00382 C59.4202119,497.539496 60.84245,497.09644 61.402019,496.838617 C61.490372,496.189052 61.744387,495.745997 62.0253986,495.494431 C59.8460243,495.240362 57.5537545,494.378031 57.5537545,490.52695 C57.5537545,489.429323 57.9366176,488.531948 58.5649056,487.828565 C58.4630543,487.574497 58.126822,486.551964 58.6606214,485.168979 C58.6606214,485.168979 59.4852495,484.89864 61.3602968,486.199021 C62.1432027,485.976242 62.9825563,485.864852 63.8182285,485.861097 C64.6514465,485.866104 65.4920272,485.976242 66.2761602,486.200273 C68.1499804,484.899892 68.9733814,485.170231 68.9733814,485.170231 C69.508408,486.554467 69.1721757,487.575748 69.0715514,487.829817 C69.7010666,488.533199 70.0802483,489.430575 70.0802483,490.528202 C70.0802483,494.389295 67.7855242,495.239111 65.5987872,495.488173 C65.9509721,495.798562 66.2651161,496.411832 66.2651161,497.349258 C66.2651161,498.693444 66.2528448,499.777303 66.2528448,500.106466 C66.2528448,500.375554 66.4295509,500.688446 66.9277637,500.589572 C70.8238861,499.257902 73.6340028,495.491928 73.6340028,491.052609 C73.6340028,485.500645 69.2384404,481 63.8157743,481 Z" id="Shape"></path>
                    <path d="M929.815774,346.516944 C924.395562,346.516944 920,351.017589 920,356.569554 C920,361.010124 922.812571,364.777349 926.714829,366.107768 C927.205679,366.200384 927.384839,365.889995 927.384839,365.62341 C927.384839,365.38436 927.376249,364.752318 927.371341,363.913766 C924.640987,364.520777 924.064239,362.565825 924.064239,362.565825 C923.618792,361.404368 922.974551,361.09523 922.974551,361.09523 C922.082431,360.471948 923.040816,360.484464 923.040816,360.484464 C924.026198,360.555804 924.544045,361.520764 924.544045,361.520764 C925.420212,363.05644 926.84245,362.613385 927.402019,362.355561 C927.490372,361.705996 927.744387,361.262941 928.025399,361.011375 C925.846024,360.757306 923.553755,359.894975 923.553755,356.043894 C923.553755,354.946267 923.936618,354.048892 924.564906,353.345509 C924.463054,353.091441 924.126822,352.068908 924.660621,350.685923 C924.660621,350.685923 925.48525,350.415584 927.360297,351.715965 C928.143203,351.493186 928.982556,351.381796 929.818229,351.378042 C930.651447,351.383048 931.492027,351.493186 932.27616,351.717217 C934.14998,350.416836 934.973381,350.687175 934.973381,350.687175 C935.508408,352.071411 935.172176,353.092692 935.071551,353.346761 C935.701067,354.050143 936.080248,354.947519 936.080248,356.045146 C936.080248,359.906239 933.785524,360.756055 931.598787,361.005117 C931.950972,361.315507 932.265116,361.928776 932.265116,362.866202 C932.265116,364.210388 932.252845,365.294247 932.252845,365.62341 C932.252845,365.892498 932.429551,366.20539 932.927764,366.106516 C936.823886,364.774846 939.634003,361.008872 939.634003,356.569554 C939.634003,351.017589 935.23844,346.516944 929.815774,346.516944 Z" id="Shape"></path>
                    <path d="M1129.81577,157.516944 C1124.39556,157.516944 1120,162.017589 1120,167.569554 C1120,172.010124 1122.81257,175.777349 1126.71483,177.107768 C1127.20568,177.200384 1127.38484,176.889995 1127.38484,176.62341 C1127.38484,176.38436 1127.37625,175.752318 1127.37134,174.913766 C1124.64099,175.520777 1124.06424,173.565825 1124.06424,173.565825 C1123.61879,172.404368 1122.97455,172.09523 1122.97455,172.09523 C1122.08243,171.471948 1123.04082,171.484464 1123.04082,171.484464 C1124.0262,171.555804 1124.54404,172.520764 1124.54404,172.520764 C1125.42021,174.05644 1126.84245,173.613385 1127.40202,173.355561 C1127.49037,172.705996 1127.74439,172.262941 1128.0254,172.011375 C1125.84602,171.757306 1123.55375,170.894975 1123.55375,167.043894 C1123.55375,165.946267 1123.93662,165.048892 1124.56491,164.345509 C1124.46305,164.091441 1124.12682,163.068908 1124.66062,161.685923 C1124.66062,161.685923 1125.48525,161.415584 1127.3603,162.715965 C1128.1432,162.493186 1128.98256,162.381796 1129.81823,162.378042 C1130.65145,162.383048 1131.49203,162.493186 1132.27616,162.717217 C1134.14998,161.416836 1134.97338,161.687175 1134.97338,161.687175 C1135.50841,163.071411 1135.17218,164.092692 1135.07155,164.346761 C1135.70107,165.050143 1136.08025,165.947519 1136.08025,167.045146 C1136.08025,170.906239 1133.78552,171.756055 1131.59879,172.005117 C1131.95097,172.315507 1132.26512,172.928776 1132.26512,173.866202 C1132.26512,175.210388 1132.25284,176.294247 1132.25284,176.62341 C1132.25284,176.892498 1132.42955,177.20539 1132.92776,177.106516 C1136.82389,175.774846 1139.634,172.008872 1139.634,167.569554 C1139.634,162.017589 1135.23844,157.516944 1129.81577,157.516944 Z" id="Shape"></path>
                    <path d="M252.096484,578.795058 C246.405262,578.795058 241.789921,583.520736 241.789921,589.350298 C241.789921,594.012897 244.743121,597.968483 248.840492,599.365423 C249.355884,599.46267 249.544003,599.136761 249.544003,598.856847 C249.544003,598.605845 249.534983,597.9422 249.529829,597.061721 C246.662958,597.699083 246.057372,595.646383 246.057372,595.646383 C245.589653,594.426853 244.9132,594.102259 244.9132,594.102259 C243.976474,593.447813 244.982778,593.460954 244.982778,593.460954 C246.017429,593.535861 246.561168,594.549069 246.561168,594.549069 C247.481144,596.161529 248.974494,595.696321 249.562041,595.425606 C249.654812,594.743563 249.921528,594.278354 250.21659,594.014211 C247.928247,593.747439 245.521364,592.84199 245.521364,588.798356 C245.521364,587.645848 245.92337,586.703603 246.583072,585.965052 C246.476128,585.69828 246.123084,584.62462 246.683574,583.172486 C246.683574,583.172486 247.549433,582.88863 249.518233,584.254031 C250.340284,584.020112 251.221605,583.903153 252.099061,583.89921 C252.97394,583.904467 253.85655,584.020112 254.67989,584.255345 C256.647401,582.889945 257.511972,583.173801 257.511972,583.173801 C258.07375,584.627249 257.720706,585.699594 257.61505,585.966366 C258.276041,586.704917 258.674182,587.647162 258.674182,588.79967 C258.674182,592.853818 256.264722,593.746124 253.968648,594.00764 C254.338442,594.333549 254.668293,594.977481 254.668293,595.961779 C254.668293,597.373174 254.655408,598.511226 254.655408,598.856847 C254.655408,599.139389 254.84095,599.467926 255.364073,599.364109 C259.455002,597.965855 262.405624,594.011582 262.405624,589.350298 C262.405624,583.520736 257.790284,578.795058 252.096484,578.795058 Z" id="Shape" transform="translate(252.097773, 589.089393) rotate(-19.000000) translate(-252.097773, -589.089393) "></path>
                    <path d="M997.954748,3.14532271 C992.534536,3.14532271 988.138974,7.64596807 988.138974,13.1979322 C988.138974,17.6385021 990.951545,21.4057275 994.853803,22.7361464 C995.344653,22.8287625 995.523813,22.5183732 995.523813,22.2517888 C995.523813,22.0127389 995.515224,21.3806961 995.510315,20.5421443 C992.779962,21.1491557 992.203213,19.1942035 992.203213,19.1942035 C991.757766,18.0327467 991.113526,17.7236089 991.113526,17.7236089 C990.221406,17.1003271 991.17979,17.1128428 991.17979,17.1128428 C992.165172,17.1841823 992.683019,18.1491427 992.683019,18.1491427 C993.559186,19.6848189 994.981424,19.2417632 995.540993,18.9839398 C995.629346,18.334375 995.883361,17.8913192 996.164373,17.6397537 C993.984998,17.385685 991.692729,16.5233533 991.692729,12.6722728 C991.692729,11.574646 992.075592,10.6772703 992.70388,9.97388809 C992.602028,9.71981938 992.265796,8.69728679 992.799596,7.31430205 C992.799596,7.31430205 993.624224,7.04396295 995.499271,8.34434407 C996.282177,8.12156463 997.12153,8.01017491 997.957203,8.0064202 C998.790421,8.01142648 999.631001,8.12156463 1000.41513,8.34559564 C1002.28895,7.04521452 1003.11236,7.31555361 1003.11236,7.31555361 C1003.64738,8.69978993 1003.31115,9.72107098 1003.21053,9.97513963 C1003.84004,10.6785219 1004.21922,11.5758976 1004.21922,12.6735244 C1004.21922,16.5346175 1001.9245,17.3844335 999.737761,17.6334958 C1000.08995,17.9438852 1000.40409,18.5571545 1000.40409,19.4945803 C1000.40409,20.8387664 1000.39182,21.9226259 1000.39182,22.2517888 C1000.39182,22.5208763 1000.56852,22.8337688 1001.06674,22.7348948 C1004.96286,21.4032244 1007.77298,17.6372506 1007.77298,13.1979322 C1007.77298,7.64596807 1003.37741,3.14532271 997.954748,3.14532271 Z" id="Shape" transform="translate(997.955975, 12.949452) rotate(24.000000) translate(-997.955975, -12.949452) "></path>
                    <path d="M927.99925,524 C924.6865,524 922,526.754337 922,530.152067 C922,532.869638 923.719,535.175131 926.104,535.989331 C926.404,536.04601 926.5135,535.856056 926.5135,535.69291 C926.5135,535.546615 926.50825,535.159813 926.50525,534.64663 C924.8365,535.018113 924.484,533.821707 924.484,533.821707 C924.21175,533.110911 923.818,532.921722 923.818,532.921722 C923.27275,532.540282 923.8585,532.547942 923.8585,532.547942 C924.46075,532.5916 924.77725,533.182144 924.77725,533.182144 C925.31275,534.121958 926.182,533.850813 926.524,533.693029 C926.578,533.295503 926.73325,533.024359 926.905,532.870404 C925.573,532.714917 924.172,532.187182 924.172,529.83037 C924.172,529.158637 924.406,528.609454 924.79,528.178994 C924.72775,528.023507 924.52225,527.39773 924.8485,526.551361 C924.8485,526.551361 925.3525,526.385917 926.4985,527.181734 C926.977,527.045396 927.49,526.977227 928.00075,526.974929 C928.51,526.977993 929.02375,527.045396 929.503,527.1825 C930.64825,526.386683 931.1515,526.552127 931.1515,526.552127 C931.4785,527.399262 931.273,528.024273 931.2115,528.17976 C931.59625,528.61022 931.828,529.159403 931.828,529.831136 C931.828,532.194075 930.4255,532.714152 929.089,532.866574 C929.30425,533.056529 929.49625,533.431842 929.49625,534.005534 C929.49625,534.828159 929.48875,535.491467 929.48875,535.69291 C929.48875,535.857588 929.59675,536.049074 929.90125,535.988565 C932.2825,535.1736 934,532.868872 934,530.152067 C934,526.754337 931.3135,524 927.99925,524 Z" id="Shape"></path>
                </g>
                <g id="Group" opacity="0.2" transform="translate(54.000000, 0.000000)">
                    <g>
                        <g id="Path">
                            <path d="M204.006743,395.316256 L4.21115266,395.316256 C2.27539897,395.316256 0.700985974,394.306323 0.700985974,393.064601 L0.700985974,2.56791197 C0.700985974,1.32619011 2.27539897,0.316256336 4.21115266,0.316256336 L204.006743,0.316256336 C205.942497,0.316256336 207.51691,1.32619011 207.51691,2.56791197 L207.51691,393.064601 C207.51691,394.306323 205.942497,395.316256 204.006743,395.316256 Z" fill="#E3EAF2"></path>
                            <g transform="translate(10.324020, 24.223896)">
                                <path d="M182.403732,70.6511969 L3.64333158,70.6511969 C1.70757789,70.6511969 0.133164891,69.1569031 0.133164891,67.3196566 L0.133164891,4.11837582 C0.133164891,2.28112929 1.70757789,0.78683544 3.64333158,0.78683544 L182.403732,0.78683544 C184.339486,0.78683544 185.913899,2.28112929 185.913899,4.11837582 L185.913899,67.3196566 C185.913899,69.1569031 184.339486,70.6511969 182.403732,70.6511969 Z" fill="#F9F9F9"></path>
                                <path d="M185.913899,5.66166291 L185.913899,4.11837582 C185.913899,2.28112929 184.339486,0.78683544 182.403732,0.78683544 L3.64333158,0.78683544 C1.70757789,0.78683544 0.133164891,2.28112929 0.133164891,4.11837582 L0.133164891,5.66166291 L185.913899,5.66166291 Z" fill="#1B99F6"></path>
                                <path d="M179.203286,29.1294253 C179.203286,35.7680094 173.550885,41.1327693 166.556362,41.1327693 C159.561839,41.1327693 153.909438,35.7680094 153.909438,29.1294253 C153.909438,22.4908412 159.561839,17.1260813 166.556362,17.1260813 C173.550885,17.1260813 179.203286,22.4908412 179.203286,29.1294253 Z" fill="#159ED9"></path>
                            </g>
                            <g transform="translate(10.324020, 112.411729)">
                                <path d="M182.403732,70.0877747 L3.64333158,70.0877747 C1.70757789,70.0877747 0.133164891,68.5934808 0.133164891,66.7562343 L0.133164891,3.55495355 C0.133164891,1.71770702 1.70757789,0.22341317 3.64333158,0.22341317 L182.403732,0.22341317 C184.339486,0.22341317 185.913899,1.71770702 185.913899,3.55495355 L185.913899,66.7562343 C185.913899,68.5689842 184.339486,70.0877747 182.403732,70.0877747 Z" fill="#F9F9F9"></path>
                                <path d="M185.913899,5.07374402 L185.913899,3.53045693 C185.913899,1.6932104 184.339486,0.198916549 182.403732,0.198916549 L3.64333158,0.198916549 C1.70757789,0.198916549 0.133164891,1.6932104 0.133164891,3.53045693 L0.133164891,5.07374402 L185.913899,5.07374402 Z" fill="#1B99F6"></path>
                                <path d="M179.203286,28.5415064 C179.203286,35.1800905 173.550885,40.5448504 166.556362,40.5448504 C159.561839,40.5448504 153.909438,35.1800905 153.909438,28.5415064 C153.909438,21.9029223 159.561839,16.5381624 166.556362,16.5381624 C173.550885,16.5381624 179.203286,21.9274189 179.203286,28.5415064 Z" fill="#A4A7B5"></path>
                            </g>
                            <g transform="translate(10.324020, 199.402172)">
                                <path d="M182.403732,125.594173 L3.64333158,125.594173 C1.70757789,125.594173 0.133164891,124.099879 0.133164891,122.262633 L0.133164891,3.60100321 C0.133164891,1.76375667 1.70757789,0.269462825 3.64333158,0.269462825 L182.403732,0.269462825 C184.339486,0.269462825 185.913899,1.76375667 185.913899,3.60100321 L185.913899,122.262633 C185.913899,124.099879 184.339486,125.594173 182.403732,125.594173 Z" fill="#F9F9F9"></path>
                                <path d="M185.913899,5.14429029 L185.913899,3.60100321 C185.913899,1.76375667 184.339486,0.269462825 182.403732,0.269462825 L3.64333158,0.269462825 C1.70757789,0.269462825 0.133164891,1.76375667 0.133164891,3.60100321 L0.133164891,5.14429029 L185.913899,5.14429029 Z" fill="#1B99F6"></path>
                                <path d="M179.203286,97.3740663 C179.203286,104.01265 173.550885,109.37741 166.556362,109.37741 C159.561839,109.37741 153.909438,104.01265 153.909438,97.3740663 C153.909438,90.7354821 159.561839,85.3707222 166.556362,85.3707222 C173.550885,85.3707222 179.203286,90.7354821 179.203286,97.3740663 Z" fill="#159ED9"></path>
                                <path d="M174.789768,73.7103309 L9.45059265,73.7103309 C6.53405709,73.7103309 4.18534261,71.4811385 4.18534261,68.7130203 L4.18534261,18.8134045 C4.18534261,16.0452864 6.53405709,13.8160939 9.45059265,13.8160939 L174.789768,13.8160939 C177.706303,13.8160939 180.055018,16.0452864 180.055018,18.8134045 L180.055018,68.7130203 C180.055018,71.4811385 177.680493,73.7103309 174.789768,73.7103309 Z" fill="#E3EAF2"></path>
                            </g>
                        </g>
                        <g transform="translate(217.674212, 0.000000)" id="Path">
                            <path d="M203.653146,395.316256 L3.85755499,395.316256 C1.9218013,395.316256 0.3473883,394.306323 0.3473883,393.064601 L0.3473883,2.56791197 C0.3473883,1.32619011 1.9218013,0.316256336 3.85755499,0.316256336 L203.653146,0.316256336 C205.588899,0.316256336 207.163312,1.32619011 207.163312,2.56791197 L207.163312,393.064601 C207.163312,394.306323 205.588899,395.316256 203.653146,395.316256 Z" fill="#E3EAF2"></path>
                            <g transform="translate(10.774648, 24.223896)">
                                <path d="M182.760958,70.6511969 L4.00055762,70.6511969 C2.06480394,70.6511969 0.490390935,69.1569031 0.490390935,67.3196566 L0.490390935,4.11837582 C0.490390935,2.28112929 2.06480394,0.78683544 4.00055762,0.78683544 L182.760958,0.78683544 C184.696712,0.78683544 186.271125,2.28112929 186.271125,4.11837582 L186.271125,67.3196566 C186.271125,69.1569031 184.696712,70.6511969 182.760958,70.6511969 Z" fill="#F9F9F9"></path>
                                <path d="M186.271125,5.66166291 L186.271125,4.11837582 C186.271125,2.28112929 184.696712,0.78683544 182.760958,0.78683544 L4.00055762,0.78683544 C2.06480394,0.78683544 0.490390935,2.28112929 0.490390935,4.11837582 L0.490390935,5.66166291 L186.271125,5.66166291 Z" fill="#1B99F6"></path>
                                <path d="M179.560512,29.1294253 C179.560512,35.7680094 173.908111,41.1327693 166.913588,41.1327693 C159.919065,41.1327693 154.266664,35.7680094 154.266664,29.1294253 C154.266664,22.4908412 159.919065,17.1260813 166.913588,17.1260813 C173.908111,17.1260813 179.560512,22.4908412 179.560512,29.1294253 Z" fill="#061C3F"></path>
                            </g>
                            <g transform="translate(10.774648, 112.411729)">
                                <path d="M182.760958,70.0877747 L4.00055762,70.0877747 C2.06480394,70.0877747 0.490390935,68.5934808 0.490390935,66.7562343 L0.490390935,3.55495355 C0.490390935,1.71770702 2.06480394,0.22341317 4.00055762,0.22341317 L182.760958,0.22341317 C184.696712,0.22341317 186.271125,1.71770702 186.271125,3.55495355 L186.271125,66.7562343 C186.271125,68.5689842 184.696712,70.0877747 182.760958,70.0877747 Z" fill="#F9F9F9"></path>
                                <path d="M186.271125,5.07374402 L186.271125,3.53045693 C186.271125,1.6932104 184.696712,0.198916549 182.760958,0.198916549 L4.00055762,0.198916549 C2.06480394,0.198916549 0.490390935,1.6932104 0.490390935,3.53045693 L0.490390935,5.07374402 L186.271125,5.07374402 Z" fill="#1B99F6"></path>
                                <path d="M179.560512,28.5415064 C179.560512,35.1800905 173.908111,40.5448504 166.913588,40.5448504 C159.919065,40.5448504 154.266664,35.1800905 154.266664,28.5415064 C154.266664,21.9029223 159.919065,16.5381624 166.913588,16.5381624 C173.908111,16.5381624 179.560512,21.9274189 179.560512,28.5415064 Z" fill="#159ED9"></path>
                            </g>
                        </g>
                        <g transform="translate(440.091263, 0.000000)" id="Path">
                            <path d="M203.821958,198.316256 L4.02636767,198.316256 C2.09061398,198.316256 0.516200984,197.810011 0.516200984,197.187578 L0.516200984,1.44493435 C0.516200984,0.822501621 2.09061398,0.316256336 4.02636767,0.316256336 L203.821958,0.316256336 C205.757712,0.316256336 207.332125,0.822501621 207.332125,1.44493435 L207.332125,197.187578 C207.332125,197.810011 205.731902,198.316256 203.821958,198.316256 Z" fill="#E3EAF2"></path>
                            <g transform="translate(11.193818, 24.223896)">
                                <path d="M182.510601,70.6511969 L3.75020015,70.6511969 C1.81444646,70.6511969 0.240033457,69.1569031 0.240033457,67.3196566 L0.240033457,4.11837582 C0.240033457,2.28112929 1.81444646,0.78683544 3.75020015,0.78683544 L182.510601,0.78683544 C184.446355,0.78683544 186.020768,2.28112929 186.020768,4.11837582 L186.020768,67.3196566 C186.020768,69.1569031 184.446355,70.6511969 182.510601,70.6511969 Z" fill="#F9F9F9"></path>
                                <path d="M186.020768,5.66166291 L186.020768,4.11837582 C186.020768,2.28112929 184.446355,0.78683544 182.510601,0.78683544 L3.75020015,0.78683544 C1.81444646,0.78683544 0.240033457,2.28112929 0.240033457,4.11837582 L0.240033457,5.66166291 L186.020768,5.66166291 Z" fill="#1B99F6"></path>
                                <path d="M179.310155,29.1294253 C179.310155,35.7680094 173.657754,41.1327693 166.663231,41.1327693 C159.668707,41.1327693 154.016307,35.7680094 154.016307,29.1294253 C154.016307,22.4908412 159.668707,17.1260813 166.663231,17.1260813 C173.657754,17.1260813 179.310155,22.4908412 179.310155,29.1294253 Z" fill="#159ED9"></path>
                            </g>
                        </g>
                        <g id="Group-Copy" transform="translate(662.000000, 0.000000)">
                            <path d="M203.821958,120.186277 L4.02636767,120.186277 C2.09061398,120.186277 0.516200984,119.879462 0.516200984,119.50223 L0.516200984,0.87032458 C0.516200984,0.493092624 2.09061398,0.1862773 4.02636767,0.1862773 L203.821958,0.1862773 C205.757712,0.1862773 207.332125,0.493092624 207.332125,0.87032458 L207.332125,119.50223 C207.332125,119.879462 205.731902,120.186277 203.821958,120.186277 Z" id="Path" fill="#E3EAF2"></path>
                            <g id="Group" transform="translate(11.193818, 24.223896)">
                                <path d="M182.510601,70.6511969 L3.75020015,70.6511969 C1.81444646,70.6511969 0.240033457,69.1569031 0.240033457,67.3196566 L0.240033457,4.11837582 C0.240033457,2.28112929 1.81444646,0.78683544 3.75020015,0.78683544 L182.510601,0.78683544 C184.446355,0.78683544 186.020768,2.28112929 186.020768,4.11837582 L186.020768,67.3196566 C186.020768,69.1569031 184.446355,70.6511969 182.510601,70.6511969 Z" id="Path" fill="#F9F9F9"></path>
                                <path d="M186.020768,5.66166291 L186.020768,4.11837582 C186.020768,2.28112929 184.446355,0.78683544 182.510601,0.78683544 L3.75020015,0.78683544 C1.81444646,0.78683544 0.240033457,2.28112929 0.240033457,4.11837582 L0.240033457,5.66166291 L186.020768,5.66166291 Z" id="Path" fill="#1B99F6"></path>
                                <path d="M179.310155,29.1294253 C179.310155,35.7680094 173.657754,41.1327693 166.663231,41.1327693 C159.668707,41.1327693 154.016307,35.7680094 154.016307,29.1294253 C154.016307,22.4908412 159.668707,17.1260813 166.663231,17.1260813 C173.657754,17.1260813 179.310155,22.4908412 179.310155,29.1294253 Z" id="Path" fill="#159ED9"></path>
                            </g>
                        </g>
                        <path d="M9.50608425,369.106879 C9.50608425,361.182094 15.9287495,354.757788 23.8515087,354.757788 L184.650298,354.757788 C192.573057,354.757788 198.995722,361.182094 198.995722,369.106879 C198.995722,377.031663 192.573057,383.455969 184.650298,383.455969 L23.8515087,383.455969 C15.9287495,383.455969 9.50608425,377.031663 9.50608425,369.106879 Z" id="Path" fill="#CFD8DC"></path>
                        <path d="M225.665246,369.106879 C225.665246,361.182094 232.087912,354.757788 240.010671,354.757788 L400.80946,354.757788 C408.732219,354.757788 415.154884,361.182094 415.154884,369.106879 C415.154884,377.031663 408.732219,383.455969 400.80946,383.455969 L240.010671,383.455969 C232.087912,383.455969 225.665246,377.031663 225.665246,369.106879 Z" id="Path" fill="#CFD8DC"></path>
                    </g>
                    <g transform="translate(458.000000, 99.000000)" id="Path">
                        <g>
                            <path d="M202.205802,38.3115526 L10.9336439,74.6142416 C9.07788381,74.9567198 7.27367265,73.8069716 6.91283042,72.0701178 L0.211474665,40.2196455 C-0.149367568,38.458329 1.06203136,36.745938 2.89201697,36.4034598 L194.164175,0.100770868 C196.019935,-0.24170733 197.824146,0.908040905 198.184988,2.64489462 L204.886344,34.495367 C205.272961,36.2566835 204.061562,37.9690744 202.205802,38.3115526 Z" fill="#F9F9F9"></path>
                            <path d="M198.210763,2.76720826 L198.184988,2.66935735 C197.824146,0.908040905 195.99416,-0.217244601 194.164175,0.125233596 L2.89201697,36.4279225 C1.03625691,36.7704007 -0.149367568,38.5072545 0.211474665,40.2441082 L0.23724911,40.3419591 L198.210763,2.76720826 Z" fill="#1B99F6"></path>
                            <path d="M195.040506,22.4841674 C196.380777,28.820014 192.05067,35.0090843 185.349315,36.2811462 C178.647959,37.5532081 172.152799,33.4434697 170.812527,27.0831603 C169.472256,20.7473136 173.802363,14.5582434 180.503719,13.2861815 C187.205075,12.0141196 193.700235,16.123858 195.040506,22.4841674 Z" fill="#159ED9"></path>
                            <path d="M157.616012,38.4338663 L81.3236537,52.9158015 C80.3184504,53.1115033 79.3390214,52.4754724 79.1328259,51.521426 L76.2718625,37.9446117 C76.0656669,36.9905653 76.7358025,36.0609816 77.7410058,35.8652798 L154.033364,21.3833446 C155.038567,21.1876428 156.017996,21.8236737 156.224191,22.7777201 L159.085155,36.3545344 C159.265576,37.3085808 158.621215,38.2381645 157.616012,38.4338663 Z" fill="#159ED9"></path>
                        </g>
                    </g>
                </g>
            </g>
        </g>
    </g>
</svg>