<?xml version="1.0" encoding="UTF-8"?>
<svg width="1225px" height="243px" viewBox="0 0 1225 243" version="1.1" xmlns="http://www.w3.org/2000/svg" xmlns:xlink="http://www.w3.org/1999/xlink">
    <!-- Generator: Sketch 53 (72520) - https://sketchapp.com -->
    <title>cloud</title>
    <desc>Created with Sketch.</desc>
    <g id="home" stroke="none" stroke-width="1" fill="none" fill-rule="evenodd">
        <g id="home-scrolling" transform="translate(0.000000, -498.000000)" fill="#159ED9" fill-rule="nonzero">
            <g id="cloud" transform="translate(0.000000, 498.000000)">
                <path d="M1225,235.315303 C1215.24737,223.244677 1204.42262,211.890446 1192.63,201.361945 C1134.61789,149.277872 1055.57038,120.088167 973.19,120.329801 C933.39,120.329801 893.31,128.165876 850.73,144.283259 C804.52,73.3756804 720.16,29.4580393 630,29.4580393 C562.94,29.4580393 498.76,53.4293065 449,97.0619993 C423.964364,67.9404624 391.703585,44.3700316 354.74,28.1935817 C315.32,10.6870768 271.19,1.21254916 223.54,0.00151932219 C149.252633,-0.229772596 77.9351429,25.9552264 25.42,72.7434516 C16.2923755,80.844683 7.79913384,89.4935437 0,98.6292144 L0,106.073486 C51.8676717,42.2372612 134.985323,4.44074808 223.47,4.45383492 C270.32,5.6470555 313.74,14.9523951 352.47,32.1294287 C389.621854,48.3907363 421.920096,72.2565222 446.72,101.772549 C447.1534,102.294422 447.822683,102.62009 448.55,102.663012 C449.27621,102.715297 449.990877,102.47706 450.5,102.012974 C499.6,58.1309518 563.35,33.9548781 630.02,33.9548781 C719.08,33.9548781 802.41,77.7389497 847.49,148.219106 C848.126128,149.19763 849.482708,149.599018 850.65,149.154092 C893.32,132.742857 933.4,124.782116 973.14,124.782116 C1054.18827,124.543587 1131.95758,153.261984 1189.03,204.505279 C1202.3126,216.333744 1214.35273,229.218963 1225,243" id="Path"></path>
            </g>
        </g>
    </g>
</svg>