<?xml version="1.0" encoding="UTF-8"?>
<svg width="219px" height="122px" viewBox="0 0 219 122" version="1.1" xmlns="http://www.w3.org/2000/svg" xmlns:xlink="http://www.w3.org/1999/xlink">
    <!-- Generator: Sketch 53 (72520) - https://sketchapp.com -->
    <title>cofigure</title>
    <desc>Created with Sketch.</desc>
    <g id="home" stroke="none" stroke-width="1" fill="none" fill-rule="evenodd">
        <g id="home-with-getting-started" transform="translate(-93.000000, -1591.000000)" fill-rule="nonzero">
            <g id="cofigure" transform="translate(93.000000, 1591.000000)">
                <g id="Group-9" transform="translate(0.000000, 100.719520)">
                    <path d="M213.307449,21.0990738 L5.87043277,21.0990738 C1.77232406,21.0990738 -0.593177899,20.5546659 0.569374298,19.895536 L29.8082353,3.31925495 C30.4186875,2.97091735 33.259983,2.69349878 36.1596305,2.69349878 L183.009274,2.69349878 C185.91341,2.69349878 188.754706,2.9688315 189.365158,3.31925495 L218.59953,19.8913643 C219.762083,20.5546659 217.401069,21.0990738 213.307449,21.0990738 Z" id="Path" fill="#E6E7E8"></path>
                    <path d="M218.8958,17.3921537 L217.419016,17.3921537 L217.419016,17.8825517 L189.364618,1.97278935 C188.754154,1.62429377 185.912804,1.34674939 183.008613,1.34674939 L36.1561802,1.34674939 C33.2564776,1.34674939 30.4151281,1.62220697 29.8046644,1.97278935 L2.56720987,17.4151085 L0.273482237,17.4151085 L0.273482237,18.890476 L0.273482237,18.890476 C0.313880571,19.3871344 2.51783413,19.7523244 5.86640714,19.7523244 L213.307363,19.7523244 C216.67838,19.7523244 218.868867,19.3850476 218.8958,18.8863024 L218.8958,18.8863024 L218.8958,17.3921537 Z" id="Path" fill="#EDEDED"></path>
                    <path d="M213.307449,18.405575 L5.87043277,18.405575 C1.77232406,18.405575 -0.593177899,17.8611671 0.569374298,17.2020373 L29.8082353,0.625756176 C30.4186875,0.277418571 33.259983,0 36.1596305,0 L183.009274,0 C185.91341,0 188.754706,0.275332717 189.365158,0.625756176 L218.59953,17.1978656 C219.762083,17.8611671 217.401069,18.405575 213.307449,18.405575 Z" id="Path" fill="#FFFFFF"></path>
                    <path d="M196.522835,10.3250786 L23.0996068,10.3250786 C21.9016661,10.3250786 21.1523923,10.1864127 21.4305658,10.0171587 L36.0885144,1.10175345 C36.2814412,0.98551875 37.2371017,0.897832926 38.2286556,0.897832926 L181.393786,0.897832926 C182.380853,0.897832926 183.341001,0.991636366 183.529441,1.10175345 L198.187389,10.0171587 C198.465563,10.1864127 197.720776,10.3250786 196.522835,10.3250786 Z" id="Path" fill="#EDEDED"></path>
                    <path d="M135.825199,17.0588256 L83.7838975,17.0588256 C82.4350948,17.0588256 81.4234929,16.8946355 81.5358931,16.6913526 L83.8423456,11.9787071 C83.9277697,11.8086531 84.9843318,11.671828 86.2072462,11.671828 L133.415338,11.671828 C134.638253,11.671828 135.694815,11.8086531 135.780239,11.9787071 L138.086691,16.6913526 C138.163124,16.8946355 137.174002,17.0588256 135.825199,17.0588256 Z" id="Path" fill="#EDEDED"></path>
                    <path d="M41.2169311,6.28747532 L32.2864103,6.28747532 C31.8422207,6.272858 31.3989024,6.31915853 31.0345104,6.41822479 L29.0368939,7.49211377 C28.8922701,7.56882012 29.2402712,7.63157987 29.8097275,7.63157987 L48.2537837,7.63157987 C48.8277595,7.63157987 49.3791378,7.56882012 49.4830862,7.49211377 L50.9835583,6.41822479 C51.0875067,6.34500508 50.7169081,6.28747532 50.1655298,6.28747532 L41.2169311,6.28747532 Z" id="Path" fill="#6D6E71"></path>
                    <path d="M61.2173314,7.63157987 L53.2163856,7.63157987 C52.6597212,7.63157987 52.2753578,7.57917717 52.3592992,7.51280042 L53.8039758,6.39487615 C53.8834993,6.33373967 54.3915659,6.28483048 54.9305584,6.28483048 L62.7017697,6.28483048 C63.2451802,6.28483048 63.6295437,6.33373967 63.5632741,6.39487615 L62.3704219,7.51280042 C62.2864804,7.57917717 61.7784138,7.63157987 61.2173314,7.63157987 Z" id="Path" fill="#6D6E71"></path>
                    <path d="M74.5727321,7.63157987 L66.2904092,7.63157987 C65.7102354,7.63157987 65.2945204,7.57917717 65.3767497,7.51280042 L66.5325289,6.39487615 C66.5964851,6.33373967 67.1035661,6.28483048 67.6654666,6.28483048 L75.6691235,6.28483048 C76.231024,6.28483048 76.6467391,6.33373967 76.5827829,6.39487615 L75.6919649,7.51280042 C75.6508503,7.57917717 75.139201,7.63157987 74.5727321,7.63157987 Z" id="Path" fill="#6D6E71"></path>
                    <path d="M87.5179987,7.63157987 L79.3374942,7.63157987 C78.7638199,7.63157987 78.3392106,7.57917717 78.3888989,7.51280042 L79.1929463,6.39487615 C79.2381175,6.33373967 79.7214494,6.28483048 80.2770551,6.28483048 L88.2091181,6.28483048 C88.7602068,6.28483048 89.1848161,6.33373967 89.1577134,6.39487615 L88.6111418,7.51280042 C88.579522,7.57917717 88.091673,7.63157987 87.5179987,7.63157987 Z" id="Path" fill="#6D6E71"></path>
                    <path d="M113.725059,7.63157987 L105.453347,7.63157987 C104.873917,7.63157987 104.41311,7.57917717 104.422235,7.51280042 L104.549983,6.39487615 C104.549983,6.33373967 105.006228,6.28483048 105.581096,6.28483048 L113.588186,6.28483048 C114.149367,6.28483048 114.610174,6.33373967 114.614736,6.39487615 L114.747047,7.51280042 C114.756172,7.57917717 114.295365,7.63157987 113.725059,7.63157987 Z" id="Path" fill="#6D6E71"></path>
                    <path d="M100.496633,7.63157987 L92.3810709,7.63157987 C91.8167437,7.63157987 91.3778226,7.57917717 91.4046953,7.51280042 L91.852574,6.39487615 C91.8749679,6.33373967 92.3452406,6.28483048 92.8916526,6.28483048 L100.756403,6.28483048 C101.307293,6.28483048 101.741736,6.33373967 101.728299,6.39487615 L101.526754,7.51280042 C101.549148,7.57917717 101.06096,7.63157987 100.496633,7.63157987 Z" id="Path" fill="#6D6E71"></path>
                    <path d="M126.800247,7.63157987 L118.693993,7.63157987 C118.130002,7.63157987 117.660009,7.57917717 117.646581,7.51280042 L117.440679,6.39487615 C117.440679,6.33373967 117.888291,6.28483048 118.416473,6.28483048 L126.276541,6.28483048 C126.822628,6.28483048 127.288145,6.33373967 127.315001,6.39487615 L127.762613,7.51280042 C127.807374,7.57917717 127.368715,7.63157987 126.800247,7.63157987 Z" id="Path" fill="#6D6E71"></path>
                    <path d="M140.280775,7.63157987 L132.100569,7.63157987 C131.526915,7.63157987 131.039084,7.57917717 131.007465,7.51280042 L130.460914,6.39487615 C130.429295,6.33373967 130.853889,6.28483048 131.409474,6.28483048 L139.341248,6.28483048 C139.896834,6.28483048 140.380148,6.33373967 140.425318,6.39487615 L141.229336,7.51280042 C141.279022,7.57917717 140.849912,7.63157987 140.280775,7.63157987 Z" id="Path" fill="#6D6E71"></path>
                    <path d="M153.328789,7.63157987 L145.062086,7.63157987 C144.483007,7.63157987 143.972322,7.57917717 143.922166,7.51280042 L143.033028,6.39487615 C142.982871,6.33373967 143.397803,6.28483048 143.944964,6.28483048 L151.960884,6.28483048 C152.521725,6.28483048 153.02785,6.33373967 153.091685,6.39487615 L154.245285,7.51280042 C154.30912,7.57917717 153.898749,7.63157987 153.328789,7.63157987 Z" id="Path" fill="#6D6E71"></path>
                    <path d="M166.400786,7.63157987 L158.385957,7.63157987 C157.828634,7.63157987 157.315544,7.57917717 157.249196,7.51280042 L156.054933,6.39487615 C155.988585,6.33373967 156.373403,6.28483048 156.917456,6.28483048 L164.680163,6.28483048 C165.224216,6.28483048 165.72846,6.33373967 165.808078,6.39487615 L167.258886,7.51280042 C167.342926,7.57917717 166.958108,7.63157987 166.400786,7.63157987 Z" id="Path" fill="#6D6E71"></path>
                    <path d="M46.2903377,9.87616219 L38.8716905,9.87616219 C38.2789173,9.87616219 37.8927165,9.80536532 38.0004935,9.71955095 L39.9090437,8.22852613 C40.01233,8.14700248 40.5601962,8.08049633 41.1350066,8.08049633 L48.320137,8.08049633 C48.8949475,8.08049633 49.2856389,8.14700248 49.1913341,8.22852613 L47.5432448,9.71955095 C47.4399586,9.80536532 46.8831109,9.87616219 46.2903377,9.87616219 Z" id="Path" fill="#6D6E71"></path>
                    <path d="M33.7960185,9.87616219 L26.2731014,9.87616219 C25.6809576,9.87616219 25.3086248,9.80550746 25.438717,9.71986538 L27.6816858,8.2318341 C28.0563353,8.11769984 28.4994337,8.06577 28.9422342,8.0841015 L36.2273966,8.0841015 C36.7971107,8.0841015 37.1739295,8.15047412 37.066267,8.2318341 L35.0789967,9.71986538 C34.9623623,9.80550746 34.4016201,9.87616219 33.7960185,9.87616219 Z" id="Path" fill="#6D6E71"></path>
                    <path d="M59.2422376,9.87616219 L51.909527,9.87616219 C51.3204108,9.87616219 50.9142777,9.80536532 51.0169268,9.71955095 L52.5745141,8.22852613 C52.6593111,8.14700248 53.1948712,8.08049633 53.7616724,8.08049633 L60.871233,8.08049633 C61.4424971,8.08049633 61.8486302,8.14700248 61.7638332,8.22852613 L60.4561739,9.71955095 C60.3803028,9.80536532 59.8402797,9.87616219 59.2422376,9.87616219 Z" id="Path" fill="#6D6E71"></path>
                    <path d="M180.742424,9.87616219 L173.325851,9.87616219 C172.733244,9.87616219 172.176552,9.80536532 172.077784,9.71955095 L170.425666,8.22852613 C170.335877,8.14700248 170.726459,8.08049633 171.296619,8.08049633 L178.479741,8.08049633 C179.054391,8.08049633 179.602104,8.14700248 179.70985,8.22852613 L181.617867,9.71955095 C181.725614,9.80536532 181.335032,9.87616219 180.742424,9.87616219 Z" id="Path" fill="#6D6E71"></path>
                    <path d="M168.134402,9.87616219 L160.517966,9.87616219 C159.918104,9.87616219 159.36823,9.8064481 159.28643,9.72194618 L158.75019,9.12832017 C158.672935,9.0459308 159.09102,8.97832926 159.681794,8.97832926 L167.180076,8.97832926 C167.770849,8.97832926 168.320723,9.0459308 168.411611,9.12832017 L169.052374,9.72194618 C169.147806,9.8064481 168.734265,9.87616219 168.134402,9.87616219 Z" id="Path" fill="#6D6E71"></path>
                    <path d="M193.366023,9.87616219 L185.982183,9.87616219 C185.391117,9.87616219 184.817963,9.80672557 184.701541,9.72255997 L183.90002,9.13129664 C183.788076,9.04923518 184.164209,8.9819027 184.746318,8.9819027 L191.995826,8.9819027 C192.447565,8.96357386 192.899496,9.01611034 193.280945,9.13129664 L194.176499,9.72255997 C194.31531,9.80672557 193.939177,9.87616219 193.366023,9.87616219 Z" id="Path" fill="#6D6E71"></path>
                    <path d="M72.6447842,9.87616219 L64.0817784,9.87616219 C63.4834106,9.87616219 63.0573002,9.80536532 63.1298296,9.71955095 L64.3764292,8.22852613 C64.4444255,8.14700248 64.9702639,8.08049633 65.5504993,8.08049633 L73.8369867,8.08049633 C74.4172222,8.08049633 74.8433326,8.14700248 74.7889355,8.22852613 L73.8279206,9.71955095 C73.7735235,9.80536532 73.243152,9.87616219 72.6447842,9.87616219 Z" id="Path" fill="#6D6E71"></path>
                    <path d="M155.087131,9.87616219 L146.525333,9.87616219 C145.926732,9.87616219 145.396155,9.80536532 145.337202,9.71955095 L144.380348,8.22852613 C144.32593,8.14700248 144.752206,8.08049633 145.332667,8.08049633 L153.622374,8.08049633 C154.202835,8.08049633 154.728877,8.14700248 154.7969,8.22852613 L156.039449,9.71955095 C156.112007,9.80536532 155.685731,9.87616219 155.087131,9.87616219 Z" id="Path" fill="#6D6E71"></path>
                    <path d="M178.391679,6.28753447 L169.448495,6.28753447 C168.892372,6.28753447 168.54423,6.34506171 168.630135,6.41827819 L170.126694,7.49211991 C170.235206,7.56882289 170.786808,7.63157987 171.361016,7.63157987 L189.812549,7.63157987 C190.382236,7.63157987 190.716814,7.56882289 190.585695,7.49211991 L188.582748,6.41827819 C188.220107,6.31906306 187.777864,6.27272831 187.334862,6.28753447 L178.391679,6.28753447 Z" id="Path" fill="#6D6E71"></path>
                    <path d="M40.8910016,4.49216438 L35.1745637,4.49216438 C34.7580288,4.47640246 34.3416553,4.52310142 33.9983052,4.6240893 L32.1759956,5.69645052 C32.0423299,5.77372084 32.3764943,5.83591402 32.9200682,5.83591402 L44.7182972,5.83591402 C45.2574157,5.83591402 45.7876231,5.77372084 45.8945557,5.69645052 L47.3916119,4.6240893 C47.494089,4.55058827 47.1510136,4.49216438 46.6252617,4.49216438 L40.8910016,4.49216438 Z" id="Path" fill="#6D6E71"></path>
                    <path d="M70.04768,5.83591402 L62.2006399,5.83591402 C61.6504451,5.83591402 61.2626029,5.78302624 61.3347596,5.71691653 L62.5298548,4.60060672 C62.5929919,4.54016355 63.0800495,4.48916463 63.6122051,4.48916463 L71.224736,4.48916463 C71.7568916,4.48916463 72.1492436,4.54016355 72.095126,4.60060672 L71.1390499,5.71691653 C71.0849324,5.78302624 70.5933649,5.83591402 70.04768,5.83591402 Z" id="Path" fill="#6D6E71"></path>
                    <path d="M57.5531036,5.83591402 L49.6141172,5.83591402 C49.0574756,5.83591402 48.6787769,5.78318706 48.7700296,5.71727835 L50.29395,4.60436281 C50.6274723,4.51494174 51.0254848,4.4757034 51.420921,4.49325956 L59.127213,4.49325956 C59.665604,4.49325956 60.0397402,4.54410342 59.9713007,4.60436281 L58.6937626,5.71727835 C58.6161978,5.78318706 58.1051826,5.83591402 57.5531036,5.83591402 Z" id="Path" fill="#6D6E71"></path>
                    <path d="M82.5210828,5.83591402 L74.7886512,5.83591402 C74.2464922,5.83591402 73.8509828,5.78302624 73.899866,5.71691653 L74.7886512,4.60060672 C74.8375344,4.54016355 75.3041467,4.48916463 75.8285299,4.48916463 L83.3298773,4.48916463 C83.8542606,4.48916463 84.254214,4.54016355 84.2186626,4.60060672 L83.5831811,5.71691653 C83.529854,5.78302624 83.0587978,5.83591402 82.5210828,5.83591402 Z" id="Path" fill="#6D6E71"></path>
                    <path d="M95.018961,5.83591402 L87.3763003,5.83591402 C86.8404356,5.83591402 86.4363409,5.78302624 86.4670873,5.71691653 L87.0249136,4.60060672 C87.05566,4.54016355 87.4992857,4.48916463 88.0175811,4.48916463 L95.4362327,4.48916463 C95.9545281,4.48916463 96.3586228,4.54016355 96.3410535,4.60060672 L96.0379824,5.71691653 C95.9984514,5.78302624 95.5504334,5.83591402 95.018961,5.83591402 Z" id="Path" fill="#6D6E71"></path>
                    <path d="M120.516712,5.83591402 L112.657215,5.83591402 C112.106147,5.83591402 111.658968,5.78302624 111.654452,5.71691653 L111.604765,4.60060672 C111.604765,4.54016355 112.033876,4.48916463 112.566876,4.48916463 L120.196008,4.48916463 C120.729009,4.48916463 121.17167,4.54016355 121.189738,4.60060672 L121.478823,5.71691653 C121.514958,5.78302624 121.081331,5.83591402 120.516712,5.83591402 Z" id="Path" fill="#6D6E71"></path>
                    <path d="M107.883405,5.83591402 L100.004647,5.83591402 C99.4522282,5.83591402 99.0175381,5.78302624 99.0356502,5.71691653 L99.2982754,4.60060672 C99.2982754,4.54016355 99.7510776,4.48916463 100.289912,4.48916463 L107.946798,4.48916463 C108.481104,4.48916463 108.911266,4.54016355 108.911266,4.60060672 L108.888626,5.71691653 C108.87957,5.78302624 108.431296,5.83591402 107.883405,5.83591402 Z" id="Path" fill="#6D6E71"></path>
                    <path d="M133.554286,5.83591402 L125.588958,5.83591402 C125.03047,5.83591402 124.563537,5.78302624 124.540648,5.71691653 L124.174426,4.60060672 C124.174426,4.54016355 124.57727,4.48916463 125.117448,4.48916463 L132.844731,4.48916463 C133.384909,4.48916463 133.851842,4.54016355 133.883886,4.60060672 L134.497308,5.71691653 C134.53393,5.78302624 134.108197,5.83591402 133.554286,5.83591402 Z" id="Path" fill="#6D6E71"></path>
                    <path d="M145.749083,5.83591402 L138.009817,5.83591402 C137.467178,5.83591402 137.000154,5.78295196 136.960123,5.7167494 L136.297393,4.60076324 C136.26181,4.54023518 136.657669,4.48916463 137.186964,4.48916463 L144.681598,4.48916463 C145.206444,4.48916463 145.673469,4.54023518 145.722396,4.60076324 L146.611966,5.7186409 C146.683132,5.78295196 146.287273,5.83591402 145.749083,5.83591402 Z" id="Path" fill="#6D6E71"></path>
                    <path d="M158.771361,5.83591402 L150.947285,5.83591402 C150.3987,5.83591402 149.908571,5.78295196 149.854612,5.7167494 L148.869857,4.60076324 C148.815898,4.54023518 149.202605,4.48916463 149.733204,4.48916463 L157.327954,4.48916463 C157.858552,4.48916463 158.344185,4.54023518 158.411634,4.60076324 L159.630211,5.7186409 C159.702157,5.78295196 159.315449,5.83591402 158.771361,5.83591402 Z" id="Path" fill="#6D6E71"></path>
                    <path d="M171.350681,5.83591402 L163.433436,5.83591402 C162.878319,5.83591402 162.368703,5.78310592 162.291351,5.71709579 L160.994561,4.60435361 C160.921758,4.54400149 161.29942,4.49307939 161.836337,4.49307939 L169.521524,4.49307939 C169.917241,4.47598045 170.315213,4.51522423 170.649959,4.60435361 L172.197007,5.71898179 C172.27891,5.78310592 171.914898,5.83591402 171.350681,5.83591402 Z" id="Path" fill="#6D6E71"></path>
                    <path d="M56.6211885,2.24458231 L49.556912,2.24458231 C49.0388957,2.24458231 48.6859111,2.20961669 48.7684269,2.16590965 L49.3414539,1.87452941 C49.6616363,1.8126682 50.0370154,1.78604363 50.4095762,1.79877054 L57.3775841,1.79877054 C57.886432,1.79877054 58.2440009,1.83227927 58.1752376,1.87452941 L57.6847265,2.16590965 C57.6159633,2.20961669 57.1392049,2.24458231 56.6211885,2.24458231 Z" id="Path" fill="#6D6E71"></path>
                    <path d="M45.29086,2.24178804 L38.3016022,2.24178804 C37.7897511,2.24178804 37.4545567,2.20700954 37.5496794,2.1635364 L38.2200684,1.87371552 C38.5474854,1.81305185 38.9260516,1.78670178 39.3026559,1.79836209 L46.1877317,1.79836209 C46.6905234,1.79836209 47.0302476,1.83169149 46.9487138,1.87371552 L46.3598586,2.1635364 C46.0399784,2.22640793 45.6643727,2.2539026 45.29086,2.24178804 L45.29086,2.24178804 Z" id="Path" fill="#6D6E71"></path>
                    <path d="M68.0360473,2.24458231 L61.2232267,2.24458231 C60.7236493,2.24458231 60.3699662,2.20937318 60.4362818,2.16536176 L60.8783857,1.87195231 C60.9447013,1.82940794 61.3912262,1.79566585 61.8863825,1.79566585 L68.6063613,1.79566585 C69.0970966,1.79566585 69.4507797,1.82940794 69.4021483,1.87195231 L69.030781,2.16536176 C68.9954127,2.20937318 68.5533088,2.24458231 68.0360473,2.24458231 Z" id="Path" fill="#6D6E71"></path>
                    <path d="M79.3493305,2.24458231 L72.477711,2.24458231 C71.9728391,2.24458231 71.6064719,2.20937318 71.6556187,2.16536176 L72.0041144,1.87195231 C72.0532612,1.82940794 72.4955826,1.79566585 72.9959866,1.79566585 L79.7961198,1.79566585 C80.292056,1.79566585 80.6628911,1.82940794 80.6271479,1.87195231 L80.3546065,2.16536176 C80.3054596,2.20937318 79.8676061,2.24458231 79.3493305,2.24458231 Z" id="Path" fill="#6D6E71"></path>
                    <path d="M102.077251,2.24458231 L95.0127119,2.24458231 C94.4953476,2.24458231 94.097023,2.20937318 94.097023,2.16536176 L94.2435332,1.87195231 C94.2435332,1.82940794 94.7013776,1.79566585 95.2004281,1.79566585 L102.159663,1.79566585 C102.672449,1.79566585 103.075352,1.82940794 103.075352,1.87195231 L103.011254,2.16536176 C103.020411,2.20937318 102.594616,2.24458231 102.077251,2.24458231 Z" id="Path" fill="#6D6E71"></path>
                    <path d="M90.7133956,2.24458231 L83.7377321,2.24458231 C83.2262136,2.24458231 82.8323896,2.20937318 82.8776568,2.16536176 L83.1266259,1.87195231 C83.1628396,1.82940794 83.5792972,1.79566585 84.0998691,1.79566585 L90.9849983,1.79566585 C91.4874634,1.79566585 91.8903408,1.82940794 91.8496004,1.87195231 L91.682112,2.16536176 C91.6594784,2.20937318 91.2249141,2.24458231 90.7133956,2.24458231 Z" id="Path" fill="#6D6E71"></path>
                    <path d="M112.981202,2.24458231 L106.200034,2.24458231 C105.702778,2.24458231 105.319935,2.20937318 105.319935,2.16536176 L105.359539,1.87195231 C105.359539,1.82940794 105.764385,1.79566585 106.239639,1.79566585 L112.928396,1.79566585 C113.421251,1.79566585 113.808495,1.82940794 113.808495,1.87195231 L113.8481,2.16536176 C113.874503,2.20937318 113.478458,2.24458231 112.981202,2.24458231 Z" id="Path" fill="#6D6E71"></path>
                    <path d="M124.610386,2.24458231 L117.558725,2.24458231 C117.041633,2.24458231 116.616063,2.20937318 116.606911,2.16536176 L116.542846,1.87195231 C116.542846,1.82940794 116.936385,1.79566585 117.458052,1.79566585 L124.413616,1.79566585 C124.926132,1.79566585 125.351702,1.82940794 125.374582,1.87195231 L125.521015,2.16536176 C125.530167,2.20937318 125.145781,2.24458231 124.610386,2.24458231 Z" id="Path" fill="#6D6E71"></path>
                    <path d="M135.868678,2.24458231 L128.907311,2.24458231 C128.395845,2.24458231 127.961325,2.20937318 127.938694,2.16536176 L127.766697,1.87195231 C127.744065,1.82940794 128.133323,1.79566585 128.635736,1.79566585 L135.515631,1.79566585 C136.018044,1.79566585 136.45709,1.82940794 136.4933,1.87195231 L136.742244,2.16536176 C136.773927,2.20937318 136.393723,2.24458231 135.868678,2.24458231 Z" id="Path" fill="#6D6E71"></path>
                    <path d="M147.139664,2.24458231 L140.247782,2.24458231 C139.742407,2.24458231 139.299645,2.20937318 139.263866,2.16536176 L138.991053,1.87195231 C138.955274,1.82940794 139.326479,1.79566585 139.822909,1.79566585 L146.620872,1.79566585 C147.117302,1.79566585 147.560064,1.82940794 147.613732,1.87195231 L147.962575,2.16536176 C148.011771,2.20937318 147.645039,2.24458231 147.139664,2.24458231 Z" id="Path" fill="#6D6E71"></path>
                    <path d="M158.409309,2.24458231 L151.58737,2.24458231 C151.087772,2.24458231 150.641229,2.20937318 150.588175,2.16536176 L150.216793,1.87195231 C150.163738,1.82940794 150.521857,1.79566585 151.012612,1.79566585 L157.732863,1.79566585 C158.223618,1.79566585 158.674582,1.82940794 158.736479,1.87195231 L159.178601,2.16536176 C159.258183,2.20937318 158.908907,2.24458231 158.409309,2.24458231 Z" id="Path" fill="#6D6E71"></path>
                    <path d="M170.061286,2.24458231 L162.99701,2.24458231 C162.478994,2.24458231 162.002235,2.20961669 161.928888,2.16590965 L161.442961,1.87452941 C161.374198,1.83227927 161.731766,1.79877054 162.240614,1.79877054 L169.208622,1.79877054 C169.581183,1.78604363 169.956562,1.8126682 170.276744,1.87452941 L170.849771,2.16590965 C170.932287,2.20961669 170.579303,2.24458231 170.061286,2.24458231 Z" id="Path" fill="#6D6E71"></path>
                    <path d="M181.316088,2.24170389 L174.332668,2.24170389 C173.956308,2.25403035 173.577692,2.2265483 173.254813,2.16346701 L172.670597,1.87370079 C172.584549,1.83168469 172.928739,1.79836158 173.431436,1.79836158 L180.315222,1.79836158 C180.691755,1.78670347 181.070251,1.81304857 181.397606,1.87370079 L182.06787,2.16346701 C182.162975,2.20693195 181.845958,2.24170389 181.316088,2.24170389 Z" id="Path" fill="#6D6E71"></path>
                    <path d="M179.141965,4.49216438 L173.905267,4.49216438 C173.369799,4.49216438 173.020383,4.55058827 173.124754,4.6240893 L174.681242,5.69645052 C174.794689,5.77372084 175.330157,5.83591402 175.883777,5.83591402 L186.679361,5.83591402 C187.232981,5.83591402 187.586934,5.77372084 187.437185,5.69645052 L185.581197,4.6240893 C185.231502,4.52310142 184.807433,4.47640246 184.3832,4.49216438 L179.141965,4.49216438 Z" id="Path" fill="#6D6E71"></path>
                    <path d="M43.3714559,2.24761752 L37.7451052,2.24761752 C37.3383781,2.23177662 36.9317001,2.2782702 36.5925006,2.37938937 L34.8658715,3.44775496 C34.7428663,3.52479081 35.0708802,3.58763584 35.6039029,3.58763584 L44.3008288,3.58763584 C44.7120759,3.60589061 45.1240236,3.55609319 45.4579892,3.44775496 L46.9431635,2.37938937 C47.04339,2.30640804 46.7062645,2.24761752 46.1869091,2.24761752 L43.3714559,2.24761752 Z" id="Path" fill="#6D6E71"></path>
                    <path d="M68.7502453,3.5913317 L61.2603838,3.5913317 C60.7368989,3.5913317 60.3655378,3.5383582 60.4371255,3.47316005 L61.6004253,2.35664164 C61.6675388,2.29551837 62.1328587,2.24458231 62.6384468,2.24458231 L69.9180194,2.24458231 C70.4280816,2.24458231 70.8128654,2.29551837 70.745752,2.35664164 L69.8016894,3.47316005 C69.7435244,3.5383582 69.2737302,3.5913317 68.7502453,3.5913317 Z" id="Path" fill="#6D6E71"></path>
                    <path d="M56.730913,3.5913317 L49.1316729,3.5913317 C48.6005433,3.5913317 48.223759,3.53852457 48.3236295,3.47353118 L49.7989897,2.36051929 C50.1210334,2.27023027 50.5014742,2.23089543 50.8794074,2.2488119 L58.2652876,2.2488119 C58.778259,2.2488119 59.1414246,2.29958798 59.073331,2.36051929 L57.8249493,3.47353118 C57.7523162,3.53852457 57.2620426,3.5913317 56.730913,3.5913317 Z" id="Path" fill="#6D6E71"></path>
                    <path d="M80.7632507,3.5913317 L73.3963276,3.5913317 C72.8814351,3.5913317 72.5161695,3.5383582 72.5513758,3.47316005 L73.4315339,2.35664164 C73.4799426,2.29551837 73.9244224,2.24458231 74.4261125,2.24458231 L81.5817977,2.24458231 C82.0834878,2.24458231 82.4619557,2.29551837 82.4223486,2.35664164 L81.7754324,3.47316005 C81.7270237,3.5383582 81.2781431,3.5913317 80.7632507,3.5913317 Z" id="Path" fill="#6D6E71"></path>
                    <path d="M93.1637303,3.5913317 L85.5774416,3.5913317 C85.0472171,3.5913317 84.643884,3.5383582 84.671075,3.47316005 L85.2738088,2.35664164 C85.3055316,2.29551837 85.7496513,2.24458231 86.2662803,2.24458231 L93.6395728,2.24458231 C94.15167,2.24458231 94.5459395,2.29551837 94.5459395,2.35664164 L94.1697973,3.47316005 C94.1426063,3.5383582 93.6939548,3.5913317 93.1637303,3.5913317 Z" id="Path" fill="#6D6E71"></path>
                    <path d="M117.436421,3.5913317 L109.868033,3.5913317 C109.340006,3.5913317 108.911266,3.5383582 108.911266,3.47316005 L108.911266,2.35664164 C108.911266,2.29551837 109.33098,2.24458231 109.840955,2.24458231 L117.183691,2.24458231 C117.698178,2.24458231 118.122405,2.29551837 118.131431,2.35664164 L118.334519,3.47316005 C118.384162,3.5383582 117.964449,3.5913317 117.436421,3.5913317 Z" id="Path" fill="#6D6E71"></path>
                    <path d="M105.171255,3.5913317 L97.6864218,3.5913317 C97.1636006,3.5913317 96.7569619,3.5383582 96.7927104,3.47316005 L97.0965723,2.35664164 C97.0965723,2.29551837 97.543428,2.24458231 98.048375,2.24458231 L105.323186,2.24458231 C105.828133,2.24458231 106.239241,2.29551837 106.216898,2.35664164 L106.127527,3.47316005 C106.11859,3.5383582 105.694077,3.5913317 105.171255,3.5913317 Z" id="Path" fill="#6D6E71"></path>
                    <path d="M129.533197,3.5913317 L121.853816,3.5913317 C121.317085,3.5913317 120.867516,3.5383582 120.853753,3.47316005 L120.583094,2.35664164 C120.583094,2.29551837 120.977614,2.24458231 121.500583,2.24458231 L128.959767,2.24458231 C129.482735,2.24458231 129.927717,2.29551837 129.955242,2.35664164 L130.455273,3.47316005 C130.505735,3.5383582 130.069928,3.5913317 129.533197,3.5913317 Z" id="Path" fill="#6D6E71"></path>
                    <path d="M141.710964,3.5913317 L134.258802,3.5913317 C133.737952,3.5913317 133.288329,3.5383582 133.257167,3.47316005 L132.705155,2.35664164 C132.678445,2.29551837 133.061292,2.24458231 133.568787,2.24458231 L140.820622,2.24458231 C141.323665,2.24458231 141.768836,2.29551837 141.813353,2.35664164 L142.579047,3.47316005 C142.601305,3.5383582 142.231814,3.5913317 141.710964,3.5913317 Z" id="Path" fill="#6D6E71"></path>
                    <path d="M153.847876,3.5913317 L146.274842,3.5913317 C145.745544,3.5913317 145.275057,3.5383582 145.225294,3.47316005 L144.379322,2.35664164 C144.334083,2.29551837 144.714092,2.24458231 145.225294,2.24458231 L152.585704,2.24458231 C153.096906,2.24458231 153.56287,2.29551837 153.621681,2.35664164 L154.693848,3.47316005 C154.757183,3.5383582 154.377174,3.5913317 153.847876,3.5913317 Z" id="Path" fill="#6D6E71"></path>
                    <path d="M166.02293,3.5913317 L158.654479,3.5913317 C158.139788,3.5913317 157.673486,3.53853257 157.607499,3.47354902 L156.503332,2.36070569 C156.441745,2.29978361 156.79807,2.24901521 157.299564,2.24901521 L164.45246,2.24901521 C164.815976,2.23058212 165.182232,2.26998495 165.490642,2.36070569 L166.810365,3.47354902 C166.889548,3.53853257 166.537622,3.5913317 166.02293,3.5913317 Z" id="Path" fill="#6D6E71"></path>
                    <path d="M173.857736,2.2476171 L168.931253,2.2476171 C168.4262,2.2476171 168.093928,2.30639949 168.182534,2.37937074 L169.511621,3.44758865 C169.832544,3.55635069 170.230795,3.60624171 170.628054,3.5874502 L183.582224,3.5874502 C184.100568,3.5874502 184.423979,3.52461385 184.304362,3.44758865 L182.625281,2.37937074 C182.295423,2.27826554 181.899944,2.23177839 181.504418,2.2476171 L173.857736,2.2476171 Z" id="Path" fill="#6D6E71"></path>
                    <path d="M141.594322,9.87616219 L78.0276929,9.87616219 C77.4335702,9.87616219 76.992479,9.80536532 77.0419893,9.71955095 L77.9151696,8.22852613 C77.9646799,8.14700248 78.468784,8.08049633 79.044903,8.08049633 L140.577112,8.08049633 C141.153231,8.08049633 141.657335,8.14700248 141.706845,8.22852613 L142.575525,9.71955095 C142.629536,9.80536532 142.188445,9.87616219 141.594322,9.87616219 Z" id="Path" fill="#6D6E71"></path>
                </g>
                <rect id="Rectangle" fill="#FFFFFF" x="31.0871083" y="0.543811441" width="157.376644" height="101.455121" rx="6"></rect>
                <path d="M64.5501147,-27.5 L155.005235,-27.5 C158.042801,-27.5 160.505235,-25.0375661 160.505235,-22 L160.505235,123.501257 C160.505235,126.538823 158.042801,129.001257 155.005235,129.001257 L64.5501147,129.001257 C61.5125486,129.001257 59.0501147,126.538823 59.0501147,123.501257 L59.0501147,-22 C59.0501147,-25.0375661 61.5125486,-27.5 64.5501147,-27.5 Z" id="Rectangle" fill="#6D6E71" transform="translate(109.777675, 50.750629) rotate(90.000000) translate(-109.777675, -50.750629) "></path>
                <rect id="Rectangle" fill="#F4F6F9" x="38.0408243" y="7.53344077" width="143.464723" height="85.7430444"></rect>
                <g id="Asset-1" transform="translate(189.094716, 61.776298)">
                    <path d="M4.30734504,1.28819967 L3.00556586,5.25046382 L27.2912801,5.25046382 L26.0010895,1.28819967 C26.0010895,1.28819967 14.5477504,0.560436868 4.30734504,1.28819967 Z" id="Path" fill="#F7F0E9"></path>
                    <path d="M25.9723487,2.39332096 L27.2912801,5.25046382 L3.00556586,4.05836794 C3.00556586,4.05836794 24.775833,4.75159761 25.9723487,2.39332096 Z" id="Path" fill="#D8CEB5" style="mix-blend-mode: multiply;"></path>
                    <polygon id="Path" fill="#321F14" points="27.2912801 15.4990061 26.887753 15.0019215 1.96899221 15.0019215 1.57699443 15.4990061"></polygon>
                    <path d="M23.4127615,43.1646721 L28.7198516,6.67903525 L0.148423006,6.67903525 L5.45551307,43.1646721 C5.45551307,43.1646721 16.3485943,44.6434178 23.4127615,43.1646721 Z" id="Path" fill="#F7F0E9"></path>
                    <path d="M23.5394046,43.8165535 L28.7198516,6.67903525 L0.148423006,6.67903525 L0.661729489,7.24730993 C0.661729489,7.24730993 23.7131391,7.50840911 25.5373514,8.57584398 C28.2302362,10.180836 22.5562253,44.311874 23.5394046,43.8165535 Z" id="Path" fill="#D8CEB5" style="mix-blend-mode: multiply;"></path>
                    <rect id="Rectangle" fill="#FFFFFF" x="0.148423006" y="3.82189239" width="28.5714286" height="2.85714286"></rect>
                    <polygon id="Path" fill="#5F4337" points="25.3159188 30.9647495 3.54851268 30.9647495 1.57699443 16.6790353 27.2912801 16.6790353"></polygon>
                    <path d="M17.4514225,24.8127312 C18.8598901,22.2091517 19.637241,19.0136677 16.8126093,17.1619668 C16.8126093,17.1619668 14.1188188,15.3542587 11.1787389,18.7337129 C8.88901704,21.3652879 7.80765258,24.4127958 9.66251973,26.7724147 C11.9022141,29.6119562 16.0391066,27.4283088 17.4514225,24.8127312 Z M13.0489992,24.4127958 C11.151801,25.7645775 10.6900084,27.3123275 10.6900084,27.3123275 C10.4321742,25.4366304 11.194132,24.4047971 13.8340467,22.2731413 C16.4739614,20.1414856 16.6009543,17.5179093 16.6009543,17.5179093 C18.0094219,21.0373409 14.9461973,23.0570147 13.0489992,24.4127958 Z" id="Shape" fill="#E58E1A"></path>
                    <path d="M3.00556586,8.10760668 C3.00556586,8.10760668 4.89914209,8.25745683 7.96036657,8.27282608 L10.148423,43.8218924 C9.15911797,43.7728099 8.17340322,43.6560429 7.19677255,43.472242 L3.00556586,8.10760668 Z" id="Path" fill="#FFFFFF" style="mix-blend-mode: soft-light;"></path>
                </g>
                <g id="gears" transform="translate(49.500000, 19.250000)">
                    <path d="M54.9995804,27.3602677 C55.0742721,42.3300934 43.0535125,54.6802521 28.0866242,54.9937057 C26.0191727,55.0369263 24.0029144,54.8506165 22.0600891,54.4603729 C21.0991668,54.2673493 20.4101563,53.4180451 20.4101563,52.4374008 C20.4101563,51.361084 19.5373535,50.4882812 18.460617,50.4882812 L12.9946899,50.4882812 C12.6036072,50.4882812 12.221756,50.3695297 11.89991,50.1475525 C9.05700684,48.1858444 6.60140991,45.703392 4.67159269,42.8369904 C4.42611694,42.472763 4.296875,42.0422363 4.296875,41.602478 L4.296875,35.6921768 C4.296875,34.3716431 3.22601318,33.3007812 1.9054794,33.3007812 C1.14051824,33.3007812 0.490951484,32.7447892 0.366325352,31.9898987 C0.12588501,30.5287933 5.68434189e-14,29.0290833 5.68434189e-14,27.5 C5.68434189e-14,12.3119735 12.3119735,0 27.5,0 C42.6410294,0 54.924469,12.2364425 54.9995804,27.3602677 Z" id="Path" fill="#F4F6F9"></path>
                    <path d="M22.9022599,5.62999723 C22.9727555,5.40298462 23.0415726,5.18939975 23.0873108,5.05973811 C23.7247086,3.24951172 24.589119,1.57691961 25.6385803,0.0642013281 C26.2537385,0.0230789453 26.8743515,0 27.5,0 C27.7072907,0 27.9141617,0.00335693359 28.1201935,0.00797272266 C26.7732239,1.66168213 25.6847381,3.56506348 24.9369812,5.67573553 C24.8941804,5.79658514 24.8299789,5.99716187 24.7628402,6.21200562 C24.6046448,6.71890259 24.0687943,7.00592041 23.55896,6.85695646 C23.0356979,6.70379639 22.7398682,6.15116122 22.9022599,5.62999723 Z M54.9928665,26.9192505 C50.294838,30.7348251 43.8629532,32.2475433 37.5733185,30.4062653 C32.8178024,29.0143966 29.0164948,25.9339905 26.6276169,22.0105744 L27.5675583,21.4957047 C27.8784943,21.3249207 27.8608704,20.8721542 27.5369263,20.7265472 L24.4984818,19.362793 C24.2383194,19.2461395 23.938713,19.4102096 23.8971711,19.6921921 L23.4112549,22.9870224 C23.3592224,23.3382415 23.7314225,23.5971451 24.042778,23.4267807 L24.91642,22.947998 C27.5482559,27.3120117 31.7603683,30.7394409 37.0374679,32.280693 C43.3808137,34.1337204 49.8945236,32.8635407 54.9353791,29.3740081 C54.9769211,28.754654 55,28.1298446 55,27.5 C55,27.3057174 54.9966431,27.1122742 54.9928665,26.9192505 L54.9928665,26.9192505 Z M29.3580627,50.3556824 C28.8494873,50.2021027 28.3115387,50.4840851 28.1483078,50.9897232 C28.079071,51.2037277 28.0127717,51.4038849 27.9691315,51.5243149 C27.5230789,52.7474976 26.9616317,53.8993454 26.3028336,54.9723054 C26.6997909,54.9895096 27.0988464,55 27.5,55 C27.8516388,55 28.2015991,54.9911881 28.549881,54.9781799 C29.0332795,54.0814591 29.4566727,53.1402588 29.8133468,52.1575164 C29.8603439,52.0278549 29.9308395,51.8151092 30.0034333,51.5885163 C30.1704407,51.0694504 29.8800659,50.5134583 29.3580627,50.3556824 L29.3580627,50.3556824 Z M29.1386032,37.517929 L29.6551514,34.2277145 C29.7101212,33.876915 29.3404388,33.6146545 29.0278244,33.7825012 L28.1495667,34.2528915 C25.5580139,29.8649597 21.378212,26.3989258 16.1153793,24.8085784 C10.5269242,23.1200408 4.78321078,23.866539 0.0226593555,26.4371109 C0.00923156738,26.789589 0,27.1437454 0,27.5 C0,27.8889847 0.0100708008,28.2754517 0.0260162891,28.6606598 C4.50584406,25.9121704 10.0997543,25.0238419 15.5623246,26.6779709 C20.3044128,28.1138993 24.0771866,31.228714 26.4295578,35.1743698 L25.4850007,35.6808472 C25.1719666,35.8482743 25.1858139,36.3014603 25.5084992,36.4500046 L28.5343551,37.8418732 C28.7932586,37.9610443 29.0941239,37.7994919 29.1386032,37.517929 L29.1386032,37.517929 Z M29.8074723,39.2626953 C29.3106461,39.1128922 28.7865447,39.3936157 28.636322,39.8904419 C28.4860993,40.3872681 28.7672424,40.9117889 29.2640686,41.0615921 C29.7608948,41.2118149 30.284996,40.9306717 30.4352188,40.4338455 C30.5854416,39.937439 30.3042984,39.4129181 29.8074723,39.2626953 Z M29.3685531,42.9519653 C29.1868591,43.4383011 29.4335938,43.9796066 29.9195099,44.1613006 C30.405426,44.3429947 30.9471512,44.0966797 31.1288452,43.6103439 C31.3105392,43.1244278 31.0638046,42.5831222 30.5778885,42.4014282 C30.0919723,42.2193146 29.5506668,42.4660491 29.3685531,42.9519653 L29.3685531,42.9519653 Z M30.6538391,45.0269699 C30.167923,44.8452759 29.6266174,45.0920105 29.4449234,45.5779266 C29.2628097,46.0638428 29.5095443,46.605568 29.9954605,46.787262 C30.4817962,46.968956 31.0231018,46.7222213 31.2047958,46.2363053 C31.3864899,45.7503891 31.1401749,45.2090836 30.6538391,45.0269699 Z M30.3542327,47.767067 C29.8683167,47.5849533 29.3265915,47.8316879 29.1448975,48.3176041 C28.9632035,48.8035202 29.2099381,49.3452454 29.6958542,49.5269394 C30.1817704,49.7086335 30.7234954,49.4618987 30.9051895,48.9759827 C31.0868835,48.4900666 30.8401489,47.948761 30.3542327,47.767067 L30.3542327,47.767067 Z M23.2123566,17.95372 C23.7104416,18.0989075 24.2320251,17.8131485 24.3776322,17.3150635 C24.5228195,16.8169784 24.2370605,16.2949753 23.7389755,16.1497879 C23.2408904,16.0041809 22.719307,16.2899399 22.5737,16.7880249 C22.4280929,17.28611 22.7138519,17.8081131 23.2123566,17.95372 Z M23.616867,14.2602539 C23.7939453,13.7726594 23.5421753,13.2334518 23.0545807,13.0563736 C22.5669861,12.8788757 22.0277787,13.1306458 21.8507004,13.6182404 C21.6732025,14.105835 21.9249725,14.6450424 22.4125671,14.8221207 C22.9001618,14.9996185 23.4393692,14.7482682 23.616867,14.2602539 Z M22.3122787,12.1974182 C22.7998734,12.3744964 23.3390808,12.1231461 23.5165787,11.6351318 C23.6936569,11.1475373 23.4423065,10.6083297 22.9542923,10.4312516 C22.4666977,10.2541733 21.9274902,10.5055237 21.7504119,10.9931183 C21.5729142,11.4811325 21.8246842,12.0199203 22.3122787,12.1974182 Z M22.5867081,9.45480347 C23.0747223,9.63230136 23.6135101,9.38053134 23.791008,8.89293668 C23.9680863,8.40534213 23.7167358,7.86613459 23.2287216,7.68863681 C22.741127,7.51155851 22.2019196,7.76332853 22.0248413,8.25092318 C21.8473434,8.73851773 22.0991134,9.27772527 22.5867081,9.45480347 Z" id="Shape" fill="#A4A7B5"></path>
                    <path d="M22.2111511,54.4897461 C18.3947372,53.7461853 14.861145,52.2141647 11.7857743,50.0686646 C13.3681488,49.521904 14.6748352,48.2504654 15.1959992,46.5254211 C16.0587311,43.6699295 14.4432068,40.6554032 11.5877152,39.7922516 C8.79978183,38.9500809 5.86204523,40.4699325 4.92084506,43.1991195 C2.61295321,39.8858261 1.01547241,36.0408782 0.349540684,31.8845749 C0.681877109,31.9584274 1.00288396,32.104454 1.28654475,32.325592 L2.08339688,32.9453659 C2.79884344,32.4732971 3.55457309,32.0662689 4.34177401,31.7276383 L4.24442294,30.7784652 C4.12315363,29.5980835 4.89734652,28.5116959 6.05255127,28.2406234 C7.1834183,27.9758454 8.33904264,28.5733796 8.77628329,29.6492767 L9.1547775,30.5812454 C10.0015641,30.5296326 10.8600998,30.5531311 11.7219925,30.6563568 L12.1109772,29.7881698 C12.596054,28.7055587 13.8100052,28.1516647 14.9459075,28.4949112 C16.0578918,28.8310242 16.759491,29.9262238 16.6000366,31.0763932 L16.4619828,32.0750809 C17.2391129,32.4619674 17.9696655,32.9130554 18.649025,33.4207917 L19.418602,32.8643799 C20.3803634,32.169075 21.7084504,32.2966385 22.5208283,33.1614685 C23.3155823,34.0082551 23.3755875,35.3078079 22.6626587,36.2246704 L22.0424652,37.0215225 C22.514534,37.7365494 22.9219818,38.4922791 23.2606125,39.27948 L24.2097855,39.1821289 C25.3901672,39.0608597 26.4765548,39.8354721 26.7472077,40.9906769 C27.0124054,42.1211243 26.4148713,43.2767487 25.3385544,43.7139893 L24.4070053,44.0924836 C24.4581986,44.93927 24.4347,45.7978058 24.3314743,46.6596985 L25.1996613,47.0486832 C26.2822723,47.5341797 26.8361663,48.7481308 26.4929199,49.8836136 C26.1572266,50.9955978 25.062027,51.6971969 23.911438,51.5381623 L22.9131698,51.3996887 C22.5258636,52.1768188 22.0747757,52.9073715 21.5674592,53.586731 L22.1238708,54.3567276 C22.1553421,54.4003678 22.1830368,54.4452668 22.2111511,54.4897461 L22.2111511,54.4897461 Z" id="Path" fill="#FDBF43"></path>
                    <path d="M15.1959992,46.5254211 C16.0591507,43.6695099 14.4436264,40.6549836 11.5877152,39.7922516 C8.80020142,38.9500809 5.86204523,40.4699325 4.92084506,43.1991195 C4.02118686,41.9075394 3.22978971,40.5353927 2.55882258,39.0948486 C4.90447998,36.1122131 8.91979215,34.7111129 12.7714539,35.8751297 C17.7909089,37.3916244 20.6300354,42.6901245 19.1135407,47.7091598 C18.5264969,49.6528244 17.3717118,51.2687683 15.8866882,52.4323654 C14.447403,51.7609787 13.0765152,50.9691619 11.7861938,50.0686646 C13.3681488,49.521904 14.6748352,48.2504654 15.1959992,46.5254211 Z" id="Path" fill="#FDA800"></path>
                    <path d="M4.17728427,42.0711899 C3.57975009,41.1165618 3.0380249,40.1233292 2.55882258,39.0948486 C4.32498935,36.8490601 7.03739169,35.5008316 9.91386408,35.4676819 C7.31266024,36.4982605 5.18939975,38.6634827 4.3170166,41.5504456 C4.26456454,41.7237472 4.21924594,41.8974686 4.17728427,42.0711899 Z" id="Path" fill="#FC9302"></path>
                    <path d="M30.6307602,0.17833707 C30.1528167,0.976867676 30.1800919,2.00786588 30.755806,2.78919223 L31.3193512,3.5537338 C30.8179093,4.23770907 30.3735352,4.97287753 29.9937821,5.75336459 L28.994255,5.62412265 C27.8424072,5.47557828 26.7535019,6.18766779 26.4278793,7.30216975 C26.0955429,8.44142911 26.660347,9.64992521 27.7475739,10.1253509 L28.6195374,10.506363 C28.5238647,11.3690949 28.508339,12.2276306 28.5675049,13.0739975 L27.6393127,13.4613037 C26.5676116,13.9086151 25.980568,15.0692749 26.2562561,16.1976242 C26.5373992,17.3503113 27.63134,18.1144333 28.810463,17.9826737 L29.7587967,17.876091 C30.1041413,18.6603547 30.5187225,19.4123078 30.9975052,20.1231384 L30.3848648,20.9254456 C29.6803284,21.8486023 29.7525024,23.1477356 30.5548096,23.986969 C31.3751602,24.8446655 32.7045059,24.9596404 33.6595536,24.2555237 L34.4240951,23.6919784 C35.1080704,24.1934204 35.8428192,24.6377945 36.6233063,25.0175476 L36.494484,26.0170745 C36.3459396,27.169342 37.0576095,28.2578278 38.1725311,28.5834504 C39.3113708,28.9162064 40.5202865,28.3509827 40.9957122,27.2637558 L41.3767243,26.3922119 C42.2394562,26.4874649 43.0979919,26.5029907 43.9443588,26.4438248 L44.331665,27.3720169 C44.7785568,28.4437179 45.9396362,29.0307617 47.0679855,28.7554932 C48.2206726,28.4739303 48.9847946,27.3804093 48.853035,26.2012863 L48.7464523,25.2529525 C49.530716,24.9071884 50.2826691,24.4926071 50.9934998,24.0142441 L51.7958069,24.6268844 C52.7109909,25.3251266 53.9941788,25.2592468 54.8338318,24.4770813 C53.4411239,11.7408752 43.3522796,1.62055975 30.6307602,0.17833707 Z M48.1258392,13.5850907 C47.2895431,16.4489746 44.290123,18.0921936 41.426239,17.2558975 C38.5627747,16.4191818 36.9191361,13.4197616 37.7558517,10.5558777 C38.5921478,7.69241333 41.5919876,6.04919434 44.455452,6.88549039 C47.3189163,7.72220614 48.9625549,10.7216263 48.1258392,13.5850907 Z" id="Shape" fill="#159ED9"></path>
                    <path d="M40.0519943,3.02585604 C37.1499252,3.95572665 34.7463608,6.26319891 33.8278198,9.40864568 C32.3574829,14.4419479 35.2457047,19.7135925 40.279007,21.1839294 C45.2342606,22.6311874 50.420723,19.8541642 51.9829559,14.9647904 C49.3561554,9.84420776 45.1704788,5.65601352 40.0519943,3.02585604 L40.0519943,3.02585604 Z M46.8472672,13.2116317 C46.2170028,15.3688812 43.9573669,16.6071701 41.7996979,15.9769058 C39.6424484,15.3466415 38.4045792,13.0870056 39.0348434,10.9293366 C39.6646882,8.77208707 41.9247437,7.53421786 44.0819931,8.16448209 C46.2392425,8.79432684 47.4771118,11.0543823 46.8472672,13.2116317 L46.8472672,13.2116317 Z" id="Shape" fill="#01B6F5"></path>
                    <path d="M44.1268921,21.491928 C42.873497,21.6505432 41.5684891,21.5607453 40.279007,21.1839294 C35.2457047,19.7135925 32.3574829,14.4415283 33.8278198,9.40864568 C34.7463608,6.26319891 37.1499252,3.95530695 40.0519943,3.02585604 C40.3948211,3.20167547 40.7326126,3.38504794 41.0666275,3.57513428 C38.783493,4.71481323 36.9627762,6.76548007 36.1911011,9.40864568 C34.7207642,14.4415283 37.6089859,19.7135925 42.6422883,21.1835099 C43.1361771,21.3282776 43.632164,21.4298249 44.1268921,21.491928 Z" id="Path" fill="#009BD1"></path>
                    <path d="M18.7577057,12.766838 C18.7589645,12.3048401 18.7178421,11.8491364 18.6376953,11.4043426 L19.1068268,11.1462784 C19.6485519,10.8479309 19.8923493,10.1996231 19.6821213,9.61803434 C19.4668579,9.02385709 18.8437271,8.68228915 18.2273102,8.81992343 L17.7313232,8.93070224 C17.5034713,8.53542325 17.2407913,8.16112516 16.94664,7.81242365 L17.2248459,7.35210416 C17.5445938,6.82296753 17.431717,6.13941195 16.9588089,5.74119562 C16.4754105,5.33458707 15.7649993,5.35011297 15.2996444,5.77728271 L14.9274445,6.11968994 C14.5363616,5.89351651 14.1217804,5.70049283 13.6866379,5.54439542 L13.6975479,5.00770574 C13.7101364,4.38919067 13.2707977,3.85375977 12.6619339,3.74549871 C12.0396423,3.63513949 11.4324569,4.0035629 11.2432098,4.60655207 L11.0917282,5.08995051 C10.6293106,5.08911133 10.1740265,5.12981412 9.72923273,5.20996094 L9.47074885,4.74082941 C9.17240146,4.19910434 8.52409357,3.95530695 7.94292447,4.165535 C7.34874723,4.38079834 7.00675959,5.00392911 7.14481356,5.62034602 L7.25517268,6.11633301 C6.86031339,6.3441849 6.48601529,6.6068649 6.13731379,6.90101629 L5.6769943,6.62281039 C5.14785767,6.30306241 4.46430209,6.41593928 4.06608576,6.88884732 C3.65905762,7.37224576 3.67458341,8.08265691 4.10217285,8.54759211 L4.44458008,8.92021174 C4.21840665,9.31129461 4.02538297,9.72545621 3.86928556,10.1605988 L3.33259588,10.1496887 C2.71408081,10.1375199 2.1786499,10.5768586 2.07038885,11.1857223 C1.95961004,11.8080139 2.32845304,12.4151993 2.93102262,12.6044465 L3.41442105,12.7559281 C3.41358188,13.2183456 3.45470426,13.6736297 3.53485107,14.1184235 L3.06571955,14.3764877 C2.52399447,14.6748352 2.2797775,15.323143 2.49042514,15.9047318 C2.70568848,16.498909 3.32839966,16.840477 3.94523615,16.7028427 L4.44122314,16.5920639 C4.66907504,16.9873429 4.93175504,17.361641 5.22590643,17.7103425 L4.94770053,18.1702424 C4.62753296,18.6997986 4.74082941,19.3829346 5.21373746,19.7811508 C5.6971359,20.188179 6.40754705,20.1726531 6.87248225,19.7450638 L7.24510188,19.4030762 C7.63618475,19.6292496 8.05076594,19.8222733 8.48548895,19.9783707 L8.47457886,20.5150604 C8.46241,21.1331558 8.90174871,21.6690063 9.51061246,21.7772674 C10.1324845,21.8876266 10.7400894,21.5192032 10.9293366,20.916214 L11.0808182,20.4328156 C11.5428162,20.4336548 11.9985198,20.392952 12.4433137,20.3128052 L12.7013778,20.7819367 C12.9997253,21.3236618 13.6480331,21.5674592 14.2296219,21.3568115 C14.8233796,21.1419678 15.1653671,20.518837 15.0277328,19.9024201 L14.916954,19.4064331 C15.3118133,19.1781616 15.6865311,18.9159012 16.0352326,18.6217498 L16.4951325,18.8995361 C17.0246887,19.2197037 17.7078247,19.1068268 18.1060409,18.6339188 C18.5130692,18.1505204 18.4975433,17.4401092 18.0699539,16.9747543 L17.7279663,16.6025544 C17.9541397,16.2114715 18.1471634,15.7968903 18.3032608,15.3617477 L18.8399505,15.3726578 C19.458046,15.3852462 19.9934769,14.9459075 20.1021575,14.3370438 C20.2125168,13.7147522 19.8440933,13.1075668 19.2411042,12.9183196 L18.7577057,12.766838 Z M13.9182663,13.2653427 C13.6400604,14.8292542 12.1462249,15.871582 10.5823136,15.5933761 C9.0184021,15.3151702 7.97607422,13.8217545 8.25428012,12.2574234 C8.53248602,10.693512 10.0263215,9.65118408 11.5902328,9.92938998 C13.1541443,10.2075959 14.1964722,11.7014313 13.9182663,13.2653427 Z" id="Shape" fill="#0ED1B2"></path>
                    <path d="M12.0241165,7.4914169 C9.11365512,6.97360995 6.3341141,8.91307828 5.81630704,11.8235397 C5.29850009,14.7340011 7.23796842,17.5135421 10.1484298,18.0313492 C13.0588913,18.5491562 15.8384323,16.6096878 16.3562393,13.6992264 C16.8740463,10.788765 14.934578,8.00922396 12.0241165,7.4914169 Z M14.6974945,13.4038162 C14.3424988,15.398674 12.4382781,16.7276001 10.44384,16.3726043 C8.44898227,16.0176086 7.12005615,14.113388 7.47505193,12.1189499 C7.83004761,10.1245117 9.73426824,8.79516602 11.7287064,9.1501618 C13.7235641,9.50515747 15.0524902,11.4093781 14.6974945,13.4038162 Z" id="Shape" fill="#0AB59E"></path>
                    <path d="M11.9338989,18.046875 C11.3573455,18.1391907 10.7560348,18.1396103 10.1484298,18.0313492 C7.23796842,17.5135421 5.29850009,14.7340011 5.81630704,11.8235397 C6.32823941,8.94664762 9.04987338,7.02018732 11.9238281,7.4763107 C9.73720548,7.82669067 7.9110336,9.52068326 7.50106812,11.8235397 C7.4511337,12.1063614 7.42469793,12.3875046 7.41924283,12.6657104 C7.41756437,12.734108 7.41756437,12.8025055 7.41924283,12.8700638 C7.46749878,15.373497 9.27520752,17.5760651 11.8336105,18.0313492 C11.8671798,18.0372238 11.9003296,18.04142 11.9338989,18.046875 Z" id="Path" fill="#01988C"></path>
                    <path d="M48.583641,45.1541138 C48.0503083,44.2452239 47.1380615,43.5662842 46.0193635,43.3673859 C43.9905167,43.0060959 42.0531463,44.3581009 41.6918564,46.3869476 C41.4312744,47.8518295 42.0636368,49.2684555 43.1987,50.0791549 C41.4363098,51.3069535 39.5241165,52.3341751 37.4940109,53.1264115 C37.2200012,52.7718353 36.9699097,52.3987961 36.7454147,52.010231 L36.1021423,52.1537399 C35.3023529,52.3324967 34.4941711,51.8889617 34.2151261,51.1181259 C33.9419556,50.3640747 34.2583465,49.5231628 34.9612045,49.1358566 L35.5696488,48.8010025 C35.4660034,48.2240295 35.4127121,47.6332092 35.4139709,47.033577 L34.786644,46.8371964 C34.0048981,46.5917205 33.526535,45.8036804 33.6700439,44.9967575 C33.8106156,44.2070389 34.5055008,43.6367798 35.3073884,43.6531449 L36.0035324,43.6669922 C36.2062073,43.1030273 36.4567184,42.5650788 36.7496109,42.0577621 L36.3056564,41.5747834 C35.7513428,40.9713745 35.7312012,40.0498962 36.2590789,39.4229889 C36.7756271,38.8090897 37.6622772,38.6626434 38.3487702,39.0776444 L38.9454651,39.4385147 C39.3978118,39.0570832 39.883728,38.7163543 40.39608,38.4205246 L40.2525711,37.7772522 C40.0742341,36.9774627 40.5173493,36.169281 41.2881851,35.8902359 C42.0422363,35.6170654 42.8831482,35.9334564 43.2704544,36.6363144 L43.6053085,37.2447586 C44.1822815,37.1411133 44.7731018,37.0878219 45.372734,37.0890808 L45.5695344,36.4617538 C45.8145905,35.680008 46.6026306,35.2016448 47.4095536,35.3451538 C48.1992721,35.4857254 48.7695312,36.1806107 48.7531662,36.9824982 L48.7393188,37.6786422 C49.3037033,37.8813171 49.8412322,38.1318283 50.3485489,38.4251404 L50.8315277,37.9811859 C51.4269638,37.4340057 52.3308182,37.4079895 52.9573059,37.9140472 C51.8742752,40.5588913 50.3917694,42.9972839 48.583641,45.1541138 L48.583641,45.1541138 Z" id="Path" fill="#7ECD00"></path>
                    <path d="M50.2923202,42.8865051 C49.7610855,43.6720276 49.191246,44.4290161 48.5840607,45.1541138 C48.0503083,44.2452239 47.1380615,43.5662842 46.0193635,43.3669662 C43.9905167,43.0060959 42.0531463,44.3581009 41.6918564,46.3869476 C41.4312744,47.8518295 42.0636368,49.2684555 43.1991195,50.0791549 C42.440033,50.607872 41.6519929,51.0967254 40.8400345,51.5482331 C39.5106888,50.3678512 38.671875,48.6465836 38.671875,46.7285156 C38.671875,43.1689071 41.557579,40.2832031 45.1171875,40.2832031 C47.2370911,40.2832031 49.1173935,41.3070679 50.2923202,42.8865051 L50.2923202,42.8865051 Z" id="Path" fill="#6BAE01"></path>
                    <path d="M42.0116043,50.859642 C41.6272354,51.0979843 41.2365723,51.3279342 40.8400345,51.5482331 C39.5106888,50.3678512 38.671875,48.6465836 38.671875,46.7285156 C38.671875,43.1689071 41.557579,40.2832031 45.1171875,40.2832031 C45.4281234,40.2832031 45.7327652,40.3075408 46.0319519,40.3503418 C42.9104233,40.798912 40.511055,43.4827804 40.511055,46.7285156 C40.511055,48.301239 41.075859,49.7409439 42.0116043,50.859642 L42.0116043,50.859642 Z" id="Path" fill="#5A9001"></path>
                </g>
                <g id="GUS-github-logo" transform="translate(122.375000, 41.250000)">
                    <g id="Untitled-2">
                        <path d="M27.9342231,4.38091477 L27.9342231,3.57232056 C27.923846,3.21476168 28.1086743,2.87983179 28.4167155,2.69798949 C28.7247567,2.51614715 29.1073002,2.51614715 29.4153414,2.69798949 C29.7233826,2.87983179 29.908211,3.21476168 29.8978338,3.57232056 L29.8978338,6.62315156 C29.897834,7.1652933 29.4585834,7.60491398 28.9164419,7.60537031 L25.8672644,7.60537031 C25.3248,7.60537031 24.8850457,7.16561598 24.8850457,6.62315156 C24.8850457,6.08068714 25.3248,5.64093281 25.8672644,5.64093281 L26.3939255,5.64093281 C20.6328983,0.633932082 11.8665131,0.868738584 6.38576549,6.34783268 C2.3250372,10.4182036 1.0065667,16.4806491 3.01000858,21.8698655 C3.18948379,22.3753846 2.93018238,22.9313981 2.4275523,23.1188118 C1.92492226,23.3062255 1.36489432,23.0557122 1.16958858,22.5560958 C-1.51838053,15.3643612 1.06010744,7.26706925 7.41168725,2.95387331 C13.7632671,-1.35932264 22.2407223,-0.769839938 27.9342231,4.38091477 Z" id="Shape" fill="#159ED9"></path>
                        <path d="M20.6414045,30.8882423 C20.7169642,31.5519512 20.8580728,32.1957649 21.0580978,32.8130511 C19.674801,33.1821253 18.2347832,33.3750831 16.7701659,33.3753843 C12.7173009,33.3864986 8.80171899,31.9075992 5.76815823,29.2199706 L5.76815823,29.8813974 C5.76815823,30.4238618 5.3284039,30.8636162 4.78593948,30.8636162 C4.24347502,30.8636162 3.80372069,30.4238618 3.80372069,29.8813974 L3.80372069,26.8297396 C3.80372069,26.2872751 4.24347502,25.8475208 4.78593948,25.8475208 L7.83511692,25.8475208 C8.09561753,25.8475208 8.34544873,25.9510043 8.52965045,26.1352061 C8.71385222,26.3194078 8.81733567,26.569239 8.81733567,26.8297396 C8.81733567,27.372204 8.37758134,27.8119584 7.83511692,27.8119584 L7.14144559,27.8119584 C10.9362749,31.1133727 16.0365489,32.1389582 20.6414045,30.8882423 Z M31.1294409,19.8627047 C31.6894849,17.2948085 31.5520544,14.5713849 30.6559943,11.9567317 C30.5422725,11.6247232 30.6143137,11.2572647 30.8449806,10.9927745 C31.0756476,10.7282842 31.4298965,10.6069445 31.7742853,10.6744628 C32.118674,10.7419812 32.4008817,10.9880999 32.5146035,11.3201085 C33.5064508,14.2096547 33.670752,17.2702801 33.0547756,20.1775089 C32.4348336,20.0118828 31.7909567,19.9048495 31.1294409,19.8627047 Z" id="Combined-Shape" fill="#159ED9"></path>
                        <g id="Group" transform="translate(20.577297, 19.842386)" fill="#061C3F">
                            <g id="Group-23" transform="translate(2.840828, 2.998743)">
                                <g id="github">
                                    <path d="M7.10944907,0.00931992492 C3.18365377,0.00931992492 0,3.26908406 0,7.2903059 C0,10.5065581 2.0371118,13.2351149 4.86347109,14.1987215 C5.21898797,14.2658023 5.34875166,14.040991 5.34875166,13.847907 C5.34875166,13.674766 5.3425301,13.2169849 5.33897492,12.6096318 C3.36141222,13.0492829 2.94367987,11.6333342 2.94367987,11.6333342 C2.62104829,10.7921048 2.15443237,10.5682 2.15443237,10.5682 C1.50828042,10.1167643 2.20242715,10.1258293 2.20242715,10.1258293 C2.91612731,10.1774997 3.29119763,10.876409 3.29119763,10.876409 C3.92579529,11.9886812 4.9559055,11.6677811 5.36119474,11.4810427 C5.42518777,11.0105706 5.60916779,10.6896706 5.8127012,10.5074647 C4.23420617,10.3234457 2.5739423,9.69886908 2.5739423,6.90957702 C2.5739423,6.11457893 2.85124548,5.4646204 3.3063071,4.95516896 C3.23253734,4.77115001 2.98900827,4.03054176 3.37563289,3.02886229 C3.37563289,3.02886229 3.97290128,2.83305888 5.33097581,3.77490953 C5.89802525,3.61355301 6.50595915,3.53287476 7.11122666,3.53015527 C7.71471659,3.53378125 8.32353924,3.61355301 8.89147747,3.77581603 C10.2486632,2.83396538 10.8450428,3.02976878 10.8450428,3.02976878 C11.2325562,4.03235475 10.9890272,4.77205652 10.9161462,4.95607544 C11.3720966,5.46552692 11.6467334,6.11548545 11.6467334,6.91048354 C11.6467334,9.70702758 9.98469193,10.3225392 8.40086418,10.5029321 C8.65594754,10.7277435 8.88347836,11.1719272 8.88347836,11.8508936 C8.88347836,12.8244716 8.87459042,13.6094983 8.87459042,13.847907 C8.87459042,14.042804 9.00257652,14.2694283 9.36342616,14.197815 C12.1853415,13.2333019 14.2206757,10.5056517 14.2206757,7.2903059 C14.2206757,3.26908406 11.0370219,0.00931992492 7.10944907,0.00931992492 Z" id="Shape"></path>
                                </g>
                            </g>
                        </g>
                        <path d="M6.92317475,17.0530251 C6.92317475,16.3320698 7.06097199,15.6982025 7.33656647,15.151423 C7.60144498,14.6176002 8.019773,14.175088 8.53788286,13.8806569 C9.06481955,13.5791565 9.69455294,13.4284063 10.4270831,13.4284063 C10.8916826,13.4257188 11.3531452,13.5046348 11.790449,13.6615592 C12.1861551,13.7977692 12.5481254,14.017094 12.852039,14.3047968 L12.1310838,15.1224856 C11.6674254,14.7341378 11.082323,14.5205754 10.4775169,14.5189337 C9.71797846,14.5189337 9.15328535,14.7476771 8.78343754,15.205164 C8.41358976,15.6626508 8.22839025,16.2777777 8.22783905,17.0505447 C8.22783905,18.7702543 8.97194417,19.6301091 10.4601544,19.6301091 C10.9354016,19.6310337 11.4058228,19.5348112 11.8425364,19.3473492 L11.8425364,17.8095319 L10.4279099,17.8095319 L10.4279099,16.8380613 L13.0182225,16.8380613 L13.0182225,20.0410205 C12.2295056,20.4786212 11.3405882,20.7036997 10.4386581,20.6941794 C9.67911964,20.6941794 9.0364333,20.5415001 8.51059902,20.2361414 C7.99424678,19.9413682 7.57985207,19.4964057 7.32251117,18.9604145 C7.05628686,18.4152886 6.92317475,17.7794921 6.92317475,17.0530251 Z" id="Shape" fill="#081D3E"></path>
                        <path d="M14.4204473,18.0162278 L14.4204392,13.6152594 L15.6953474,13.6152594 L15.6953474,17.9145334 C15.6953474,18.473439 15.8204673,18.8920671 16.0707071,19.1704175 C16.3209469,19.4487679 16.7343386,19.5884943 17.3108823,19.5895967 C17.8885283,19.5895967 18.3019201,19.4498703 18.5510575,19.1704175 C18.8001949,18.8909647 18.9250392,18.4723367 18.9255904,17.9145334 L18.9255904,13.6152594 L20.2013173,13.6152594 L20.2013173,18.0162278 C20.2013173,18.8606493 19.9480459,19.5179422 19.4415033,19.9881064 C18.9349606,20.4582706 18.2242024,20.6936283 17.3092287,20.6941794 C16.3937038,20.6941794 15.6829456,20.4588218 15.1769541,19.9881064 C14.6709627,19.517391 14.4187937,18.8600981 14.4204473,18.0162278 Z" id="Shape" fill="#081D3E"></path>
                        <path d="M21.157079,19.8855852 L21.7705523,19.0778178 C22.0200705,19.2637242 22.2997568,19.4052455 22.5973358,19.4961702 C22.8993129,19.5832626 23.2123715,19.6258765 23.5266404,19.6226681 C23.9290084,19.6226681 24.2520051,19.5383362 24.4956306,19.3696723 C24.7392562,19.2010085 24.8610689,18.9480128 24.8610689,18.6106851 C24.8722501,18.3998672 24.8103395,18.1916491 24.6857908,18.0211885 C24.5512405,17.8625376 24.3789439,17.7402809 24.1847601,17.6656716 C23.8905217,17.5503044 23.5895741,17.4528416 23.2835661,17.373817 C22.6612737,17.2117675 22.1891804,16.9731027 21.867286,16.6578226 C21.5453916,16.3425425 21.38472,15.9192293 21.3852712,15.3878832 C21.3747823,15.0116149 21.4877391,14.6422549 21.70689,14.3362145 C21.9291043,14.0382429 22.2308578,13.8089905 22.577493,13.6747878 C22.972503,13.5205957 23.393676,13.4445037 23.8176682,13.4507295 C24.6152419,13.4358783 25.3969229,13.6747253 26.0499836,14.1328258 L25.4712351,14.9596093 C25.2223759,14.8017079 24.9538552,14.6771766 24.6725623,14.5892103 C24.4041273,14.510241 24.1255836,14.4709663 23.8457788,14.4726338 C23.4819941,14.4726338 23.1926199,14.5420836 22.9743491,14.68181 C22.7599858,14.8164217 22.6353277,15.0565624 22.6485964,15.3093387 C22.6352774,15.5689368 22.7613091,15.8159591 22.9793098,15.9575369 C23.1997854,16.1030508 23.5666016,16.2441552 24.0797586,16.3808501 C24.7555163,16.5561282 25.2717047,16.8074703 25.628324,17.1348766 C25.9849432,17.4622829 26.1632529,17.9379589 26.1632529,18.5619049 C26.1772251,18.9835312 26.0542334,19.3983382 25.8126967,19.7442053 C25.573089,20.0705029 25.2431079,20.3194259 24.8635493,20.4601997 C24.4391309,20.6203496 23.9885032,20.6997072 23.5349082,20.6941794 C23.0944024,20.6972701 22.6564892,20.6265668 22.2393386,20.4850032 C21.8461714,20.3503312 21.479815,20.1474219 21.157079,19.8855852 Z" id="Shape" fill="#081D3E"></path>
                    </g>
                </g>
            </g>
        </g>
    </g>
</svg>