<?xml version="1.0" encoding="UTF-8"?>
<svg width="467px" height="259px" viewBox="0 0 467 259" version="1.1" xmlns="http://www.w3.org/2000/svg" xmlns:xlink="http://www.w3.org/1999/xlink">
    <!-- Generator: Sketch 53 (72520) - https://sketchapp.com -->
    <title>card-created-gus</title>
    <desc>Created with Sketch.</desc>
    <defs>
        <filter x="-14.3%" y="-37.5%" width="128.6%" height="175.0%" filterUnits="objectBoundingBox" id="filter-1">
            <feOffset dx="0" dy="2" in="SourceAlpha" result="shadowOffsetOuter1"></feOffset>
            <feGaussianBlur stdDeviation="2" in="shadowOffsetOuter1" result="shadowBlurOuter1"></feGaussianBlur>
            <feColorMatrix values="0 0 0 0 0.890196078   0 0 0 0 0.898039216   0 0 0 0 0.929411765  0 0 0 1 0" type="matrix" in="shadowBlurOuter1" result="shadowMatrixOuter1"></feColorMatrix>
            <feMerge>
                <feMergeNode in="shadowMatrixOuter1"></feMergeNode>
                <feMergeNode in="SourceGraphic"></feMergeNode>
            </feMerge>
        </filter>
    </defs>
    <g id="home" stroke="none" stroke-width="1" fill="none" fill-rule="evenodd">
        <g id="home-with-workflow" transform="translate(-94.000000, -3567.000000)">
            <g id="card-created-gus" transform="translate(94.000000, 3567.000000)">
                <g id="Group-9" transform="translate(0.000000, 215.000000)" fill-rule="nonzero">
                    <path d="M454.713186,44 L12.5141583,44 C3.77811053,44 -1.26449317,42.864692 1.2137504,41.4901429 L63.5430114,6.92197296 C64.8443284,6.19554985 70.901194,5.61702128 77.0824501,5.61702128 L390.125757,5.61702128 C396.316582,5.61702128 402.373447,6.19120002 403.674764,6.92197296 L465.994457,41.4814433 C468.4727,42.864692 463.439665,44 454.713186,44 Z" id="Path" fill="#E6E7E8"></path>
                    <path d="M466.626022,36.2695904 L463.477923,36.2695904 L463.477923,37.2922661 L403.673613,4.11405413 C402.372271,3.38730159 396.31529,2.80851064 390.124348,2.80851064 L77.075095,2.80851064 C70.8937214,2.80851064 64.8367409,3.38294978 63.5353991,4.11405413 L5.47258984,36.3174603 L0.582989389,36.3174603 L0.582989389,39.3941912 L0.582989389,39.3941912 C0.669107597,40.4299223 5.36733425,41.1914894 12.5055768,41.1914894 L454.713003,41.1914894 C461.899089,41.1914894 466.56861,40.4255705 466.626022,39.3854875 L466.626022,39.3854875 L466.626022,36.2695904 Z" id="Path" fill="#EDEDED"></path>
                    <path d="M454.713186,38.3829787 L12.5141583,38.3829787 C3.77811053,38.3829787 -1.26449317,37.2476708 1.2137504,35.8731217 L63.5430114,1.30495168 C64.8443284,0.578528578 70.901194,0 77.0824501,0 L390.125757,0 C396.316582,0 402.373447,0.574178739 403.674764,1.30495168 L465.994457,35.864422 C468.4727,37.2476708 463.439665,38.3829787 454.713186,38.3829787 Z" id="Path" fill="#FFFFFF"></path>
                    <path d="M418.932976,21.5319149 L49.2420487,21.5319149 C46.6883665,21.5319149 45.0911196,21.242741 45.6841095,20.8897787 L76.9308499,2.2975962 C77.3421171,2.05520041 79.3793242,1.87234043 81.4930462,1.87234043 L386.681978,1.87234043 C388.786136,1.87234043 390.832907,2.06795808 391.23461,2.2975962 L422.481351,20.8897787 C423.074341,21.242741 421.486658,21.5319149 418.932976,21.5319149 Z" id="Path" fill="#EDEDED"></path>
                    <path d="M289.542204,35.5744681 L178.604372,35.5744681 C175.729093,35.5744681 173.572634,35.2320662 173.812241,34.8081401 L178.728967,24.9803909 C178.911068,24.6257604 181.16337,24.3404255 183.770289,24.3404255 L284.40504,24.3404255 C287.011959,24.3404255 289.26426,24.6257604 289.446361,24.9803909 L294.363088,34.8081401 C294.52602,35.2320662 292.417483,35.5744681 289.542204,35.5744681 Z" id="Path" fill="#EDEDED"></path>
                    <path d="M87.8632328,13.1118985 L68.8258032,13.1118985 C67.8789122,13.0814156 66.9338788,13.1779707 66.1570947,13.3845634 L61.8987223,15.6240511 C61.5904238,15.7840145 62.332267,15.9148936 63.5461921,15.9148936 L102.863879,15.9148936 C104.087439,15.9148936 105.262827,15.7840145 105.484416,15.6240511 L108.683013,13.3845634 C108.904602,13.2318711 108.114588,13.1118985 106.9392,13.1118985 L87.8632328,13.1118985 Z" id="Path" fill="#6D6E71"></path>
                    <path d="M130.49862,15.9148936 L113.44279,15.9148936 C112.256134,15.9148936 111.436776,15.805613 111.615716,15.667191 L114.695372,13.3358722 C114.864894,13.2083782 115.947954,13.106383 117.096938,13.106383 L133.663037,13.106383 C134.82144,13.106383 135.640798,13.2083782 135.499529,13.3358722 L132.956694,15.667191 C132.777754,15.805613 131.694694,15.9148936 130.49862,15.9148936 Z" id="Path" fill="#6D6E71"></path>
                    <path d="M158.968685,15.9148936 L141.313036,15.9148936 C140.076264,15.9148936 139.190073,15.805613 139.365363,15.667191 L141.829169,13.3358722 C141.965506,13.2083782 143.046464,13.106383 144.244282,13.106383 L161.305891,13.106383 C162.50371,13.106383 163.389901,13.2083782 163.253564,13.3358722 L161.354583,15.667191 C161.266938,15.805613 160.176241,15.9148936 158.968685,15.9148936 Z" id="Path" fill="#6D6E71"></path>
                    <path d="M186.564455,15.9148936 L169.125855,15.9148936 C167.902938,15.9148936 166.997787,15.805613 167.103709,15.667191 L168.817719,13.3358722 C168.914011,13.2083782 169.944343,13.106383 171.128742,13.106383 L188.037733,13.106383 C189.212503,13.106383 190.117654,13.2083782 190.059879,13.3358722 L188.894738,15.667191 C188.827333,15.805613 187.787372,15.9148936 186.564455,15.9148936 Z" id="Path" fill="#6D6E71"></path>
                    <path d="M242.430746,15.9148936 L224.797717,15.9148936 C223.562529,15.9148936 222.580215,15.805613 222.599667,15.667191 L222.871992,13.3358722 C222.871992,13.2083782 223.84458,13.106383 225.070042,13.106383 L242.13897,13.106383 C243.335254,13.106383 244.317568,13.2083782 244.327294,13.3358722 L244.609345,15.667191 C244.628797,15.805613 243.646482,15.9148936 242.430746,15.9148936 Z" id="Path" fill="#6D6E71"></path>
                    <path d="M214.231356,15.9148936 L196.931196,15.9148936 C195.728205,15.9148936 194.792545,15.805613 194.84983,15.667191 L195.804585,13.3358722 C195.852323,13.2083782 196.854816,13.106383 198.019617,13.106383 L214.785114,13.106383 C215.959463,13.106383 216.885575,13.2083782 216.856933,13.3358722 L216.427293,15.667191 C216.475031,15.805613 215.434348,15.9148936 214.231356,15.9148936 Z" id="Path" fill="#6D6E71"></path>
                    <path d="M270.303474,15.9148936 L253.023154,15.9148936 C251.820879,15.9148936 250.818983,15.805613 250.790358,15.667191 L250.351432,13.3358722 C250.351432,13.2083782 251.305619,13.106383 252.431559,13.106383 L269.187075,13.106383 C270.351183,13.106383 271.343537,13.2083782 271.400788,13.3358722 L272.354975,15.667191 C272.450394,15.805613 271.515291,15.9148936 270.303474,15.9148936 Z" id="Path" fill="#6D6E71"></path>
                    <path d="M299.040275,15.9148936 L281.60231,15.9148936 C280.379438,15.9148936 279.339515,15.805613 279.272113,15.667191 L278.107014,13.3358722 C278.039612,13.2083782 278.94473,13.106383 280.129086,13.106383 L297.037461,13.106383 C298.221817,13.106383 299.252111,13.2083782 299.3484,13.3358722 L301.062347,15.667191 C301.168265,15.805613 300.253518,15.9148936 299.040275,15.9148936 Z" id="Path" fill="#6D6E71"></path>
                    <path d="M326.855074,15.9148936 L309.232723,15.9148936 C307.998284,15.9148936 306.909645,15.805613 306.802725,15.667191 L304.907326,13.3358722 C304.800406,13.2083782 305.684925,13.106383 306.851325,13.106383 L323.939076,13.106383 C325.134635,13.106383 326.213554,13.2083782 326.349634,13.3358722 L328.808793,15.667191 C328.944873,15.805613 328.070073,15.9148936 326.855074,15.9148936 Z" id="Path" fill="#6D6E71"></path>
                    <path d="M354.720999,15.9148936 L337.635574,15.9148936 C336.447515,15.9148936 335.353746,15.805613 335.21231,15.667191 L332.666469,13.3358722 C332.525033,13.2083782 333.34536,13.106383 334.505132,13.106383 L351.053102,13.106383 C352.212874,13.106383 353.287785,13.2083782 353.457507,13.3358722 L356.550233,15.667191 C356.729385,15.805613 355.909058,15.9148936 354.720999,15.9148936 Z" id="Path" fill="#6D6E71"></path>
                    <path d="M98.6783491,20.5957447 L82.8638208,20.5957447 C81.6001902,20.5957447 80.7769158,20.4481049 81.0066668,20.2691477 L85.0751744,17.1597651 C85.2953524,16.9897557 86.4632534,16.8510638 87.6885922,16.8510638 L103.005327,16.8510638 C104.230665,16.8510638 105.063513,16.9897557 104.862481,17.1597651 L101.349205,20.2691477 C101.129027,20.4481049 99.9419797,20.5957447 98.6783491,20.5957447 Z" id="Path" fill="#6D6E71"></path>
                    <path d="M72.0438753,20.5957447 L56.0070719,20.5957447 C54.7447833,20.5957447 53.9510715,20.4484014 54.2283925,20.2698034 L59.0097888,17.1666636 C59.8084392,16.928648 60.7530039,16.8203536 61.6969336,16.858582 L77.2269089,16.858582 C78.4413836,16.858582 79.2446582,16.9969955 79.0151512,17.1666636 L74.778834,20.2698034 C74.5302014,20.4484014 73.3348523,20.5957447 72.0438753,20.5957447 Z" id="Path" fill="#6D6E71"></path>
                    <path d="M126.28826,20.5957447 L110.656925,20.5957447 C109.40109,20.5957447 108.535326,20.4481049 108.754145,20.2691477 L112.074496,17.1597651 C112.25526,16.9897557 113.396928,16.8510638 114.605193,16.8510638 L129.760833,16.8510638 C130.978612,16.8510638 131.844377,16.9897557 131.663613,17.1597651 L128.87604,20.2691477 C128.714304,20.4481049 127.563122,20.5957447 126.28826,20.5957447 Z" id="Path" fill="#6D6E71"></path>
                    <path d="M385.293453,20.5957447 L369.483346,20.5957447 C368.220069,20.5957447 367.033354,20.4481049 366.822808,20.2691477 L363.300944,17.1597651 C363.109538,16.9897557 363.942152,16.8510638 365.157578,16.8510638 L380.47003,16.8510638 C381.695026,16.8510638 382.862601,16.9897557 383.092288,17.1597651 L387.159658,20.2691477 C387.389345,20.4481049 386.55673,20.5957447 385.293453,20.5957447 Z" id="Path" fill="#6D6E71"></path>
                    <path d="M358.416595,20.5957447 L342.180435,20.5957447 C340.901692,20.5957447 339.729511,20.450363 339.555137,20.2741427 L338.412019,19.0361952 C338.247332,18.8643805 339.138577,18.7234043 340.397945,18.7234043 L356.382232,18.7234043 C357.6416,18.7234043 358.813781,18.8643805 359.00753,19.0361952 L360.37346,20.2741427 C360.576896,20.450363 359.695338,20.5957447 358.416595,20.5957447 Z" id="Path" fill="#6D6E71"></path>
                    <path d="M412.203515,20.5957447 L396.463185,20.5957447 C395.203195,20.5957447 393.981387,20.4509416 393.733207,20.2754227 L392.024584,19.0424024 C391.78595,18.8712714 392.587762,18.7308563 393.828661,18.7308563 L409.282629,18.7308563 C410.245614,18.6926334 411.209006,18.8021929 412.022153,19.0424024 L413.931228,20.2754227 C414.227135,20.4509416 413.425323,20.5957447 412.203515,20.5957447 Z" id="Path" fill="#6D6E71"></path>
                    <path d="M154.858827,20.5957447 L136.604838,20.5957447 C135.329282,20.5957447 134.420931,20.4481049 134.575544,20.2691477 L137.232953,17.1597651 C137.377903,16.9897557 138.498847,16.8510638 139.73575,16.8510638 L157.400277,16.8510638 C158.63718,16.8510638 159.545531,16.9897557 159.429571,17.1597651 L157.38095,20.2691477 C157.26499,20.4481049 156.134383,20.5957447 154.858827,20.5957447 Z" id="Path" fill="#6D6E71"></path>
                    <path d="M330.603378,20.5957447 L312.351965,20.5957447 C311.075912,20.5957447 309.944866,20.4481049 309.819194,20.2691477 L307.779444,17.1597651 C307.66344,16.9897557 308.572143,16.8510638 309.809527,16.8510638 L327.480917,16.8510638 C328.718301,16.8510638 329.83968,16.9897557 329.984686,17.1597651 L332.633461,20.2691477 C332.788134,20.4481049 331.87943,20.5957447 330.603378,20.5957447 Z" id="Path" fill="#6D6E71"></path>
                    <path d="M380.282306,13.1120219 L361.217883,13.1120219 C360.032381,13.1120219 359.290237,13.2319892 359.473363,13.3846748 L362.663618,15.6240639 C362.894935,15.7840202 364.0708,15.9148936 365.294855,15.9148936 L404.628479,15.9148936 C405.842896,15.9148936 406.556125,15.7840202 406.276617,15.6240639 L402.00688,13.3846748 C401.233828,13.1777716 400.291087,13.0811451 399.346728,13.1120219 L380.282306,13.1120219 Z" id="Path" fill="#6D6E71"></path>
                    <path d="M87.1684402,9.3679578 L74.9825567,9.3679578 C74.0946183,9.3350879 73.2070237,9.4324739 72.4750951,9.64307399 L68.5904292,11.8793756 C68.3054904,12.0405151 69.0178375,12.1702128 70.1765887,12.1702128 L95.3271884,12.1702128 C96.4764416,12.1702128 97.6066989,12.0405151 97.83465,11.8793756 L101.025965,9.64307399 C101.244418,9.48979497 100.513075,9.3679578 99.3923155,9.3679578 L87.1684402,9.3679578 Z" id="Path" fill="#6D6E71"></path>
                    <path d="M149.32251,12.1702128 L132.594765,12.1702128 C131.4219,12.1702128 130.595127,12.0599206 130.748945,11.9220554 L133.296561,9.59410343 C133.431152,9.46805527 134.469426,9.36170213 135.603837,9.36170213 L151.831672,9.36170213 C152.966082,9.36170213 153.802469,9.46805527 153.687106,9.59410343 L151.649013,11.9220554 C151.533649,12.0599206 150.485761,12.1702128 149.32251,12.1702128 Z" id="Path" fill="#6D6E71"></path>
                    <path d="M122.687488,12.1702128 L105.763739,12.1702128 C104.577131,12.1702128 103.769849,12.060256 103.964375,11.92281 L107.212956,9.60193636 C107.923935,9.4154577 108.772389,9.33363008 109.615351,9.3702417 L126.043059,9.3702417 C127.190762,9.3702417 127.988318,9.47627146 127.842423,9.60193636 L125.119061,11.92281 C124.953714,12.060256 123.864369,12.1702128 122.687488,12.1702128 Z" id="Path" fill="#6D6E71"></path>
                    <path d="M175.912396,12.1702128 L159.428965,12.1702128 C158.27323,12.1702128 157.430112,12.0599206 157.534318,11.9220554 L159.428965,9.59410343 C159.533171,9.46805527 160.527861,9.36170213 161.645702,9.36170213 L177.636525,9.36170213 C178.754367,9.36170213 179.606958,9.46805527 179.531172,9.59410343 L178.176499,11.9220554 C178.062821,12.0599206 177.058658,12.1702128 175.912396,12.1702128 Z" id="Path" fill="#6D6E71"></path>
                    <path d="M202.554457,12.1702128 L186.262393,12.1702128 C185.120076,12.1702128 184.258656,12.0599206 184.324199,11.9220554 L185.513333,9.59410343 C185.578875,9.46805527 186.524564,9.36170213 187.629428,9.36170213 L203.443966,9.36170213 C204.54883,9.36170213 205.41025,9.46805527 205.372797,9.59410343 L204.726732,11.9220554 C204.642463,12.0599206 203.687411,12.1702128 202.554457,12.1702128 Z" id="Path" fill="#6D6E71"></path>
                    <path d="M256.908693,12.1702128 L240.154394,12.1702128 C238.979667,12.1702128 238.026405,12.0599206 238.016776,11.9220554 L237.910858,9.59410343 C237.910858,9.46805527 238.825604,9.36170213 239.961816,9.36170213 L256.225041,9.36170213 C257.361252,9.36170213 258.304885,9.46805527 258.343401,9.59410343 L258.959651,11.9220554 C259.036682,12.0599206 258.112307,12.1702128 256.908693,12.1702128 Z" id="Path" fill="#6D6E71"></path>
                    <path d="M229.977936,12.1702128 L213.182577,12.1702128 C212.004971,12.1702128 211.07833,12.0599206 211.11694,11.9220554 L211.676786,9.59410343 C211.676786,9.46805527 212.642036,9.36170213 213.790684,9.36170213 L230.113071,9.36170213 C231.252067,9.36170213 232.169055,9.46805527 232.169055,9.59410343 L232.120792,11.9220554 C232.101487,12.0599206 231.145889,12.1702128 229.977936,12.1702128 Z" id="Path" fill="#6D6E71"></path>
                    <path d="M284.701239,12.1702128 L267.721337,12.1702128 C266.530792,12.1702128 265.535418,12.0599206 265.486625,11.9220554 L264.70594,9.59410343 C264.70594,9.46805527 265.564694,9.36170213 266.716204,9.36170213 L283.188661,9.36170213 C284.340172,9.36170213 285.335546,9.46805527 285.403856,9.59410343 L286.711503,11.9220554 C286.789572,12.0599206 285.882025,12.1702128 284.701239,12.1702128 Z" id="Path" fill="#6D6E71"></path>
                    <path d="M310.697212,12.1702128 L294.199212,12.1702128 C293.042456,12.1702128 292.046887,12.0597657 291.961552,11.9217069 L290.548792,9.59442984 C290.47294,9.46820464 291.316803,9.36170213 292.445114,9.36170213 L308.421626,9.36170213 C309.540456,9.36170213 310.536025,9.46820464 310.640322,9.59442984 L312.536644,11.9256514 C312.68835,12.0597657 311.844487,12.1702128 310.697212,12.1702128 Z" id="Path" fill="#6D6E71"></path>
                    <path d="M338.457151,12.1702128 L321.778358,12.1702128 C320.608925,12.1702128 319.564104,12.0597657 319.449078,11.9217069 L317.34985,9.59442984 C317.234824,9.46820464 318.059178,9.36170213 319.190269,9.36170213 L335.380201,9.36170213 C336.511292,9.36170213 337.546527,9.46820464 337.69031,9.59442984 L340.287984,11.9256514 C340.441352,12.0597657 339.616998,12.1702128 338.457151,12.1702128 Z" id="Path" fill="#6D6E71"></path>
                    <path d="M365.272823,12.1702128 L348.39542,12.1702128 C347.212062,12.1702128 346.125701,12.0600868 345.960806,11.9224293 L343.196404,9.60191718 C343.04121,9.47605889 343.846281,9.36986597 344.990841,9.36986597 L361.373561,9.36986597 C362.217121,9.33420785 363.065489,9.41604681 363.779076,9.60191718 L367.076959,11.9263623 C367.251553,12.0600868 366.47558,12.1702128 365.272823,12.1702128 Z" id="Path" fill="#6D6E71"></path>
                    <path d="M120.7009,4.68085106 L105.641793,4.68085106 C104.537524,4.68085106 103.785057,4.60793375 103.960958,4.51678712 L105.182495,3.90914288 C105.865036,3.78013755 106.665242,3.72461468 107.45944,3.75115537 L122.313328,3.75115537 C123.398053,3.75115537 124.160292,3.82103446 124.013708,3.90914288 L122.968072,4.51678712 C122.821488,4.60793375 121.805169,4.68085106 120.7009,4.68085106 Z" id="Path" fill="#6D6E71"></path>
                    <path d="M96.5477358,4.67502389 L81.6485483,4.67502389 C80.5574217,4.67502389 79.8428787,4.60249681 80.0456544,4.51183795 L81.4747405,3.90744559 C82.1727041,3.78093761 82.9797038,3.72598718 83.7825213,3.75030358 L98.4596212,3.75030358 C99.5314357,3.75030358 100.255635,3.8198087 100.081827,3.90744559 L98.8265487,4.51183795 C98.1446515,4.64295021 97.3439628,4.70028759 96.5477358,4.67502389 L96.5477358,4.67502389 Z" id="Path" fill="#6D6E71"></path>
                    <path d="M145.034259,4.68085106 L130.511187,4.68085106 C129.446225,4.68085106 128.692269,4.60742595 128.833636,4.51564456 L129.776081,3.9037686 C129.917447,3.81504659 130.869316,3.74468085 131.924854,3.74468085 L146.250013,3.74468085 C147.296126,3.74468085 148.050082,3.81504659 147.946413,3.9037686 L147.154759,4.51564456 C147.079364,4.60742595 146.136919,4.68085106 145.034259,4.68085106 Z" id="Path" fill="#6D6E71"></path>
                    <path d="M169.151087,4.68085106 L154.502672,4.68085106 C153.426423,4.68085106 152.645428,4.60742595 152.750196,4.51564456 L153.493094,3.9037686 C153.597861,3.81504659 154.54077,3.74468085 155.607494,3.74468085 L170.10352,3.74468085 C171.16072,3.74468085 171.951239,3.81504659 171.875045,3.9037686 L171.294061,4.51564456 C171.189293,4.60742595 170.255909,4.68085106 169.151087,4.68085106 Z" id="Path" fill="#6D6E71"></path>
                    <path d="M217.600803,4.68085106 L202.541135,4.68085106 C201.438256,4.68085106 200.589137,4.60742595 200.589137,4.51564456 L200.901457,3.9037686 C200.901457,3.81504659 201.877456,3.74468085 202.941295,3.74468085 L217.776483,3.74468085 C218.869602,3.74468085 219.728481,3.81504659 219.728481,3.9037686 L219.591841,4.51564456 C219.611361,4.60742595 218.703682,4.68085106 217.600803,4.68085106 Z" id="Path" fill="#6D6E71"></path>
                    <path d="M193.376168,4.68085106 L178.50596,4.68085106 C177.415542,4.68085106 176.576017,4.60742595 176.672514,4.51564456 L177.203249,3.9037686 C177.280446,3.81504659 178.16822,3.74468085 179.277937,3.74468085 L193.955151,3.74468085 C195.026269,3.74468085 195.885093,3.81504659 195.798246,3.9037686 L195.441207,4.51564456 C195.392958,4.60742595 194.466586,4.68085106 193.376168,4.68085106 Z" id="Path" fill="#6D6E71"></path>
                    <path d="M240.845045,4.68085106 L226.389449,4.68085106 C225.329435,4.68085106 224.513317,4.60742595 224.513317,4.51564456 L224.597743,3.9037686 C224.597743,3.81504659 225.460764,3.74468085 226.473875,3.74468085 L240.732477,3.74468085 C241.783111,3.74468085 242.608609,3.81504659 242.608609,3.9037686 L242.693035,4.51564456 C242.749319,4.60742595 241.905059,4.68085106 240.845045,4.68085106 Z" id="Path" fill="#6D6E71"></path>
                    <path d="M265.635287,4.68085106 L250.603073,4.68085106 C249.500776,4.68085106 248.593575,4.60742595 248.574065,4.51564456 L248.437498,3.9037686 C248.437498,3.81504659 249.276414,3.74468085 250.388466,3.74468085 L265.215829,3.74468085 C266.308371,3.74468085 267.215572,3.81504659 267.264346,3.9037686 L267.576501,4.51564456 C267.59601,4.60742595 266.776604,4.68085106 265.635287,4.68085106 Z" id="Path" fill="#6D6E71"></path>
                    <path d="M289.634889,4.68085106 L274.795157,4.68085106 C273.704852,4.68085106 272.778574,4.60742595 272.730331,4.51564456 L272.363679,3.9037686 C272.315436,3.81504659 273.145226,3.74468085 274.216234,3.74468085 L288.882289,3.74468085 C289.953297,3.74468085 290.889223,3.81504659 290.966413,3.9037686 L291.497093,4.51564456 C291.564634,4.60742595 290.754141,4.68085106 289.634889,4.68085106 Z" id="Path" fill="#6D6E71"></path>
                    <path d="M313.661551,4.68085106 L298.969941,4.68085106 C297.89262,4.68085106 296.948773,4.60742595 296.872502,4.51564456 L296.290939,3.9037686 C296.214669,3.81504659 297.005975,3.74468085 298.064229,3.74468085 L312.555629,3.74468085 C313.613882,3.74468085 314.55773,3.81504659 314.672136,3.9037686 L315.415773,4.51564456 C315.520645,4.60742595 314.738872,4.68085106 313.661551,4.68085106 Z" id="Path" fill="#6D6E71"></path>
                    <path d="M337.685355,4.68085106 L323.142845,4.68085106 C322.07784,4.68085106 321.125932,4.60742595 321.012834,4.51564456 L320.221148,3.9037686 C320.108051,3.81504659 320.871462,3.74468085 321.917618,3.74468085 L336.243356,3.74468085 C337.289512,3.74468085 338.250845,3.81504659 338.382792,3.9037686 L339.325275,4.51564456 C339.494922,4.60742595 338.750361,4.68085106 337.685355,4.68085106 Z" id="Path" fill="#6D6E71"></path>
                    <path d="M362.524186,4.68085106 L347.465079,4.68085106 C346.36081,4.68085106 345.344491,4.60793375 345.188134,4.51678712 L344.152271,3.90914288 C344.005687,3.82103446 344.767926,3.75115537 345.85265,3.75115537 L360.706539,3.75115537 C361.500737,3.72461468 362.300942,3.78013755 362.983484,3.90914288 L364.205021,4.51678712 C364.380922,4.60793375 363.628455,4.68085106 362.524186,4.68085106 Z" id="Path" fill="#6D6E71"></path>
                    <path d="M386.516347,4.6748484 L371.629605,4.6748484 C370.827307,4.70055399 370.020203,4.64324293 369.331911,4.51169324 L368.086522,3.90741489 C367.903093,3.81979453 368.63681,3.75030251 369.708424,3.75030251 L384.382773,3.75030251 C385.18544,3.72599071 385.992289,3.78093077 386.690122,3.90741489 L388.11894,4.51169324 C388.321678,4.602335 387.645885,4.6748484 386.516347,4.6748484 Z" id="Path" fill="#6D6E71"></path>
                    <path d="M381.881711,9.3679578 L370.718502,9.3679578 C369.57703,9.3679578 368.832171,9.48979497 369.054661,9.64307399 L372.372669,11.8793756 C372.614506,12.0405151 373.755978,12.1702128 374.936144,12.1702128 L397.949379,12.1702128 C399.129545,12.1702128 399.884077,12.0405151 399.564852,11.8793756 L395.608394,9.64307399 C394.862939,9.4324739 393.958941,9.3350879 393.054593,9.3679578 L381.881711,9.3679578 Z" id="Path" fill="#6D6E71"></path>
                    <path d="M92.4560908,4.68718069 L80.4622488,4.68718069 C79.5952178,4.65414608 78.7282915,4.75110376 78.0052107,4.96197764 L74.3245094,7.18994681 C74.0622959,7.35059734 74.761532,7.48165435 75.8977907,7.48165435 L94.4372598,7.48165435 C95.3139263,7.51972284 96.1920862,7.41587531 96.9040095,7.18994681 L100.069995,4.96197764 C100.283651,4.80978241 99.5649915,4.68718069 98.4578676,4.68718069 L92.4560908,4.68718069 Z" id="Path" fill="#6D6E71"></path>
                    <path d="M146.556734,7.4893617 L130.590396,7.4893617 C129.474469,7.4893617 128.682829,7.37889078 128.835434,7.24292658 L131.315272,4.91453954 C131.458339,4.7870731 132.450274,4.68085106 133.52805,4.68085106 L149.046109,4.68085106 C150.133423,4.68085106 150.953676,4.7870731 150.810609,4.91453954 L148.798125,7.24292658 C148.674134,7.37889078 147.672661,7.4893617 146.556734,7.4893617 Z" id="Path" fill="#6D6E71"></path>
                    <path d="M120.934802,7.4893617 L104.735299,7.4893617 C103.603076,7.4893617 102.799875,7.37923773 103.012772,7.24370053 L106.157836,4.92262599 C106.844345,4.73433729 107.655341,4.65230845 108.460991,4.68967143 L124.20567,4.68967143 C125.299184,4.68967143 126.073354,4.79555987 125.928197,4.92262599 L123.266989,7.24370053 C123.112155,7.37923773 122.067026,7.4893617 120.934802,7.4893617 Z" id="Path" fill="#6D6E71"></path>
                    <path d="M172.165178,7.4893617 L156.460912,7.4893617 C155.363302,7.4893617 154.584655,7.37889078 154.659705,7.24292658 L156.535962,4.91453954 C156.639156,4.7870731 157.586666,4.68085106 158.656132,4.68085106 L173.910097,4.68085106 C174.979563,4.68085106 175.786353,4.7870731 175.701922,4.91453954 L174.322873,7.24292658 C174.219679,7.37889078 173.262788,7.4893617 172.165178,7.4893617 Z" id="Path" fill="#6D6E71"></path>
                    <path d="M198.599612,7.4893617 L182.427718,7.4893617 C181.297424,7.4893617 180.437628,7.37889078 180.495592,7.24292658 L181.780456,4.91453954 C181.84808,4.7870731 182.794822,4.68085106 183.896134,4.68085106 L199.613978,4.68085106 C200.705629,4.68085106 201.546104,4.7870731 201.546104,4.91453954 L200.744272,7.24292658 C200.686308,7.37889078 199.729906,7.4893617 198.599612,7.4893617 Z" id="Path" fill="#6D6E71"></path>
                    <path d="M250.342356,7.4893617 L234.208621,7.4893617 C233.083011,7.4893617 232.169055,7.37889078 232.169055,7.24292658 L232.169055,4.91453954 C232.169055,4.7870731 233.06377,4.68085106 234.150897,4.68085106 L249.803603,4.68085106 C250.90035,4.68085106 251.804686,4.7870731 251.823927,4.91453954 L252.256854,7.24292658 C252.362681,7.37889078 251.467965,7.4893617 250.342356,7.4893617 Z" id="Path" fill="#6D6E71"></path>
                    <path d="M224.196374,7.4893617 L208.240754,7.4893617 C207.126242,7.4893617 206.2594,7.37889078 206.335606,7.24292658 L206.983356,4.91453954 C206.983356,4.7870731 207.935931,4.68085106 209.012339,4.68085106 L224.520249,4.68085106 C225.596658,4.68085106 226.473026,4.7870731 226.425398,4.91453954 L226.234883,7.24292658 C226.215831,7.37889078 225.310886,7.4893617 224.196374,7.4893617 Z" id="Path" fill="#6D6E71"></path>
                    <path d="M276.129376,7.4893617 L259.759034,7.4893617 C258.614871,7.4893617 257.656511,7.37889078 257.627174,7.24292658 L257.050203,4.91453954 C257.050203,4.7870731 257.891212,4.68085106 259.006038,4.68085106 L274.906979,4.68085106 C276.021805,4.68085106 276.970385,4.7870731 277.02906,4.91453954 L278.09499,7.24292658 C278.202561,7.37889078 277.27354,7.4893617 276.129376,7.4893617 Z" id="Path" fill="#6D6E71"></path>
                    <path d="M302.089046,7.4893617 L286.203074,7.4893617 C285.092764,7.4893617 284.134291,7.37889078 284.067862,7.24292658 L282.891124,4.91453954 C282.834185,4.7870731 283.65031,4.68085106 284.73215,4.68085106 L300.19108,4.68085106 C301.263431,4.68085106 302.212413,4.7870731 302.307312,4.91453954 L303.939562,7.24292658 C303.987011,7.37889078 303.199355,7.4893617 302.089046,7.4893617 Z" id="Path" fill="#6D6E71"></path>
                    <path d="M327.961627,7.4893617 L311.817988,7.4893617 C310.689669,7.4893617 309.686719,7.37889078 309.580638,7.24292658 L307.777256,4.91453954 C307.680819,4.7870731 308.490894,4.68085106 309.580638,4.68085106 L325.27102,4.68085106 C326.360764,4.68085106 327.35407,4.7870731 327.479439,4.91453954 L329.765008,7.24292658 C329.900021,7.37889078 329.089946,7.4893617 327.961627,7.4893617 Z" id="Path" fill="#6D6E71"></path>
                    <path d="M353.915514,7.4893617 L338.207991,7.4893617 C337.110809,7.4893617 336.11678,7.37925441 335.976116,7.24373773 L333.622332,4.9230147 C333.491045,4.79596782 334.250633,4.69009542 335.319682,4.69009542 L350.567702,4.69009542 C351.342618,4.65165506 352.123376,4.73382572 352.780822,4.9230147 L355.59411,7.24373773 C355.762907,7.37925441 355.012697,7.4893617 353.915514,7.4893617 Z" id="Path" fill="#6D6E71"></path>
                    <path d="M370.617179,4.68717981 L360.115263,4.68717981 C359.038628,4.68717981 358.330315,4.80976459 358.519198,4.96193879 L361.352449,7.18959999 C362.03657,7.4164123 362.885533,7.52045502 363.73238,7.48126721 L391.34713,7.48126721 C392.452098,7.48126721 393.141522,7.35022832 392.88653,7.18959999 L389.30719,4.96193879 C388.604021,4.75109405 387.760969,4.65414977 386.917815,4.68717981 L370.617179,4.68717981 Z" id="Path" fill="#6D6E71"></path>
                    <path d="M301.840398,20.5957447 L166.333717,20.5957447 C165.067209,20.5957447 164.126924,20.4481049 164.232466,20.2691477 L166.093848,17.1597651 C166.19939,16.9897557 167.274002,16.8510638 168.502131,16.8510638 L299.671984,16.8510638 C300.900112,16.8510638 301.974724,16.9897557 302.080267,17.1597651 L303.932054,20.2691477 C304.047191,20.4481049 303.106905,20.5957447 301.840398,20.5957447 Z" id="Path" fill="#6D6E71"></path>
                </g>
                <rect id="Rectangle" fill="#FFFFFF" fill-rule="nonzero" x="67" y="2" width="336" height="216" rx="6"></rect>
                <path d="M132.5,-59 L337.5,-59 C340.537566,-59 343,-56.5375661 343,-53.5 L343,269.5 C343,272.537566 340.537566,275 337.5,275 L132.5,275 C129.462434,275 127,272.537566 127,269.5 L127,-53.5 C127,-56.5375661 129.462434,-59 132.5,-59 Z" id="Rectangle" fill="#6D6E71" fill-rule="nonzero" transform="translate(235.000000, 108.000000) rotate(90.000000) translate(-235.000000, -108.000000) "></path>
                <rect id="Rectangle" fill="#F8F9FB" fill-rule="nonzero" x="81" y="16" width="306" height="182"></rect>
                <g id="Group-28" transform="translate(88.000000, 27.000000)" fill-rule="nonzero">
                    <g id="Group" opacity="0.2">
                        <g id="Path">
                            <g>
                                <path d="M91.3884888,121.141386 L1.88646155,121.141386 C1.01930588,121.141386 0.314019271,120.832013 0.314019271,120.451638 L0.314019271,0.831133197 C0.314019271,0.450757642 1.01930588,0.141385523 1.88646155,0.141385523 L91.3884888,0.141385523 C92.2556445,0.141385523 92.9609311,0.450757642 92.9609311,0.831133197 L92.9609311,120.451638 C92.9609311,120.832013 92.2556445,121.141386 91.3884888,121.141386 Z" fill="#E3EAF2"></path>
                                <g transform="translate(4.624830, 50.144713)">
                                    <path d="M81.7110315,48.8499942 L1.63209589,48.8499942 C0.76494022,48.8499942 0.0596536075,48.2689736 0.0596536075,47.554604 L0.0596536075,1.41585614 C0.0596536075,0.701486587 0.76494022,0.120466021 1.63209589,0.120466021 L81.7110315,0.120466021 C82.5781872,0.120466021 83.2834738,0.701486587 83.2834738,1.41585614 L83.2834738,47.554604 C83.2834738,48.2689736 82.5781872,48.8499942 81.7110315,48.8499942 Z" fill="#F9F9F9"></path>
                                    <path d="M83.2834738,2.29980586 L83.2834738,1.6098641 C83.2834738,0.788504866 82.5781872,0.120466021 81.7110315,0.120466021 L1.63209589,0.120466021 C0.76494022,0.120466021 0.0596536075,0.788504866 0.0596536075,1.6098641 L0.0596536075,2.29980586 L83.2834738,2.29980586 Z" fill="#1B99F6"></path>
                                    <path d="M80.2773342,40.0570901 C80.2773342,43.0249348 77.7452396,45.4233038 74.6119171,45.4233038 C71.4785946,45.4233038 68.9465001,43.0249348 68.9465001,40.0570901 C68.9465001,37.0892454 71.4785946,34.6908764 74.6119171,34.6908764 C77.7452396,34.6908764 80.2773342,37.0892454 80.2773342,40.0570901 Z" fill="#159ED9"></path>
                                    <path d="M78.3002192,32.9529325 L4.2335629,32.9529325 C2.92704836,32.9529325 1.87489948,31.95635 1.87489948,30.7188354 L1.87489948,8.41071857 C1.87489948,7.17320399 2.92704836,6.17662145 4.2335629,6.17662145 L78.3002192,6.17662145 C79.6067338,6.17662145 80.6588827,7.17320399 80.6588827,8.41071857 L80.6588827,30.7188354 C80.6588827,31.95635 79.5951717,32.9529325 78.3002192,32.9529325 Z" fill="#E3EAF2"></path>
                                </g>
                            </g>
                            <g transform="translate(97.511077, 0.000000)">
                                <path d="M91.2300884,121.141386 L1.72806112,121.141386 C0.860905447,121.141386 0.155618835,120.832013 0.155618835,120.451638 L0.155618835,0.831133197 C0.155618835,0.450757642 0.860905447,0.141385523 1.72806112,0.141385523 L91.2300884,0.141385523 C92.0972441,0.141385523 92.8025307,0.450757642 92.8025307,0.831133197 L92.8025307,120.451638 C92.8025307,120.832013 92.0972441,121.141386 91.2300884,121.141386 Z" fill="#E3EAF2"></path>
                                <g transform="translate(4.826697, 10.829532)">
                                    <path d="M81.8710574,31.5853164 L1.79212172,31.5853164 C0.924966049,31.5853164 0.219679437,30.9172776 0.219679437,30.0959183 L0.219679437,1.84116065 C0.219679437,1.01980141 0.924966049,0.351762566 1.79212172,0.351762566 L81.8710574,0.351762566 C82.738213,0.351762566 83.4434997,1.01980141 83.4434997,1.84116065 L83.4434997,30.0959183 C83.4434997,30.9172776 82.738213,31.5853164 81.8710574,31.5853164 Z" fill="#F9F9F9"></path>
                                    <path d="M83.4434997,2.5311024 L83.4434997,1.84116065 C83.4434997,1.01980141 82.738213,0.351762566 81.8710574,0.351762566 L1.79212172,0.351762566 C0.924966049,0.351762566 0.219679437,1.01980141 0.219679437,1.84116065 L0.219679437,2.5311024 L83.4434997,2.5311024 Z" fill="#1B99F6"></path>
                                    <path d="M80.43736,13.0225977 C80.43736,15.9904424 77.9052654,18.3888114 74.771943,18.3888114 C71.6386205,18.3888114 69.1065259,15.9904424 69.1065259,13.0225977 C69.1065259,10.054753 71.6386205,7.65638403 74.771943,7.65638403 C77.9052654,7.65638403 80.43736,10.054753 80.43736,13.0225977 Z" fill="#061C3F"></path>
                                </g>
                            </g>
                            <g transform="translate(197.146794, 0.000000)">
                                <path d="M91.3057111,88.659244 L1.80368379,88.659244 C0.936528124,88.659244 0.231241512,88.432922 0.231241512,88.1546573 L0.231241512,0.645972192 C0.231241512,0.367707485 0.936528124,0.141385523 1.80368379,0.141385523 L91.3057111,0.141385523 C92.1728667,0.141385523 92.8781534,0.367707485 92.8781534,0.645972192 L92.8781534,88.1546573 C92.8781534,88.432922 92.1613047,88.659244 91.3057111,88.659244 Z" fill="#E3EAF2"></path>
                                <g transform="translate(5.014472, 10.829532)">
                                    <path d="M81.7589052,31.5853164 L1.67996959,31.5853164 C0.812813915,31.5853164 0.107527303,30.9172776 0.107527303,30.0959183 L0.107527303,1.84116065 C0.107527303,1.01980141 0.812813915,0.351762566 1.67996959,0.351762566 L81.7589052,0.351762566 C82.6260609,0.351762566 83.3313475,1.01980141 83.3313475,1.84116065 L83.3313475,30.0959183 C83.3313475,30.9172776 82.6260609,31.5853164 81.7589052,31.5853164 Z" fill="#F9F9F9"></path>
                                    <path d="M83.3313475,2.5311024 L83.3313475,1.84116065 C83.3313475,1.01980141 82.6260609,0.351762566 81.7589052,0.351762566 L1.67996959,0.351762566 C0.812813915,0.351762566 0.107527303,1.01980141 0.107527303,1.84116065 L0.107527303,2.5311024 L83.3313475,2.5311024 Z" fill="#1B99F6"></path>
                                    <path d="M80.3252079,13.0225977 C80.3252079,15.9904424 77.7931133,18.3888114 74.6597908,18.3888114 C71.5264683,18.3888114 68.9943738,15.9904424 68.9943738,13.0225977 C68.9943738,10.054753 71.5264683,7.65638403 74.6597908,7.65638403 C77.7931133,7.65638403 80.3252079,10.054753 80.3252079,13.0225977 Z" fill="#159ED9"></path>
                                </g>
                            </g>
                            <path d="M4.25842136,110.474068 C4.25842136,106.931215 7.13556976,104.059165 10.6847122,104.059165 L82.717421,104.059165 C86.2665635,104.059165 89.1437118,106.931215 89.1437118,110.474068 C89.1437118,114.016921 86.2665635,116.888971 82.717421,116.888971 L10.6847122,116.888971 C7.13556976,116.888971 4.25842136,114.016921 4.25842136,110.474068 Z" fill="#CFD8DC"></path>
                            <path d="M101.090805,110.414903 C101.090805,106.87205 103.967953,104 107.517095,104 L179.549804,104 C183.098947,104 185.976095,106.87205 185.976095,110.414903 C185.976095,113.957756 183.098947,116.829806 179.549804,116.829806 L107.517095,116.829806 C103.967953,116.829806 101.090805,113.957756 101.090805,110.414903 Z" fill="#CFD8DC"></path>
                        </g>
                    </g>
                    <g id="Group" filter="url(#filter-1)" transform="translate(4.000000, 11.000000)">
                        <path d="M82.1840965,31.982144 L2.01111018,31.982144 C1.14293605,31.982144 0.436821101,31.310759 0.436821101,30.4852855 L0.436821101,2.0889993 C0.436821101,1.26352586 1.14293605,0.592140797 2.01111018,0.592140797 L82.1840965,0.592140797 C83.0522706,0.592140797 83.7583856,1.26352586 83.7583856,2.0889993 L83.7583856,30.4852855 C83.7583856,31.310759 83.0522706,31.982144 82.1840965,31.982144 Z" id="Path" fill="#FFFFFF"></path>
                        <path d="M83.7583856,2.78239698 L83.7583856,2.0889993 C83.7583856,1.26352586 83.0522706,0.592140797 82.1840965,0.592140797 L2.01111018,0.592140797 C1.14293605,0.592140797 0.436821101,1.26352586 0.436821101,2.0889993 L0.436821101,2.78239698 L83.7583856,2.78239698 Z" id="Path" fill="#1AD1A3"></path>
                        <path d="M80.7487153,11.3930931 C80.7487153,14.3758038 78.2136469,16.7861862 75.0766444,16.7861862 C71.9396419,16.7861862 69.4045734,14.3758038 69.4045734,11.3930931 C69.4045734,8.41038244 71.9396419,6 75.0766444,6 C78.2136469,6 80.7487153,8.41038244 80.7487153,11.3930931 Z" id="Path" fill="#1AD1A3"></path>
                    </g>
                </g>
                <g id="Group-25" transform="translate(95.000000, 44.000000)" fill-rule="nonzero">
                    <path d="M5,-3.55271368e-15 L20.7272727,-3.94430453e-31 C23.4886965,-2.95990229e-15 25.7272727,2.23857625 25.7272727,5 C25.7272727,7.76142375 23.4886965,10 20.7272727,10 L5,10 C2.23857625,10 3.38176876e-16,7.76142375 0,5 C-3.38176876e-16,2.23857625 2.23857625,-3.04544837e-15 5,-3.55271368e-15 Z" id="Rectangle" fill="#1DE9B6"></path>
                    <path d="M5,2.5 L5.68341709,2.5 L8.4438861,6.65254237 L8.45728643,6.65254237 L8.4438861,2.5 L9,2.5 L9,7.5 L8.31658291,7.5 L5.5561139,3.34745763 L5.54271357,3.34745763 L5.5561139,7.5 L5,7.5 L5,2.5 Z M12.8856502,3.00141243 L10.5919283,3.00141243 L10.5919283,4.68220339 L12.5896861,4.68220339 L12.5896861,5.16242938 L10.5919283,5.16242938 L10.5919283,6.98446328 L13,6.98446328 L13,7.5 L10,7.5 L10,2.5 L12.8856502,2.5 L12.8856502,3.00141243 Z M19.4763407,7.5 L18.7917981,7.5 L17.4963197,3.29096045 L17.4742376,3.29096045 L16.2008412,7.5 L15.5162986,7.5 L14,2.5 L14.6771819,2.5 L15.8843323,6.68785311 L15.8990536,6.68785311 L17.150368,2.5 L17.849632,2.5 L19.1156677,6.68785311 L19.1303891,6.68785311 L20.3596215,2.5 L21,2.5 L19.4763407,7.5 Z" id="NEW" fill="#FFFFFF"></path>
                </g>
                <g id="Group-23" transform="translate(0.000000, 133.000000)">
                    <g id="Asset-1" fill-rule="nonzero">
                        <path d="M8.87810497,1.64704255 L6.19493654,9.7888563 L56.2515534,9.7888563 L53.5922708,1.64704255 C53.5922708,1.64704255 29.9851658,0.15160737 8.87810497,1.64704255 Z" id="Path" fill="#F7F0E9"></path>
                        <path d="M53.5330315,3.91788856 L56.2515534,9.7888563 L6.19493654,7.33929153 C6.19493654,7.33929153 51.0668274,8.7637667 53.5330315,3.91788856 Z" id="Path" fill="#D8CEB5" style="mix-blend-mode: multiply;"></path>
                        <polygon id="Path" fill="#321F14" points="56.2515534 30.8479577 55.4198215 29.8265291 4.05839778 29.8265291 3.25042967 30.8479577"></polygon>
                        <path d="M48.2573261,87.696439 L59.1960603,12.7243402 L0.305922792,12.7243402 L11.244657,87.696439 C11.244657,87.696439 33.6969839,90.7350231 48.2573261,87.696439 Z" id="Path" fill="#F7F0E9"></path>
                        <path d="M48.5183571,89.0359502 L59.1960603,12.7243402 L0.305922792,12.7243402 L1.36392692,13.892053 C1.36392692,13.892053 48.8764508,14.4285697 52.6364347,16.6219762 C58.1868871,19.9199759 46.4918722,90.053754 48.5183571,89.0359502 Z" id="Path" fill="#D8CEB5" style="mix-blend-mode: multiply;"></path>
                        <rect id="Rectangle" fill="#FFFFFF" x="0.305922792" y="6.85337243" width="58.8901375" height="5.87096774"></rect>
                        <polygon id="Path" fill="#5F4337" points="52.1800278 62.627566 7.31403398 62.627566 3.25042967 33.2727273 56.2515534 33.2727273"></polygon>
                        <path d="M6.19493654,15.659824 C6.19493654,15.659824 10.0978903,15.9677419 16.4075479,15.9993233 L20.9174709,89.0469208 C18.8783601,88.9460643 16.8466494,88.7061268 14.8336624,88.3284457 L6.19493654,15.659824 Z" id="Path" fill="#FFFFFF" style="mix-blend-mode: soft-light;"></path>
                    </g>
                    <path d="M28.2265007,39.5479342 C29.335215,38.4655223 30.836349,37.7645476 32.5345497,37.7645476 C34.7519782,37.7645476 36.708936,38.9741053 37.7542463,40.759165 C38.6676075,40.3760547 39.6460864,40.1217632 40.689683,40.1217632 C44.7372612,40.1217632 48,43.3070992 48,47.2569828 C48,51.2068665 44.7372612,54.3922025 40.689683,54.3922025 C40.1687415,54.3922025 39.7112041,54.3286296 39.2553803,54.2650567 C38.3403054,55.8577248 36.5787007,56.9401367 34.5549115,56.9401367 C33.706668,56.9401367 32.9252558,56.7494181 32.2072476,56.4315537 C31.2938864,58.5344777 29.1398619,60 26.5951313,60 C23.9835694,60 21.6993095,58.405659 20.851066,56.1120163 C20.4603599,56.1755892 20.0679401,56.240835 19.677234,56.240835 C16.5464442,56.240835 14,53.7548007 14,50.6966104 C14,48.6589322 15.1104279,46.8755455 16.806915,45.9202793 C16.4813265,45.1557317 16.2842599,44.2623654 16.2842599,43.3706721 C16.2842599,39.8657987 19.2196966,37 22.8748551,37 C25.159115,37.0635729 27.0509551,38.0188391 28.2265007,39.5479342" id="Fill-1" stroke="#159ED9" fill="#149DD8"></path>
                </g>
            </g>
        </g>
    </g>
</svg>