<?xml version="1.0" encoding="UTF-8"?>
<svg width="220px" height="122px" viewBox="0 0 220 122" version="1.1" xmlns="http://www.w3.org/2000/svg" xmlns:xlink="http://www.w3.org/1999/xlink">
    <!-- Generator: Sketch 53 (72520) - https://sketchapp.com -->
    <title>install</title>
    <desc>Created with Sketch.</desc>
    <g id="home" stroke="none" stroke-width="1" fill="none" fill-rule="evenodd">
        <g id="home-with-getting-started" transform="translate(-93.000000, -1002.000000)" fill-rule="nonzero">
            <g id="install" transform="translate(93.000000, 1002.000000)">
                <g id="Group-9" transform="translate(0.655284, 100.835616)">
                    <path d="M213.307449,21.0990738 L5.87043277,21.0990738 C1.77232406,21.0990738 -0.593177899,20.5546659 0.569374298,19.895536 L29.8082353,3.31925495 C30.4186875,2.97091735 33.259983,2.69349878 36.1596305,2.69349878 L183.009274,2.69349878 C185.91341,2.69349878 188.754706,2.9688315 189.365158,3.31925495 L218.59953,19.8913643 C219.762083,20.5546659 217.401069,21.0990738 213.307449,21.0990738 Z" id="Path" fill="#E6E7E8"></path>
                    <path d="M218.8958,17.3921537 L217.419016,17.3921537 L217.419016,17.8825517 L189.364618,1.97278935 C188.754154,1.62429377 185.912804,1.34674939 183.008613,1.34674939 L36.1561802,1.34674939 C33.2564776,1.34674939 30.4151281,1.62220697 29.8046644,1.97278935 L2.56720987,17.4151085 L0.273482237,17.4151085 L0.273482237,18.890476 L0.273482237,18.890476 C0.313880571,19.3871344 2.51783413,19.7523244 5.86640714,19.7523244 L213.307363,19.7523244 C216.67838,19.7523244 218.868867,19.3850476 218.8958,18.8863024 L218.8958,18.8863024 L218.8958,17.3921537 Z" id="Path" fill="#EDEDED"></path>
                    <path d="M213.307449,18.405575 L5.87043277,18.405575 C1.77232406,18.405575 -0.593177899,17.8611671 0.569374298,17.2020373 L29.8082353,0.625756176 C30.4186875,0.277418571 33.259983,0 36.1596305,0 L183.009274,0 C185.91341,0 188.754706,0.275332717 189.365158,0.625756176 L218.59953,17.1978656 C219.762083,17.8611671 217.401069,18.405575 213.307449,18.405575 Z" id="Path" fill="#FFFFFF"></path>
                    <path d="M196.522835,10.3250786 L23.0996068,10.3250786 C21.9016661,10.3250786 21.1523923,10.1864127 21.4305658,10.0171587 L36.0885144,1.10175345 C36.2814412,0.98551875 37.2371017,0.897832926 38.2286556,0.897832926 L181.393786,0.897832926 C182.380853,0.897832926 183.341001,0.991636366 183.529441,1.10175345 L198.187389,10.0171587 C198.465563,10.1864127 197.720776,10.3250786 196.522835,10.3250786 Z" id="Path" fill="#EDEDED"></path>
                    <path d="M135.825199,17.0588256 L83.7838975,17.0588256 C82.4350948,17.0588256 81.4234929,16.8946355 81.5358931,16.6913526 L83.8423456,11.9787071 C83.9277697,11.8086531 84.9843318,11.671828 86.2072462,11.671828 L133.415338,11.671828 C134.638253,11.671828 135.694815,11.8086531 135.780239,11.9787071 L138.086691,16.6913526 C138.163124,16.8946355 137.174002,17.0588256 135.825199,17.0588256 Z" id="Path" fill="#EDEDED"></path>
                    <path d="M41.2169311,6.28747532 L32.2864103,6.28747532 C31.8422207,6.272858 31.3989024,6.31915853 31.0345104,6.41822479 L29.0368939,7.49211377 C28.8922701,7.56882012 29.2402712,7.63157987 29.8097275,7.63157987 L48.2537837,7.63157987 C48.8277595,7.63157987 49.3791378,7.56882012 49.4830862,7.49211377 L50.9835583,6.41822479 C51.0875067,6.34500508 50.7169081,6.28747532 50.1655298,6.28747532 L41.2169311,6.28747532 Z" id="Path" fill="#6D6E71"></path>
                    <path d="M61.2173314,7.63157987 L53.2163856,7.63157987 C52.6597212,7.63157987 52.2753578,7.57917717 52.3592992,7.51280042 L53.8039758,6.39487615 C53.8834993,6.33373967 54.3915659,6.28483048 54.9305584,6.28483048 L62.7017697,6.28483048 C63.2451802,6.28483048 63.6295437,6.33373967 63.5632741,6.39487615 L62.3704219,7.51280042 C62.2864804,7.57917717 61.7784138,7.63157987 61.2173314,7.63157987 Z" id="Path" fill="#6D6E71"></path>
                    <path d="M74.5727321,7.63157987 L66.2904092,7.63157987 C65.7102354,7.63157987 65.2945204,7.57917717 65.3767497,7.51280042 L66.5325289,6.39487615 C66.5964851,6.33373967 67.1035661,6.28483048 67.6654666,6.28483048 L75.6691235,6.28483048 C76.231024,6.28483048 76.6467391,6.33373967 76.5827829,6.39487615 L75.6919649,7.51280042 C75.6508503,7.57917717 75.139201,7.63157987 74.5727321,7.63157987 Z" id="Path" fill="#6D6E71"></path>
                    <path d="M87.5179987,7.63157987 L79.3374942,7.63157987 C78.7638199,7.63157987 78.3392106,7.57917717 78.3888989,7.51280042 L79.1929463,6.39487615 C79.2381175,6.33373967 79.7214494,6.28483048 80.2770551,6.28483048 L88.2091181,6.28483048 C88.7602068,6.28483048 89.1848161,6.33373967 89.1577134,6.39487615 L88.6111418,7.51280042 C88.579522,7.57917717 88.091673,7.63157987 87.5179987,7.63157987 Z" id="Path" fill="#6D6E71"></path>
                    <path d="M113.725059,7.63157987 L105.453347,7.63157987 C104.873917,7.63157987 104.41311,7.57917717 104.422235,7.51280042 L104.549983,6.39487615 C104.549983,6.33373967 105.006228,6.28483048 105.581096,6.28483048 L113.588186,6.28483048 C114.149367,6.28483048 114.610174,6.33373967 114.614736,6.39487615 L114.747047,7.51280042 C114.756172,7.57917717 114.295365,7.63157987 113.725059,7.63157987 Z" id="Path" fill="#6D6E71"></path>
                    <path d="M100.496633,7.63157987 L92.3810709,7.63157987 C91.8167437,7.63157987 91.3778226,7.57917717 91.4046953,7.51280042 L91.852574,6.39487615 C91.8749679,6.33373967 92.3452406,6.28483048 92.8916526,6.28483048 L100.756403,6.28483048 C101.307293,6.28483048 101.741736,6.33373967 101.728299,6.39487615 L101.526754,7.51280042 C101.549148,7.57917717 101.06096,7.63157987 100.496633,7.63157987 Z" id="Path" fill="#6D6E71"></path>
                    <path d="M126.800247,7.63157987 L118.693993,7.63157987 C118.130002,7.63157987 117.660009,7.57917717 117.646581,7.51280042 L117.440679,6.39487615 C117.440679,6.33373967 117.888291,6.28483048 118.416473,6.28483048 L126.276541,6.28483048 C126.822628,6.28483048 127.288145,6.33373967 127.315001,6.39487615 L127.762613,7.51280042 C127.807374,7.57917717 127.368715,7.63157987 126.800247,7.63157987 Z" id="Path" fill="#6D6E71"></path>
                    <path d="M140.280775,7.63157987 L132.100569,7.63157987 C131.526915,7.63157987 131.039084,7.57917717 131.007465,7.51280042 L130.460914,6.39487615 C130.429295,6.33373967 130.853889,6.28483048 131.409474,6.28483048 L139.341248,6.28483048 C139.896834,6.28483048 140.380148,6.33373967 140.425318,6.39487615 L141.229336,7.51280042 C141.279022,7.57917717 140.849912,7.63157987 140.280775,7.63157987 Z" id="Path" fill="#6D6E71"></path>
                    <path d="M153.328789,7.63157987 L145.062086,7.63157987 C144.483007,7.63157987 143.972322,7.57917717 143.922166,7.51280042 L143.033028,6.39487615 C142.982871,6.33373967 143.397803,6.28483048 143.944964,6.28483048 L151.960884,6.28483048 C152.521725,6.28483048 153.02785,6.33373967 153.091685,6.39487615 L154.245285,7.51280042 C154.30912,7.57917717 153.898749,7.63157987 153.328789,7.63157987 Z" id="Path" fill="#6D6E71"></path>
                    <path d="M166.400786,7.63157987 L158.385957,7.63157987 C157.828634,7.63157987 157.315544,7.57917717 157.249196,7.51280042 L156.054933,6.39487615 C155.988585,6.33373967 156.373403,6.28483048 156.917456,6.28483048 L164.680163,6.28483048 C165.224216,6.28483048 165.72846,6.33373967 165.808078,6.39487615 L167.258886,7.51280042 C167.342926,7.57917717 166.958108,7.63157987 166.400786,7.63157987 Z" id="Path" fill="#6D6E71"></path>
                    <path d="M46.2903377,9.87616219 L38.8716905,9.87616219 C38.2789173,9.87616219 37.8927165,9.80536532 38.0004935,9.71955095 L39.9090437,8.22852613 C40.01233,8.14700248 40.5601962,8.08049633 41.1350066,8.08049633 L48.320137,8.08049633 C48.8949475,8.08049633 49.2856389,8.14700248 49.1913341,8.22852613 L47.5432448,9.71955095 C47.4399586,9.80536532 46.8831109,9.87616219 46.2903377,9.87616219 Z" id="Path" fill="#6D6E71"></path>
                    <path d="M33.7960185,9.87616219 L26.2731014,9.87616219 C25.6809576,9.87616219 25.3086248,9.80550746 25.438717,9.71986538 L27.6816858,8.2318341 C28.0563353,8.11769984 28.4994337,8.06577 28.9422342,8.0841015 L36.2273966,8.0841015 C36.7971107,8.0841015 37.1739295,8.15047412 37.066267,8.2318341 L35.0789967,9.71986538 C34.9623623,9.80550746 34.4016201,9.87616219 33.7960185,9.87616219 Z" id="Path" fill="#6D6E71"></path>
                    <path d="M59.2422376,9.87616219 L51.909527,9.87616219 C51.3204108,9.87616219 50.9142777,9.80536532 51.0169268,9.71955095 L52.5745141,8.22852613 C52.6593111,8.14700248 53.1948712,8.08049633 53.7616724,8.08049633 L60.871233,8.08049633 C61.4424971,8.08049633 61.8486302,8.14700248 61.7638332,8.22852613 L60.4561739,9.71955095 C60.3803028,9.80536532 59.8402797,9.87616219 59.2422376,9.87616219 Z" id="Path" fill="#6D6E71"></path>
                    <path d="M180.742424,9.87616219 L173.325851,9.87616219 C172.733244,9.87616219 172.176552,9.80536532 172.077784,9.71955095 L170.425666,8.22852613 C170.335877,8.14700248 170.726459,8.08049633 171.296619,8.08049633 L178.479741,8.08049633 C179.054391,8.08049633 179.602104,8.14700248 179.70985,8.22852613 L181.617867,9.71955095 C181.725614,9.80536532 181.335032,9.87616219 180.742424,9.87616219 Z" id="Path" fill="#6D6E71"></path>
                    <path d="M168.134402,9.87616219 L160.517966,9.87616219 C159.918104,9.87616219 159.36823,9.8064481 159.28643,9.72194618 L158.75019,9.12832017 C158.672935,9.0459308 159.09102,8.97832926 159.681794,8.97832926 L167.180076,8.97832926 C167.770849,8.97832926 168.320723,9.0459308 168.411611,9.12832017 L169.052374,9.72194618 C169.147806,9.8064481 168.734265,9.87616219 168.134402,9.87616219 Z" id="Path" fill="#6D6E71"></path>
                    <path d="M193.366023,9.87616219 L185.982183,9.87616219 C185.391117,9.87616219 184.817963,9.80672557 184.701541,9.72255997 L183.90002,9.13129664 C183.788076,9.04923518 184.164209,8.9819027 184.746318,8.9819027 L191.995826,8.9819027 C192.447565,8.96357386 192.899496,9.01611034 193.280945,9.13129664 L194.176499,9.72255997 C194.31531,9.80672557 193.939177,9.87616219 193.366023,9.87616219 Z" id="Path" fill="#6D6E71"></path>
                    <path d="M72.6447842,9.87616219 L64.0817784,9.87616219 C63.4834106,9.87616219 63.0573002,9.80536532 63.1298296,9.71955095 L64.3764292,8.22852613 C64.4444255,8.14700248 64.9702639,8.08049633 65.5504993,8.08049633 L73.8369867,8.08049633 C74.4172222,8.08049633 74.8433326,8.14700248 74.7889355,8.22852613 L73.8279206,9.71955095 C73.7735235,9.80536532 73.243152,9.87616219 72.6447842,9.87616219 Z" id="Path" fill="#6D6E71"></path>
                    <path d="M155.087131,9.87616219 L146.525333,9.87616219 C145.926732,9.87616219 145.396155,9.80536532 145.337202,9.71955095 L144.380348,8.22852613 C144.32593,8.14700248 144.752206,8.08049633 145.332667,8.08049633 L153.622374,8.08049633 C154.202835,8.08049633 154.728877,8.14700248 154.7969,8.22852613 L156.039449,9.71955095 C156.112007,9.80536532 155.685731,9.87616219 155.087131,9.87616219 Z" id="Path" fill="#6D6E71"></path>
                    <path d="M178.391679,6.28753447 L169.448495,6.28753447 C168.892372,6.28753447 168.54423,6.34506171 168.630135,6.41827819 L170.126694,7.49211991 C170.235206,7.56882289 170.786808,7.63157987 171.361016,7.63157987 L189.812549,7.63157987 C190.382236,7.63157987 190.716814,7.56882289 190.585695,7.49211991 L188.582748,6.41827819 C188.220107,6.31906306 187.777864,6.27272831 187.334862,6.28753447 L178.391679,6.28753447 Z" id="Path" fill="#6D6E71"></path>
                    <path d="M40.8910016,4.49216438 L35.1745637,4.49216438 C34.7580288,4.47640246 34.3416553,4.52310142 33.9983052,4.6240893 L32.1759956,5.69645052 C32.0423299,5.77372084 32.3764943,5.83591402 32.9200682,5.83591402 L44.7182972,5.83591402 C45.2574157,5.83591402 45.7876231,5.77372084 45.8945557,5.69645052 L47.3916119,4.6240893 C47.494089,4.55058827 47.1510136,4.49216438 46.6252617,4.49216438 L40.8910016,4.49216438 Z" id="Path" fill="#6D6E71"></path>
                    <path d="M70.04768,5.83591402 L62.2006399,5.83591402 C61.6504451,5.83591402 61.2626029,5.78302624 61.3347596,5.71691653 L62.5298548,4.60060672 C62.5929919,4.54016355 63.0800495,4.48916463 63.6122051,4.48916463 L71.224736,4.48916463 C71.7568916,4.48916463 72.1492436,4.54016355 72.095126,4.60060672 L71.1390499,5.71691653 C71.0849324,5.78302624 70.5933649,5.83591402 70.04768,5.83591402 Z" id="Path" fill="#6D6E71"></path>
                    <path d="M57.5531036,5.83591402 L49.6141172,5.83591402 C49.0574756,5.83591402 48.6787769,5.78318706 48.7700296,5.71727835 L50.29395,4.60436281 C50.6274723,4.51494174 51.0254848,4.4757034 51.420921,4.49325956 L59.127213,4.49325956 C59.665604,4.49325956 60.0397402,4.54410342 59.9713007,4.60436281 L58.6937626,5.71727835 C58.6161978,5.78318706 58.1051826,5.83591402 57.5531036,5.83591402 Z" id="Path" fill="#6D6E71"></path>
                    <path d="M82.5210828,5.83591402 L74.7886512,5.83591402 C74.2464922,5.83591402 73.8509828,5.78302624 73.899866,5.71691653 L74.7886512,4.60060672 C74.8375344,4.54016355 75.3041467,4.48916463 75.8285299,4.48916463 L83.3298773,4.48916463 C83.8542606,4.48916463 84.254214,4.54016355 84.2186626,4.60060672 L83.5831811,5.71691653 C83.529854,5.78302624 83.0587978,5.83591402 82.5210828,5.83591402 Z" id="Path" fill="#6D6E71"></path>
                    <path d="M95.018961,5.83591402 L87.3763003,5.83591402 C86.8404356,5.83591402 86.4363409,5.78302624 86.4670873,5.71691653 L87.0249136,4.60060672 C87.05566,4.54016355 87.4992857,4.48916463 88.0175811,4.48916463 L95.4362327,4.48916463 C95.9545281,4.48916463 96.3586228,4.54016355 96.3410535,4.60060672 L96.0379824,5.71691653 C95.9984514,5.78302624 95.5504334,5.83591402 95.018961,5.83591402 Z" id="Path" fill="#6D6E71"></path>
                    <path d="M120.516712,5.83591402 L112.657215,5.83591402 C112.106147,5.83591402 111.658968,5.78302624 111.654452,5.71691653 L111.604765,4.60060672 C111.604765,4.54016355 112.033876,4.48916463 112.566876,4.48916463 L120.196008,4.48916463 C120.729009,4.48916463 121.17167,4.54016355 121.189738,4.60060672 L121.478823,5.71691653 C121.514958,5.78302624 121.081331,5.83591402 120.516712,5.83591402 Z" id="Path" fill="#6D6E71"></path>
                    <path d="M107.883405,5.83591402 L100.004647,5.83591402 C99.4522282,5.83591402 99.0175381,5.78302624 99.0356502,5.71691653 L99.2982754,4.60060672 C99.2982754,4.54016355 99.7510776,4.48916463 100.289912,4.48916463 L107.946798,4.48916463 C108.481104,4.48916463 108.911266,4.54016355 108.911266,4.60060672 L108.888626,5.71691653 C108.87957,5.78302624 108.431296,5.83591402 107.883405,5.83591402 Z" id="Path" fill="#6D6E71"></path>
                    <path d="M133.554286,5.83591402 L125.588958,5.83591402 C125.03047,5.83591402 124.563537,5.78302624 124.540648,5.71691653 L124.174426,4.60060672 C124.174426,4.54016355 124.57727,4.48916463 125.117448,4.48916463 L132.844731,4.48916463 C133.384909,4.48916463 133.851842,4.54016355 133.883886,4.60060672 L134.497308,5.71691653 C134.53393,5.78302624 134.108197,5.83591402 133.554286,5.83591402 Z" id="Path" fill="#6D6E71"></path>
                    <path d="M145.749083,5.83591402 L138.009817,5.83591402 C137.467178,5.83591402 137.000154,5.78295196 136.960123,5.7167494 L136.297393,4.60076324 C136.26181,4.54023518 136.657669,4.48916463 137.186964,4.48916463 L144.681598,4.48916463 C145.206444,4.48916463 145.673469,4.54023518 145.722396,4.60076324 L146.611966,5.7186409 C146.683132,5.78295196 146.287273,5.83591402 145.749083,5.83591402 Z" id="Path" fill="#6D6E71"></path>
                    <path d="M158.771361,5.83591402 L150.947285,5.83591402 C150.3987,5.83591402 149.908571,5.78295196 149.854612,5.7167494 L148.869857,4.60076324 C148.815898,4.54023518 149.202605,4.48916463 149.733204,4.48916463 L157.327954,4.48916463 C157.858552,4.48916463 158.344185,4.54023518 158.411634,4.60076324 L159.630211,5.7186409 C159.702157,5.78295196 159.315449,5.83591402 158.771361,5.83591402 Z" id="Path" fill="#6D6E71"></path>
                    <path d="M171.350681,5.83591402 L163.433436,5.83591402 C162.878319,5.83591402 162.368703,5.78310592 162.291351,5.71709579 L160.994561,4.60435361 C160.921758,4.54400149 161.29942,4.49307939 161.836337,4.49307939 L169.521524,4.49307939 C169.917241,4.47598045 170.315213,4.51522423 170.649959,4.60435361 L172.197007,5.71898179 C172.27891,5.78310592 171.914898,5.83591402 171.350681,5.83591402 Z" id="Path" fill="#6D6E71"></path>
                    <path d="M56.6211885,2.24458231 L49.556912,2.24458231 C49.0388957,2.24458231 48.6859111,2.20961669 48.7684269,2.16590965 L49.3414539,1.87452941 C49.6616363,1.8126682 50.0370154,1.78604363 50.4095762,1.79877054 L57.3775841,1.79877054 C57.886432,1.79877054 58.2440009,1.83227927 58.1752376,1.87452941 L57.6847265,2.16590965 C57.6159633,2.20961669 57.1392049,2.24458231 56.6211885,2.24458231 Z" id="Path" fill="#6D6E71"></path>
                    <path d="M45.29086,2.24178804 L38.3016022,2.24178804 C37.7897511,2.24178804 37.4545567,2.20700954 37.5496794,2.1635364 L38.2200684,1.87371552 C38.5474854,1.81305185 38.9260516,1.78670178 39.3026559,1.79836209 L46.1877317,1.79836209 C46.6905234,1.79836209 47.0302476,1.83169149 46.9487138,1.87371552 L46.3598586,2.1635364 C46.0399784,2.22640793 45.6643727,2.2539026 45.29086,2.24178804 L45.29086,2.24178804 Z" id="Path" fill="#6D6E71"></path>
                    <path d="M68.0360473,2.24458231 L61.2232267,2.24458231 C60.7236493,2.24458231 60.3699662,2.20937318 60.4362818,2.16536176 L60.8783857,1.87195231 C60.9447013,1.82940794 61.3912262,1.79566585 61.8863825,1.79566585 L68.6063613,1.79566585 C69.0970966,1.79566585 69.4507797,1.82940794 69.4021483,1.87195231 L69.030781,2.16536176 C68.9954127,2.20937318 68.5533088,2.24458231 68.0360473,2.24458231 Z" id="Path" fill="#6D6E71"></path>
                    <path d="M79.3493305,2.24458231 L72.477711,2.24458231 C71.9728391,2.24458231 71.6064719,2.20937318 71.6556187,2.16536176 L72.0041144,1.87195231 C72.0532612,1.82940794 72.4955826,1.79566585 72.9959866,1.79566585 L79.7961198,1.79566585 C80.292056,1.79566585 80.6628911,1.82940794 80.6271479,1.87195231 L80.3546065,2.16536176 C80.3054596,2.20937318 79.8676061,2.24458231 79.3493305,2.24458231 Z" id="Path" fill="#6D6E71"></path>
                    <path d="M102.077251,2.24458231 L95.0127119,2.24458231 C94.4953476,2.24458231 94.097023,2.20937318 94.097023,2.16536176 L94.2435332,1.87195231 C94.2435332,1.82940794 94.7013776,1.79566585 95.2004281,1.79566585 L102.159663,1.79566585 C102.672449,1.79566585 103.075352,1.82940794 103.075352,1.87195231 L103.011254,2.16536176 C103.020411,2.20937318 102.594616,2.24458231 102.077251,2.24458231 Z" id="Path" fill="#6D6E71"></path>
                    <path d="M90.7133956,2.24458231 L83.7377321,2.24458231 C83.2262136,2.24458231 82.8323896,2.20937318 82.8776568,2.16536176 L83.1266259,1.87195231 C83.1628396,1.82940794 83.5792972,1.79566585 84.0998691,1.79566585 L90.9849983,1.79566585 C91.4874634,1.79566585 91.8903408,1.82940794 91.8496004,1.87195231 L91.682112,2.16536176 C91.6594784,2.20937318 91.2249141,2.24458231 90.7133956,2.24458231 Z" id="Path" fill="#6D6E71"></path>
                    <path d="M112.981202,2.24458231 L106.200034,2.24458231 C105.702778,2.24458231 105.319935,2.20937318 105.319935,2.16536176 L105.359539,1.87195231 C105.359539,1.82940794 105.764385,1.79566585 106.239639,1.79566585 L112.928396,1.79566585 C113.421251,1.79566585 113.808495,1.82940794 113.808495,1.87195231 L113.8481,2.16536176 C113.874503,2.20937318 113.478458,2.24458231 112.981202,2.24458231 Z" id="Path" fill="#6D6E71"></path>
                    <path d="M124.610386,2.24458231 L117.558725,2.24458231 C117.041633,2.24458231 116.616063,2.20937318 116.606911,2.16536176 L116.542846,1.87195231 C116.542846,1.82940794 116.936385,1.79566585 117.458052,1.79566585 L124.413616,1.79566585 C124.926132,1.79566585 125.351702,1.82940794 125.374582,1.87195231 L125.521015,2.16536176 C125.530167,2.20937318 125.145781,2.24458231 124.610386,2.24458231 Z" id="Path" fill="#6D6E71"></path>
                    <path d="M135.868678,2.24458231 L128.907311,2.24458231 C128.395845,2.24458231 127.961325,2.20937318 127.938694,2.16536176 L127.766697,1.87195231 C127.744065,1.82940794 128.133323,1.79566585 128.635736,1.79566585 L135.515631,1.79566585 C136.018044,1.79566585 136.45709,1.82940794 136.4933,1.87195231 L136.742244,2.16536176 C136.773927,2.20937318 136.393723,2.24458231 135.868678,2.24458231 Z" id="Path" fill="#6D6E71"></path>
                    <path d="M147.139664,2.24458231 L140.247782,2.24458231 C139.742407,2.24458231 139.299645,2.20937318 139.263866,2.16536176 L138.991053,1.87195231 C138.955274,1.82940794 139.326479,1.79566585 139.822909,1.79566585 L146.620872,1.79566585 C147.117302,1.79566585 147.560064,1.82940794 147.613732,1.87195231 L147.962575,2.16536176 C148.011771,2.20937318 147.645039,2.24458231 147.139664,2.24458231 Z" id="Path" fill="#6D6E71"></path>
                    <path d="M158.409309,2.24458231 L151.58737,2.24458231 C151.087772,2.24458231 150.641229,2.20937318 150.588175,2.16536176 L150.216793,1.87195231 C150.163738,1.82940794 150.521857,1.79566585 151.012612,1.79566585 L157.732863,1.79566585 C158.223618,1.79566585 158.674582,1.82940794 158.736479,1.87195231 L159.178601,2.16536176 C159.258183,2.20937318 158.908907,2.24458231 158.409309,2.24458231 Z" id="Path" fill="#6D6E71"></path>
                    <path d="M170.061286,2.24458231 L162.99701,2.24458231 C162.478994,2.24458231 162.002235,2.20961669 161.928888,2.16590965 L161.442961,1.87452941 C161.374198,1.83227927 161.731766,1.79877054 162.240614,1.79877054 L169.208622,1.79877054 C169.581183,1.78604363 169.956562,1.8126682 170.276744,1.87452941 L170.849771,2.16590965 C170.932287,2.20961669 170.579303,2.24458231 170.061286,2.24458231 Z" id="Path" fill="#6D6E71"></path>
                    <path d="M181.316088,2.24170389 L174.332668,2.24170389 C173.956308,2.25403035 173.577692,2.2265483 173.254813,2.16346701 L172.670597,1.87370079 C172.584549,1.83168469 172.928739,1.79836158 173.431436,1.79836158 L180.315222,1.79836158 C180.691755,1.78670347 181.070251,1.81304857 181.397606,1.87370079 L182.06787,2.16346701 C182.162975,2.20693195 181.845958,2.24170389 181.316088,2.24170389 Z" id="Path" fill="#6D6E71"></path>
                    <path d="M179.141965,4.49216438 L173.905267,4.49216438 C173.369799,4.49216438 173.020383,4.55058827 173.124754,4.6240893 L174.681242,5.69645052 C174.794689,5.77372084 175.330157,5.83591402 175.883777,5.83591402 L186.679361,5.83591402 C187.232981,5.83591402 187.586934,5.77372084 187.437185,5.69645052 L185.581197,4.6240893 C185.231502,4.52310142 184.807433,4.47640246 184.3832,4.49216438 L179.141965,4.49216438 Z" id="Path" fill="#6D6E71"></path>
                    <path d="M43.3714559,2.24761752 L37.7451052,2.24761752 C37.3383781,2.23177662 36.9317001,2.2782702 36.5925006,2.37938937 L34.8658715,3.44775496 C34.7428663,3.52479081 35.0708802,3.58763584 35.6039029,3.58763584 L44.3008288,3.58763584 C44.7120759,3.60589061 45.1240236,3.55609319 45.4579892,3.44775496 L46.9431635,2.37938937 C47.04339,2.30640804 46.7062645,2.24761752 46.1869091,2.24761752 L43.3714559,2.24761752 Z" id="Path" fill="#6D6E71"></path>
                    <path d="M68.7502453,3.5913317 L61.2603838,3.5913317 C60.7368989,3.5913317 60.3655378,3.5383582 60.4371255,3.47316005 L61.6004253,2.35664164 C61.6675388,2.29551837 62.1328587,2.24458231 62.6384468,2.24458231 L69.9180194,2.24458231 C70.4280816,2.24458231 70.8128654,2.29551837 70.745752,2.35664164 L69.8016894,3.47316005 C69.7435244,3.5383582 69.2737302,3.5913317 68.7502453,3.5913317 Z" id="Path" fill="#6D6E71"></path>
                    <path d="M56.730913,3.5913317 L49.1316729,3.5913317 C48.6005433,3.5913317 48.223759,3.53852457 48.3236295,3.47353118 L49.7989897,2.36051929 C50.1210334,2.27023027 50.5014742,2.23089543 50.8794074,2.2488119 L58.2652876,2.2488119 C58.778259,2.2488119 59.1414246,2.29958798 59.073331,2.36051929 L57.8249493,3.47353118 C57.7523162,3.53852457 57.2620426,3.5913317 56.730913,3.5913317 Z" id="Path" fill="#6D6E71"></path>
                    <path d="M80.7632507,3.5913317 L73.3963276,3.5913317 C72.8814351,3.5913317 72.5161695,3.5383582 72.5513758,3.47316005 L73.4315339,2.35664164 C73.4799426,2.29551837 73.9244224,2.24458231 74.4261125,2.24458231 L81.5817977,2.24458231 C82.0834878,2.24458231 82.4619557,2.29551837 82.4223486,2.35664164 L81.7754324,3.47316005 C81.7270237,3.5383582 81.2781431,3.5913317 80.7632507,3.5913317 Z" id="Path" fill="#6D6E71"></path>
                    <path d="M93.1637303,3.5913317 L85.5774416,3.5913317 C85.0472171,3.5913317 84.643884,3.5383582 84.671075,3.47316005 L85.2738088,2.35664164 C85.3055316,2.29551837 85.7496513,2.24458231 86.2662803,2.24458231 L93.6395728,2.24458231 C94.15167,2.24458231 94.5459395,2.29551837 94.5459395,2.35664164 L94.1697973,3.47316005 C94.1426063,3.5383582 93.6939548,3.5913317 93.1637303,3.5913317 Z" id="Path" fill="#6D6E71"></path>
                    <path d="M117.436421,3.5913317 L109.868033,3.5913317 C109.340006,3.5913317 108.911266,3.5383582 108.911266,3.47316005 L108.911266,2.35664164 C108.911266,2.29551837 109.33098,2.24458231 109.840955,2.24458231 L117.183691,2.24458231 C117.698178,2.24458231 118.122405,2.29551837 118.131431,2.35664164 L118.334519,3.47316005 C118.384162,3.5383582 117.964449,3.5913317 117.436421,3.5913317 Z" id="Path" fill="#6D6E71"></path>
                    <path d="M105.171255,3.5913317 L97.6864218,3.5913317 C97.1636006,3.5913317 96.7569619,3.5383582 96.7927104,3.47316005 L97.0965723,2.35664164 C97.0965723,2.29551837 97.543428,2.24458231 98.048375,2.24458231 L105.323186,2.24458231 C105.828133,2.24458231 106.239241,2.29551837 106.216898,2.35664164 L106.127527,3.47316005 C106.11859,3.5383582 105.694077,3.5913317 105.171255,3.5913317 Z" id="Path" fill="#6D6E71"></path>
                    <path d="M129.533197,3.5913317 L121.853816,3.5913317 C121.317085,3.5913317 120.867516,3.5383582 120.853753,3.47316005 L120.583094,2.35664164 C120.583094,2.29551837 120.977614,2.24458231 121.500583,2.24458231 L128.959767,2.24458231 C129.482735,2.24458231 129.927717,2.29551837 129.955242,2.35664164 L130.455273,3.47316005 C130.505735,3.5383582 130.069928,3.5913317 129.533197,3.5913317 Z" id="Path" fill="#6D6E71"></path>
                    <path d="M141.710964,3.5913317 L134.258802,3.5913317 C133.737952,3.5913317 133.288329,3.5383582 133.257167,3.47316005 L132.705155,2.35664164 C132.678445,2.29551837 133.061292,2.24458231 133.568787,2.24458231 L140.820622,2.24458231 C141.323665,2.24458231 141.768836,2.29551837 141.813353,2.35664164 L142.579047,3.47316005 C142.601305,3.5383582 142.231814,3.5913317 141.710964,3.5913317 Z" id="Path" fill="#6D6E71"></path>
                    <path d="M153.847876,3.5913317 L146.274842,3.5913317 C145.745544,3.5913317 145.275057,3.5383582 145.225294,3.47316005 L144.379322,2.35664164 C144.334083,2.29551837 144.714092,2.24458231 145.225294,2.24458231 L152.585704,2.24458231 C153.096906,2.24458231 153.56287,2.29551837 153.621681,2.35664164 L154.693848,3.47316005 C154.757183,3.5383582 154.377174,3.5913317 153.847876,3.5913317 Z" id="Path" fill="#6D6E71"></path>
                    <path d="M166.02293,3.5913317 L158.654479,3.5913317 C158.139788,3.5913317 157.673486,3.53853257 157.607499,3.47354902 L156.503332,2.36070569 C156.441745,2.29978361 156.79807,2.24901521 157.299564,2.24901521 L164.45246,2.24901521 C164.815976,2.23058212 165.182232,2.26998495 165.490642,2.36070569 L166.810365,3.47354902 C166.889548,3.53853257 166.537622,3.5913317 166.02293,3.5913317 Z" id="Path" fill="#6D6E71"></path>
                    <path d="M173.857736,2.2476171 L168.931253,2.2476171 C168.4262,2.2476171 168.093928,2.30639949 168.182534,2.37937074 L169.511621,3.44758865 C169.832544,3.55635069 170.230795,3.60624171 170.628054,3.5874502 L183.582224,3.5874502 C184.100568,3.5874502 184.423979,3.52461385 184.304362,3.44758865 L182.625281,2.37937074 C182.295423,2.27826554 181.899944,2.23177839 181.504418,2.2476171 L173.857736,2.2476171 Z" id="Path" fill="#6D6E71"></path>
                    <path d="M141.594322,9.87616219 L78.0276929,9.87616219 C77.4335702,9.87616219 76.992479,9.80536532 77.0419893,9.71955095 L77.9151696,8.22852613 C77.9646799,8.14700248 78.468784,8.08049633 79.044903,8.08049633 L140.577112,8.08049633 C141.153231,8.08049633 141.657335,8.14700248 141.706845,8.22852613 L142.575525,9.71955095 C142.629536,9.80536532 142.188445,9.87616219 141.594322,9.87616219 Z" id="Path" fill="#6D6E71"></path>
                </g>
                <rect id="Rectangle" fill="#FFFFFF" x="31.7423921" y="0.659907201" width="157.376644" height="101.455121" rx="6"></rect>
                <path d="M65.2053986,-27.3839042 L155.660519,-27.3839042 C158.698085,-27.3839042 161.160519,-24.9214704 161.160519,-21.8839042 L161.160519,123.617353 C161.160519,126.654919 158.698085,129.117353 155.660519,129.117353 L65.2053986,129.117353 C62.1678324,129.117353 59.7053986,126.654919 59.7053986,123.617353 L59.7053986,-21.8839042 C59.7053986,-24.9214704 62.1678324,-27.3839042 65.2053986,-27.3839042 Z" id="Rectangle" fill="#6D6E71" transform="translate(110.432959, 50.866724) rotate(90.000000) translate(-110.432959, -50.866724) "></path>
                <rect id="Rectangle" fill="#444F5A" x="38.6961081" y="7.64953653" width="143.464723" height="85.7430444"></rect>
                <g id="Asset-1" transform="translate(1.280148, 61.892393)">
                    <path d="M4.30734504,1.28819967 L3.00556586,5.25046382 L27.2912801,5.25046382 L26.0010895,1.28819967 C26.0010895,1.28819967 14.5477504,0.560436868 4.30734504,1.28819967 Z" id="Path" fill="#F7F0E9"></path>
                    <path d="M25.9723487,2.39332096 L27.2912801,5.25046382 L3.00556586,4.05836794 C3.00556586,4.05836794 24.775833,4.75159761 25.9723487,2.39332096 Z" id="Path" fill="#D8CEB5" style="mix-blend-mode: multiply;"></path>
                    <polygon id="Path" fill="#321F14" points="27.2912801 15.4990061 26.887753 15.0019215 1.96899221 15.0019215 1.57699443 15.4990061"></polygon>
                    <path d="M23.4127615,43.1646721 L28.7198516,6.67903525 L0.148423006,6.67903525 L5.45551307,43.1646721 C5.45551307,43.1646721 16.3485943,44.6434178 23.4127615,43.1646721 Z" id="Path" fill="#F7F0E9"></path>
                    <path d="M23.5394046,43.8165535 L28.7198516,6.67903525 L0.148423006,6.67903525 L0.661729489,7.24730993 C0.661729489,7.24730993 23.7131391,7.50840911 25.5373514,8.57584398 C28.2302362,10.180836 22.5562253,44.311874 23.5394046,43.8165535 Z" id="Path" fill="#D8CEB5" style="mix-blend-mode: multiply;"></path>
                    <rect id="Rectangle" fill="#FFFFFF" x="0.148423006" y="3.82189239" width="28.5714286" height="2.85714286"></rect>
                    <polygon id="Path" fill="#5F4337" points="25.3159188 30.9647495 3.54851268 30.9647495 1.57699443 16.6790353 27.2912801 16.6790353"></polygon>
                    <path d="M17.4514225,24.8127312 C18.8598901,22.2091517 19.637241,19.0136677 16.8126093,17.1619668 C16.8126093,17.1619668 14.1188188,15.3542587 11.1787389,18.7337129 C8.88901704,21.3652879 7.80765258,24.4127958 9.66251973,26.7724147 C11.9022141,29.6119562 16.0391066,27.4283088 17.4514225,24.8127312 Z M13.0489992,24.4127958 C11.151801,25.7645775 10.6900084,27.3123275 10.6900084,27.3123275 C10.4321742,25.4366304 11.194132,24.4047971 13.8340467,22.2731413 C16.4739614,20.1414856 16.6009543,17.5179093 16.6009543,17.5179093 C18.0094219,21.0373409 14.9461973,23.0570147 13.0489992,24.4127958 Z" id="Shape" fill="#E58E1A"></path>
                    <path d="M3.00556586,8.10760668 C3.00556586,8.10760668 4.89914209,8.25745683 7.96036657,8.27282608 L10.148423,43.8218924 C9.15911797,43.7728099 8.17340322,43.6560429 7.19677255,43.472242 L3.00556586,8.10760668 Z" id="Path" fill="#FFFFFF" style="mix-blend-mode: soft-light;"></path>
                </g>
                <path d="M49.6260131,31.7836991 L46.3450835,31.7836991 L46.3450835,30.6900559 L49.6260131,30.6900559 L49.6260131,31.7836991 Z M54.972602,26.8623047 C55.1253656,26.8623047 55.2555599,26.9157146 55.3631889,27.0225361 C55.4708178,27.1293576 55.5246314,27.2573719 55.5246314,27.4065829 C55.5246314,27.5625762 55.4716857,27.6931338 55.3657928,27.7982598 C55.2598998,27.9033857 55.1288375,27.9559479 54.972602,27.9559479 C54.8302541,27.9559479 54.7043996,27.9008424 54.5950347,27.7906297 C54.4856698,27.680417 54.4309882,27.5524027 54.4309882,27.4065829 C54.4309882,27.2607631 54.4856698,27.1335965 54.5950347,27.0250795 C54.7043996,26.9165624 54.8302541,26.8623047 54.972602,26.8623047 Z M55.5246314,34.5178071 L54.6034201,34.5178071 L54.6034201,29.282069 L52.7905234,29.282069 L52.7905234,28.5027695 L55.5246314,28.5027695 L55.5246314,34.5178071 Z M63.7269554,34.5178071 L62.8771007,34.5178071 L62.8771007,30.7520666 C62.8771007,30.2296708 62.7962927,29.8510335 62.6346742,29.6161433 C62.4730557,29.3812532 62.2197361,29.2638098 61.8747079,29.2638098 C61.3553496,29.2638098 60.797865,29.5982884 60.2022374,30.2672556 L60.2022374,34.5178071 L59.3523826,34.5178071 L59.3523826,28.6437029 L60.2022374,28.6437029 L60.2022374,29.5062153 C60.8123925,28.8372481 61.455225,28.5027695 62.1307539,28.5027695 C63.1948936,28.5027695 63.7269554,29.1679685 63.7269554,30.4983864 L63.7269554,34.5178071 Z M70.2966162,29.4594573 C69.8010936,29.3018413 69.3339476,29.2230345 68.8951642,29.2230345 C68.4147721,29.2230345 68.0346249,29.3009249 67.7547114,29.4567082 C67.4747979,29.6124915 67.3348432,29.8205049 67.3348432,30.0807546 C67.3348432,30.2457016 67.3991467,30.3895699 67.5277556,30.5123638 C67.6563645,30.6351577 67.9135785,30.7497025 68.2994053,30.8560017 L69.1448156,31.0924246 C69.534425,31.1987238 69.8521599,31.3260976 70.0980299,31.4745499 C70.3438999,31.6230022 70.5282996,31.8026085 70.6512346,32.0133741 C70.7741696,32.2241397 70.8356362,32.4688075 70.8356362,32.7473847 C70.8356362,33.2935425 70.5992263,33.7251474 70.1263994,34.0422122 C69.6535725,34.359277 69.0521456,34.5178071 68.3221009,34.5178071 C67.5958387,34.5178071 66.9963032,34.4115095 66.5234763,34.1989111 L66.6936931,33.4566533 C67.1892157,33.6839136 67.7206652,33.797542 68.2880575,33.797542 C68.7797975,33.797542 69.1798031,33.7086553 69.4880862,33.530879 C69.7963694,33.3531028 69.9505086,33.1175987 69.9505086,32.8243595 C69.9505086,32.6264231 69.8739118,32.4495659 69.7207159,32.2937826 C69.56752,32.1379994 69.2072313,31.9758039 68.639839,31.8071914 C68.1821425,31.6715683 67.8454948,31.5698525 67.6298857,31.5020409 C67.4142766,31.4342294 67.213801,31.3343463 67.0284529,31.2023887 C66.8431047,31.0704311 66.7022044,30.9128174 66.6057477,30.729543 C66.509291,30.5462685 66.4610634,30.3410042 66.4610634,30.1137439 C66.4610634,29.6189028 66.6842344,29.2267014 67.130583,28.9371277 C67.5769316,28.6475541 68.168902,28.5027695 68.906512,28.5027695 C69.3831216,28.5027695 69.9126798,28.5815763 70.4952025,28.7391923 L70.2966162,29.4594573 Z M77.944317,34.6569392 C77.3632583,34.9287335 76.7914607,35.0646286 76.2289071,35.0646286 C75.1963251,35.0646286 74.6800419,34.5078361 74.6800419,33.3942343 L74.6800419,29.7873149 L73.5697442,29.7873149 L73.5697442,29.0228971 L74.6800419,29.0228971 L74.6800419,27.4091263 L75.5238681,27.4091263 L75.5238681,29.0228971 L77.489095,29.0228971 L77.489095,29.7873149 L75.5238681,29.7873149 L75.5238681,33.1620778 C75.5238681,33.5206953 75.6015882,33.7990916 75.7570306,33.997275 C75.9124731,34.1954583 76.1234275,34.2945485 76.3899003,34.2945485 C76.8636296,34.2945485 77.3318005,34.1869649 77.7944268,33.9717944 L77.944317,34.6569392 Z M85.0529978,34.3693555 L84.1328336,34.3693555 C84.057637,34.1384297 84.0200393,33.8305332 84.0200393,33.4456568 C83.4936631,34.1604272 82.7773274,34.5178071 81.8710106,34.5178071 C81.4119156,34.5178071 81.0072453,34.3666079 80.6569875,34.064205 C80.3067297,33.7618022 80.1316034,33.3723498 80.1316034,32.8958362 C80.1316034,32.6135936 80.1929471,32.364344 80.3156362,32.1480802 C80.4383254,31.9318163 80.6183988,31.749461 80.8558617,31.6010087 C81.0933246,31.4525563 81.3822335,31.3352625 81.722597,31.2491235 C82.0629605,31.1629845 82.4666414,31.1034212 82.9336518,31.0704318 L83.9725469,30.9934569 L83.9725469,30.7185466 C83.9725469,29.7361955 83.4778399,29.2450273 82.4884111,29.2450273 C82.2549059,29.2450273 81.9590711,29.2917616 81.6008979,29.3852316 C81.2427246,29.4787015 80.9350169,29.5895809 80.6777654,29.717873 L80.4343671,29.1020739 C81.2773605,28.7025356 82.0609764,28.5027695 82.7852383,28.5027695 C84.1941849,28.5027695 84.8986477,29.1937038 84.8986477,30.5755932 L84.8986477,33.0387896 C84.8986477,33.5372961 84.9500972,33.9808136 85.0529978,34.3693555 Z M83.9593546,32.8860914 L83.9593546,31.7836991 C83.1630818,31.8575811 82.6168317,31.9266014 82.320588,31.9907622 C82.0243443,32.0549229 81.7677294,32.1744933 81.5507357,32.3494771 C81.3337419,32.5244609 81.2252466,32.7616576 81.2252466,33.0610743 C81.2252466,33.3332713 81.3177034,33.5529699 81.5026199,33.7201766 C81.6875363,33.8873833 81.9233956,33.9709855 82.2102048,33.9709855 C82.5234306,33.9709855 82.8347648,33.8747458 83.1442168,33.6822636 C83.4536688,33.4897815 83.7253787,33.2243934 83.9593546,32.8860914 Z M91.0680354,34.5178071 L88.7319007,34.5178071 L88.7319007,27.1002554 L87.2402842,27.1002554 L87.2402842,26.3154831 L89.5873867,26.3154831 L89.5873867,33.7330347 L91.0680354,33.7330347 L91.0680354,34.5178071 Z M98.1767162,34.5178071 L95.8405815,34.5178071 L95.8405815,27.1002554 L94.348965,27.1002554 L94.348965,26.3154831 L96.6960674,26.3154831 L96.6960674,33.7330347 L98.1767162,33.7330347 L98.1767162,34.5178071 Z M105.320465,32.2406778 C104.799793,32.503183 104.539461,32.7342581 104.539461,32.93391 C104.539461,33.0411305 104.599195,33.1317119 104.718664,33.205657 C104.838133,33.2796022 105.001286,33.3165742 105.208129,33.3165742 L107.085748,33.2611156 C107.531528,33.2611156 107.878341,33.3738803 108.126195,33.599413 C108.374049,33.8249457 108.497974,34.1447536 108.497974,34.5588464 C108.497974,35.2132609 108.216245,35.7345664 107.652778,36.1227784 C107.089311,36.5109904 106.431349,36.7050934 105.678871,36.7050934 C105.06191,36.7050934 104.557294,36.5710699 104.165007,36.3030187 C103.77272,36.0349676 103.576579,35.6883549 103.576579,35.2631704 C103.576579,34.8010132 103.879706,34.4109584 104.485968,34.0929943 C103.983127,33.8489754 103.73171,33.549502 103.73171,33.1945653 C103.73171,32.787867 104.056234,32.4089039 104.705291,32.0576644 C104.405726,31.8691043 104.175707,31.625089 104.015226,31.3256112 C103.854744,31.0261334 103.774505,30.7100226 103.774505,30.3772695 C103.774505,29.8337727 103.952815,29.3873356 104.309439,29.0379448 C104.666064,28.688554 105.111838,28.5138612 105.646775,28.5138612 C106.031929,28.5138612 106.379633,28.5970482 106.689896,28.7634248 L108.342843,28.5027695 L108.342843,29.3457399 L107.278324,29.3457399 C107.438805,29.6378232 107.519044,29.9816629 107.519044,30.3772695 C107.519044,30.90228 107.342518,31.3459442 106.98946,31.7082754 C106.636401,32.0706066 106.188844,32.2517695 105.646775,32.2517695 C105.532655,32.2517695 105.423886,32.2480723 105.320465,32.2406778 Z M105.766663,31.7836991 C106.087392,31.7836991 106.349379,31.6828136 106.552632,31.4810397 C106.755884,31.2792657 106.857509,31.0156071 106.857509,30.6900559 C106.857509,30.3475488 106.758681,30.0796513 106.561023,29.8863553 C106.363364,29.6930592 106.09858,29.5964127 105.766663,29.5964127 C105.457122,29.5964127 105.197,29.6972981 104.986288,29.8990721 C104.775577,30.100846 104.670223,30.3645046 104.670223,30.6900559 C104.670223,31.0088248 104.775577,31.2707878 104.986288,31.4759529 C105.197,31.681118 105.457122,31.7836991 105.766663,31.7836991 Z M105.981533,36.1582718 C106.526587,36.1582718 106.991116,36.012241 107.375131,35.720175 C107.759147,35.428109 107.951152,35.0667627 107.951152,34.6361252 C107.951152,34.1926965 107.678629,33.9709855 107.133574,33.9709855 C106.953069,33.9709855 106.641614,33.9837765 106.1992,34.0093589 C105.919594,34.0264138 105.700159,34.0349412 105.54089,34.0349412 C105.463025,34.0349412 105.341805,34.1116873 105.177227,34.2651819 C105.012649,34.4186764 104.887005,34.5732346 104.800292,34.728861 C104.713579,34.8844874 104.670223,35.0454411 104.670223,35.2117269 C104.670223,35.4718148 104.790558,35.6945918 105.031231,35.8800644 C105.271905,36.0655369 105.588669,36.1582718 105.981533,36.1582718 Z M113.41416,26.8623047 C113.566924,26.8623047 113.697118,26.9157146 113.804747,27.0225361 C113.912376,27.1293576 113.96619,27.2573719 113.96619,27.4065829 C113.96619,27.5625762 113.913244,27.6931338 113.807351,27.7982598 C113.701458,27.9033857 113.570396,27.9559479 113.41416,27.9559479 C113.271813,27.9559479 113.145958,27.9008424 113.036593,27.7906297 C112.927228,27.680417 112.872547,27.5524027 112.872547,27.4065829 C112.872547,27.2607631 112.927228,27.1335965 113.036593,27.0250795 C113.145958,26.9165624 113.271813,26.8623047 113.41416,26.8623047 Z M113.96619,34.5178071 L113.044979,34.5178071 L113.044979,29.282069 L111.232082,29.282069 L111.232082,28.5027695 L113.96619,28.5027695 L113.96619,34.5178071 Z M122.168514,34.6569392 C121.587455,34.9287335 121.015658,35.0646286 120.453104,35.0646286 C119.420522,35.0646286 118.904239,34.5078361 118.904239,33.3942343 L118.904239,29.7873149 L117.793941,29.7873149 L117.793941,29.0228971 L118.904239,29.0228971 L118.904239,27.4091263 L119.748065,27.4091263 L119.748065,29.0228971 L121.713292,29.0228971 L121.713292,29.7873149 L119.748065,29.7873149 L119.748065,33.1620778 C119.748065,33.5206953 119.825785,33.7990916 119.981227,33.997275 C120.13667,34.1954583 120.347624,34.2945485 120.614097,34.2945485 C121.087827,34.2945485 121.555997,34.1869649 122.018624,33.9717944 L122.168514,34.6569392 Z M129.277195,34.5178071 L128.42734,34.5178071 L128.42734,30.6346374 C128.42734,30.0959515 128.346532,29.7055069 128.184913,29.463292 C128.023295,29.2210771 127.769975,29.0999715 127.424947,29.0999715 C126.905589,29.0999715 126.348104,29.4448803 125.752477,30.1347083 L125.752477,34.5178071 L124.902622,34.5178071 L124.902622,26.3154831 L125.752477,26.3154831 L125.752477,29.349936 C126.362632,28.660108 127.005464,28.3151992 127.680993,28.3151992 C128.745133,28.3151992 129.277195,29.0011415 129.277195,30.3730466 L129.277195,34.5178071 Z M135.839054,34.3768736 L134.989199,34.3768736 L134.989199,33.5087239 C134.379044,34.1814494 133.736212,34.5178071 133.060683,34.5178071 C131.996543,34.5178071 131.464481,33.850729 131.464481,32.5165527 L131.464481,28.5027695 L132.314336,28.5027695 L132.314336,32.2628726 C132.314336,32.7627189 132.390604,33.1357189 132.543143,33.3818838 C132.695682,33.6280487 132.953541,33.7511293 133.316729,33.7511293 C133.836087,33.7511293 134.393571,33.4166507 134.989199,32.7476835 L134.989199,28.5027695 L135.839054,28.5027695 L135.839054,34.3768736 Z M139.457652,29.7371108 C139.654206,29.4633184 139.91974,29.2427667 140.25426,29.0754491 C140.588781,28.9081315 140.94125,28.824474 141.31168,28.824474 C141.99962,28.824474 142.535412,29.1020649 142.919071,29.6572551 C143.30273,30.2124453 143.494556,30.9425475 143.494556,31.8475836 C143.494556,32.7640278 143.290445,33.5293042 142.882217,34.1434358 C142.473989,34.7575674 141.927802,35.0646286 141.243642,35.0646286 C140.876992,35.0646286 140.533972,34.9724152 140.214572,34.7879856 C139.895171,34.603556 139.642867,34.3592379 139.457652,34.0550241 L139.457652,34.9106212 L138.573162,34.9106212 L138.573162,26.8623047 L139.457652,26.8623047 L139.457652,29.7371108 Z M139.119983,30.5578572 L139.119983,32.8706656 C139.295286,33.1840268 139.532339,33.4457508 139.83115,33.6558453 C140.129961,33.8659398 140.438728,33.9709855 140.75746,33.9709855 C141.259463,33.9709855 141.658868,33.7573332 141.955687,33.3300224 C142.252506,32.9027116 142.400913,32.3774832 142.400913,31.7543216 C142.400913,31.1133553 142.259478,30.5934683 141.976603,30.1946448 C141.693729,29.7958214 141.299304,29.5964127 140.793317,29.5964127 C140.135933,29.5964127 139.57816,29.916891 139.119983,30.5578572 Z M149.509594,31.7836991 L146.228664,31.7836991 L146.228664,30.6900559 L149.509594,30.6900559 L149.509594,31.7836991 Z M153.987587,32.2406778 C153.466915,32.503183 153.206583,32.7342581 153.206583,32.93391 C153.206583,33.0411305 153.266317,33.1317119 153.385786,33.205657 C153.505256,33.2796022 153.668409,33.3165742 153.875251,33.3165742 L155.75287,33.2611156 C156.198651,33.2611156 156.545463,33.3738803 156.793317,33.599413 C157.041171,33.8249457 157.165096,34.1447536 157.165096,34.5588464 C157.165096,35.2132609 156.883367,35.7345664 156.3199,36.1227784 C155.756433,36.5109904 155.098471,36.7050934 154.345993,36.7050934 C153.729033,36.7050934 153.224416,36.5710699 152.832129,36.3030187 C152.439842,36.0349676 152.243702,35.6883549 152.243702,35.2631704 C152.243702,34.8010132 152.546828,34.4109584 153.15309,34.0929943 C152.650249,33.8489754 152.398833,33.549502 152.398833,33.1945653 C152.398833,32.787867 152.723356,32.4089039 153.372413,32.0576644 C153.072848,31.8691043 152.842829,31.625089 152.682348,31.3256112 C152.521867,31.0261334 152.441627,30.7100226 152.441627,30.3772695 C152.441627,29.8337727 152.619937,29.3873356 152.976562,29.0379448 C153.333186,28.688554 153.77896,28.5138612 154.313897,28.5138612 C154.699052,28.5138612 155.046755,28.5970482 155.357019,28.7634248 L157.009965,28.5027695 L157.009965,29.3457399 L155.945446,29.3457399 C156.105927,29.6378232 156.186167,29.9816629 156.186167,30.3772695 C156.186167,30.90228 156.00964,31.3459442 155.656582,31.7082754 C155.303524,32.0706066 154.855966,32.2517695 154.313897,32.2517695 C154.199777,32.2517695 154.091008,32.2480723 153.987587,32.2406778 Z M154.433785,31.7836991 C154.754514,31.7836991 155.016501,31.6828136 155.219754,31.4810397 C155.423007,31.2792657 155.524631,31.0156071 155.524631,30.6900559 C155.524631,30.3475488 155.425804,30.0796513 155.228145,29.8863553 C155.030486,29.6930592 154.765703,29.5964127 154.433785,29.5964127 C154.124244,29.5964127 153.864122,29.6972981 153.653411,29.8990721 C153.442699,30.100846 153.337345,30.3645046 153.337345,30.6900559 C153.337345,31.0088248 153.442699,31.2707878 153.653411,31.4759529 C153.864122,31.681118 154.124244,31.7836991 154.433785,31.7836991 Z M154.648655,36.1582718 C155.19371,36.1582718 155.658238,36.012241 156.042254,35.720175 C156.42627,35.428109 156.618275,35.0667627 156.618275,34.6361252 C156.618275,34.1926965 156.345751,33.9709855 155.800697,33.9709855 C155.620192,33.9709855 155.308736,33.9837765 154.866322,34.0093589 C154.586716,34.0264138 154.367282,34.0349412 154.208012,34.0349412 C154.130147,34.0349412 154.008928,34.1116873 153.84435,34.2651819 C153.679771,34.4186764 153.554127,34.5732346 153.467414,34.728861 C153.380701,34.8844874 153.337345,35.0454411 153.337345,35.2117269 C153.337345,35.4718148 153.45768,35.6945918 153.698353,35.8800644 C153.939027,36.0655369 154.255791,36.1582718 154.648655,36.1582718 Z M163.726955,34.3768736 L162.877101,34.3768736 L162.877101,33.5087239 C162.266946,34.1814494 161.624113,34.5178071 160.948584,34.5178071 C159.884444,34.5178071 159.352383,33.850729 159.352383,32.5165527 L159.352383,28.5027695 L160.202237,28.5027695 L160.202237,32.2628726 C160.202237,32.7627189 160.278506,33.1357189 160.431044,33.3818838 C160.583583,33.6280487 160.841443,33.7511293 161.20463,33.7511293 C161.723988,33.7511293 162.281473,33.4166507 162.877101,32.7476835 L162.877101,28.5027695 L163.726955,28.5027695 L163.726955,34.3768736 Z M170.296616,29.4594573 C169.801094,29.3018413 169.333948,29.2230345 168.895164,29.2230345 C168.414772,29.2230345 168.034625,29.3009249 167.754711,29.4567082 C167.474798,29.6124915 167.334843,29.8205049 167.334843,30.0807546 C167.334843,30.2457016 167.399147,30.3895699 167.527756,30.5123638 C167.656365,30.6351577 167.913579,30.7497025 168.299405,30.8560017 L169.144816,31.0924246 C169.534425,31.1987238 169.85216,31.3260976 170.09803,31.4745499 C170.3439,31.6230022 170.5283,31.8026085 170.651235,32.0133741 C170.77417,32.2241397 170.835636,32.4688075 170.835636,32.7473847 C170.835636,33.2935425 170.599226,33.7251474 170.126399,34.0422122 C169.653572,34.359277 169.052146,34.5178071 168.322101,34.5178071 C167.595839,34.5178071 166.996303,34.4115095 166.523476,34.1989111 L166.693693,33.4566533 C167.189216,33.6839136 167.720665,33.797542 168.288058,33.797542 C168.779798,33.797542 169.179803,33.7086553 169.488086,33.530879 C169.796369,33.3531028 169.950509,33.1175987 169.950509,32.8243595 C169.950509,32.6264231 169.873912,32.4495659 169.720716,32.2937826 C169.56752,32.1379994 169.207231,31.9758039 168.639839,31.8071914 C168.182143,31.6715683 167.845495,31.5698525 167.629886,31.5020409 C167.414277,31.4342294 167.213801,31.3343463 167.028453,31.2023887 C166.843105,31.0704311 166.702204,30.9128174 166.605748,30.729543 C166.509291,30.5462685 166.461063,30.3410042 166.461063,30.1137439 C166.461063,29.6189028 166.684234,29.2267014 167.130583,28.9371277 C167.576932,28.6475541 168.168902,28.5027695 168.906512,28.5027695 C169.383122,28.5027695 169.91268,28.5815763 170.495203,28.7391923 L170.296616,29.4594573 Z" id="-installgithub-gus-g" fill="#FFFFFF"></path>
            </g>
        </g>
    </g>
</svg>