<?xml version="1.0" encoding="UTF-8"?>
<svg width="247px" height="243px" viewBox="0 0 247 243" version="1.1" xmlns="http://www.w3.org/2000/svg" xmlns:xlink="http://www.w3.org/1999/xlink">
    <!-- Generator: Sketch 53 (72520) - https://sketchapp.com -->
    <title>GUS-github-logo</title>
    <desc>Created with Sketch.</desc>
    <g id="home" stroke="none" stroke-width="1" fill="none" fill-rule="evenodd">
        <g id="home-scrolling" transform="translate(-877.000000, -220.000000)" fill-rule="nonzero">
            <g id="GUS-github-logo" transform="translate(877.000000, 220.000000)">
                <g id="Untitled-2">
                    <path d="M170.743001,26.7775672 L170.743001,21.8351779 C170.679573,19.6496625 171.809303,17.6024627 173.69215,16.4909838 C175.574998,15.3795047 177.913227,15.3795047 179.796075,16.4909838 C181.678922,17.6024627 182.808653,19.6496625 182.745224,21.8351779 L182.745224,40.4828431 C182.745225,43.7965887 180.060384,46.4836924 176.746639,46.4864816 L158.109081,46.4864816 C154.793363,46.4864816 152.105443,43.798561 152.105443,40.4828431 C152.105443,37.1671252 154.793363,34.4792047 158.109081,34.4792047 L161.328204,34.4792047 C126.114943,3.87479779 72.5319637,5.31001103 39.0318627,38.8000051 C14.2113789,63.6794277 6.15246103,100.735054 18.3981453,133.675687 C19.4951559,136.765583 17.9102218,140.164117 14.8379843,141.30965 C11.7657471,142.455184 8.34267525,140.923965 7.14890343,137.870149 C-9.2808326,93.9119417 6.47971936,44.4186762 45.3026282,18.0550284 C84.1255373,-8.30861936 135.942484,-4.70551054 170.743001,26.7775672 Z" id="Shape" fill="#159ED9"></path>
                    <path d="M53.8944056,163.992041 C53.8944056,167.307759 51.206485,169.995679 47.8907672,169.995679 L43.6508238,169.995679 C78.8640843,200.630407 132.467278,199.205301 165.947165,165.710254 C190.376112,141.281307 198.58816,105.7901 187.379346,73.0834091 C186.684242,71.0540654 187.124581,68.8080407 188.534492,67.1913909 C189.944403,65.5747409 192.109687,64.8330733 194.214702,65.2457672 C196.319717,65.658461 198.044662,67.1628181 198.739766,69.192162 C209.411015,100.280682 204.410181,134.609105 185.312954,161.361068 C166.215727,188.113031 135.373681,203.994377 102.504675,204.001137 C77.7322537,204.069071 53.7989515,195.02956 35.2568475,178.601905 L35.2568475,182.64476 C35.2568475,185.960477 32.568927,188.648398 29.2532091,188.648398 C25.9374909,188.648398 23.2495703,185.960477 23.2495703,182.64476 L23.2495703,163.992041 C23.2495703,160.676323 25.9374909,157.988402 29.2532091,157.988402 L47.8907672,157.988402 C49.4830311,157.988402 51.0100801,158.620926 52.1359806,159.746827 C53.2618814,160.872728 53.8944056,162.399777 53.8944056,163.992041 Z" id="Shape" fill="#159ED9"></path>
                    <g id="Group" transform="translate(125.775091, 121.283076)">
                        <circle id="Oval" fill="#FFFFFF" cx="60.5872245" cy="60.5872245" r="60.5872245"></circle>
                        <g id="Group-23" transform="translate(17.364059, 18.329289)" fill="#061C3F">
                            <g id="github">
                                <path d="M43.4552507,0.0569663936 C19.4595209,0.0569663936 0,19.9816984 0,44.5607061 C0,64.2194794 12.4514858,80.8973002 29.7271074,86.7871752 C31.9001414,87.1971946 32.693299,85.8230752 32.693299,84.6428838 C32.693299,83.5845902 32.6552708,80.7864841 32.6335404,77.0741453 C20.546038,79.7614353 17.9927229,71.106699 17.9927229,71.106699 C16.0206944,65.9648328 13.168587,64.5962542 13.168587,64.5962542 C9.21909743,61.8369336 13.4619466,61.8923417 13.4619466,61.8923417 C17.8243127,62.2081676 20.1168637,66.4801277 20.1168637,66.4801277 C23.9957297,73.2786944 30.2920963,71.3172498 32.7693551,70.1758441 C33.1605012,67.3001667 34.2850466,65.3387218 35.5291086,64.2250203 C25.8808368,63.100237 15.7327673,59.2826228 15.7327673,42.2335681 C15.7327673,37.3742828 17.427734,33.4015262 20.2092177,30.2875944 C19.7583131,29.162811 18.2697847,24.635974 20.6329594,18.5133853 C20.6329594,18.5133853 24.2836568,17.3165716 32.5846473,23.0734672 C36.0506368,22.087204 39.7665252,21.5940725 43.4661159,21.57745 C47.1548414,21.5996133 50.8761623,22.087204 54.3475843,23.079008 C62.6431424,17.3221124 66.2884071,18.5189261 66.2884071,18.5189261 C68.6570145,24.6470556 67.168486,29.168352 66.723014,30.293135 C69.5099301,33.4070672 71.1885993,37.3798238 71.1885993,42.2391091 C71.1885993,59.3324902 61.0296645,63.0946963 51.3487973,64.1973162 C52.9079493,65.5714358 54.2986912,68.2864299 54.2986912,72.4364922 C54.2986912,78.3873159 54.2443652,83.1856525 54.2443652,84.6428838 C54.2443652,85.8341569 55.0266576,87.2193578 57.2322873,86.7816343 C74.4807458,80.8862186 86.9213664,64.2139387 86.9213664,44.5607061 C86.9213664,19.9816984 67.4618456,0.0569663936 43.4552507,0.0569663936 Z" id="Shape"></path>
                            </g>
                        </g>
                    </g>
                    <path d="M42.3166819,104.233601 C42.3166819,99.82689 43.1589431,95.952488 44.8434657,92.6103951 C46.4624887,89.3474971 49.0194449,86.6427196 52.1862998,84.8430615 C55.4071071,83.0001936 59.2562412,82.0787598 63.7337022,82.0787598 C66.5734846,82.0623331 69.3940931,82.5446929 72.0670355,83.5038659 C74.4857189,84.3364255 76.6981983,85.6770091 78.5558167,87.4355417 L74.1491056,92.4335203 C71.3150755,90.0598127 67.7387404,88.7544505 64.0419699,88.7444157 C59.3994255,88.7444157 55.9478387,90.1425696 53.6872093,92.9388772 C51.4265801,95.7351846 50.2945809,99.495039 50.2912118,104.21844 C50.2912118,114.729862 54.8394228,119.985572 63.9358449,119.985572 C66.8407093,119.991224 69.716076,119.40308 72.3854103,118.257252 L72.3854103,108.857616 L63.7387559,108.857616 L63.7387559,102.919674 L79.5715838,102.919674 L79.5715838,122.497195 C74.7506914,125.171952 69.3173407,126.547704 63.8044522,126.489514 C59.1619078,126.489514 55.2336012,125.556288 52.0195321,123.689837 C48.8634203,121.888088 46.3305059,119.168333 44.7575551,115.892182 C43.1303061,112.560196 42.3166819,108.674003 42.3166819,104.233601 Z" id="Shape" fill="#081D3E"></path>
                    <path d="M88.1424348,110.121008 L88.1423854,83.2208662 L95.9350363,83.2208662 L95.9350363,109.499419 C95.9350363,112.915631 96.6998096,115.474421 98.2293561,117.175788 C99.7589027,118.877156 102.285687,119.731209 105.809708,119.737947 C109.340467,119.737947 111.867251,118.883894 113.39006,117.175788 C114.912868,115.467682 115.675957,112.908893 115.679326,109.499419 L115.679326,83.2208662 L123.476981,83.2208662 L123.476981,110.121008 C123.476981,115.282385 121.928905,119.299971 118.832752,122.173767 C115.7366,125.047563 111.392216,126.486145 105.799601,126.489514 C100.203617,126.489514 95.8592328,125.050932 92.7664493,122.173767 C89.6736659,119.296602 88.1323277,115.279016 88.1424348,110.121008 Z" id="Shape" fill="#081D3E"></path>
                    <path d="M129.318905,121.547125 L133.068653,116.609789 C134.593789,117.746109 136.303322,118.611133 138.122221,119.166894 C139.968002,119.699231 141.881518,119.959701 143.802431,119.94009 C146.261834,119.94009 148.236094,119.424626 149.725212,118.393698 C151.21433,117.36277 151.958889,115.816379 151.958889,113.754523 C152.027232,112.465936 151.648815,111.193239 150.887533,110.151329 C150.065118,109.181603 149.011985,108.434331 147.825071,107.978295 C146.026591,107.273134 144.187102,106.677409 142.316682,106.194386 C138.51303,105.203886 135.627443,103.74509 133.65992,101.817996 C131.692398,99.890902 130.710321,97.3034752 130.71369,94.0557157 C130.649578,91.7558426 131.340007,89.4981946 132.679528,87.6275772 C134.037774,85.8062782 135.882188,84.4050135 138.000935,83.584723 C140.415364,82.642251 142.98971,82.1771525 145.581287,82.2152061 C150.456315,82.1244309 155.234202,83.5843409 159.22592,86.3843998 L155.688422,91.4379674 C154.167314,90.472823 152.526029,89.7116473 150.806676,89.1739691 C149.165914,88.6912831 147.463365,88.4512238 145.753108,88.4614159 C143.529538,88.4614159 141.760789,88.8859157 140.426648,89.7399686 C139.11639,90.5627586 138.354439,92.0305762 138.435542,93.5756267 C138.354132,95.162374 139.124479,96.6722542 140.456969,97.5376238 C141.804587,98.4270517 144.046687,99.2895272 147.183268,100.12505 C151.313717,101.196407 154.468828,102.732691 156.6486,104.733904 C158.828372,106.735117 159.918259,109.642603 159.918259,113.456363 C160.003661,116.033479 159.251896,118.568913 157.775546,120.682964 C156.310986,122.677401 154.294035,124.198899 151.97405,125.059354 C149.379867,126.038242 146.625486,126.523301 143.852966,126.489514 C141.160452,126.508405 138.483786,126.076243 135.934026,125.210961 C133.530861,124.387802 131.291572,123.147555 129.318905,121.547125 Z" id="Shape" fill="#081D3E"></path>
                </g>
            </g>
        </g>
    </g>
</svg>